<svg xmlns="http://www.w3.org/2000/svg" viewBox="0 0 400 300"><g id="_164_career_flatline" data-name="#164_career_flatline"><path d="M50.47,235.3l-.15,0a.49.49,0,0,1-.32-.63L97.05,92.28,86.73,88.93a.5.5,0,0,1-.16-.87l36.84-29.74a.5.5,0,0,1,.47-.08.49.49,0,0,1,.33.34l12.35,45.71a.54.54,0,0,1-.14.5.51.51,0,0,1-.5.11l-10.33-3.35L83.24,229.71a.5.5,0,0,1-.63.32.49.49,0,0,1-.32-.63L124.8,100.76a.51.51,0,0,1,.63-.32l9.92,3.22L123.44,59.58,87.91,88.26l9.92,3.22a.5.5,0,0,1,.3.25.46.46,0,0,1,0,.38L51,235A.51.51,0,0,1,50.47,235.3Z" fill="#d1d3d4"/><path d="M237.26,248.83a.45.45,0,0,1-.16,0,.5.5,0,0,1-.32-.63l45.3-139.52-9.73-3.16a.49.49,0,0,1-.16-.86L307,76.51a.5.5,0,0,1,.47-.09.55.55,0,0,1,.33.35L319.5,120a.5.5,0,0,1-.14.49.48.48,0,0,1-.5.11l-9.73-3.16-28.56,87.95a.5.5,0,0,1-.63.32.49.49,0,0,1-.32-.63l28.71-88.42a.48.48,0,0,1,.25-.29.5.5,0,0,1,.38,0l9.33,3L307.06,77.77l-33.52,27.06,9.33,3a.5.5,0,0,1,.29.24.53.53,0,0,1,0,.39l-45.46,140A.5.5,0,0,1,237.26,248.83Z" fill="#d1d3d4"/><path d="M290.36,253.6l-.15,0a.5.5,0,0,1-.33-.63l21.8-69.67-7.75-2.52a.48.48,0,0,1-.33-.38.49.49,0,0,1,.17-.48l28.05-22.63a.48.48,0,0,1,.46-.09.47.47,0,0,1,.33.34l9.4,34.8a.5.5,0,0,1-.64.6l-7.74-2.51L316.5,245.7a.5.5,0,1,1-.95-.3l17.28-55.77a.53.53,0,0,1,.25-.3.5.5,0,0,1,.38,0l7.34,2.39-8.95-33.16L305.12,180.1l7.34,2.38a.51.51,0,0,1,.32.63l-21.95,70.14A.48.48,0,0,1,290.36,253.6Z" fill="#d1d3d4"/><path d="M158.22,246.35a1.6,1.6,0,0,1-.47-.08,1.5,1.5,0,0,1-.95-1.9L224.66,42.42a1.5,1.5,0,0,1,2.85,1l-67.86,202A1.51,1.51,0,0,1,158.22,246.35Z" fill="#231f20"/><path d="M202,246.62a1.61,1.61,0,0,1-.48-.08,1.49,1.49,0,0,1-.94-1.9L264.15,55.39a1.5,1.5,0,0,1,2.85,1L203.42,245.6A1.51,1.51,0,0,1,202,246.62Z" fill="#231f20"/><path d="M257,80.49a1.61,1.61,0,0,1-.48-.08L218,67.44a1.5,1.5,0,0,1,1-2.85l38.49,13a1.5,1.5,0,0,1-.48,2.92Z" fill="#231f20"/><path d="M249.74,102a1.61,1.61,0,0,1-.48-.08L210.77,89a1.5,1.5,0,0,1,1-2.85l38.49,13a1.5,1.5,0,0,1,.95,1.9A1.52,1.52,0,0,1,249.74,102Z" fill="#231f20"/><path d="M242.49,123.51a1.61,1.61,0,0,1-.48-.08l-38.49-13a1.5,1.5,0,0,1,1-2.85l38.49,13a1.5,1.5,0,0,1,.95,1.9A1.52,1.52,0,0,1,242.49,123.51Z" fill="#231f20"/><path d="M235.24,145a1.61,1.61,0,0,1-.48-.08l-38.49-13a1.5,1.5,0,0,1,1-2.84l38.49,13a1.5,1.5,0,0,1,.95,1.9A1.52,1.52,0,0,1,235.24,145Z" fill="#231f20"/><path d="M228,166.53a1.61,1.61,0,0,1-.48-.08l-38.49-13a1.5,1.5,0,0,1,1-2.84l38.49,13a1.5,1.5,0,0,1-.48,2.93Z" fill="#231f20"/><path d="M220.74,188a1.61,1.61,0,0,1-.48-.08l-38.49-13a1.5,1.5,0,1,1,1-2.84l38.49,13a1.5,1.5,0,0,1-.48,2.93Z" fill="#231f20"/><path d="M213.49,209.54a1.59,1.59,0,0,1-.48-.07l-38.49-13a1.5,1.5,0,1,1,1-2.84l38.49,13a1.5,1.5,0,0,1-.48,2.92Z" fill="#231f20"/><path d="M206.24,231.05a1.34,1.34,0,0,1-.48-.08l-38.49-13a1.5,1.5,0,1,1,1-2.84l38.49,13a1.5,1.5,0,0,1-.48,2.92Z" fill="#231f20"/><path d="M178.4,46.17c-4.94.87-9.39,3.85-9.3,9.38a12.24,12.24,0,0,0,4.42,8.76,13.85,13.85,0,0,0,13.82,2.74,11.39,11.39,0,0,0,7.08-9.67c.18-3.32-1.3-8.8-4.8-10a4.12,4.12,0,0,0-3,.6C186,46,180.46,45.8,178.4,46.17Z" fill="#fff"/><path d="M182.91,68.32a14.9,14.9,0,0,1-9.69-3.66,12.62,12.62,0,0,1-4.57-9.1c-.09-5.08,3.52-8.76,9.67-9.84h0c1.69-.3,7.08-.31,8.48,1.63a4.07,4.07,0,0,1,3-.41c3.8,1.31,5.29,7,5.1,10.47a11.86,11.86,0,0,1-7.37,10.06A12.47,12.47,0,0,1,182.91,68.32Zm-2.46-21.85a11.29,11.29,0,0,0-2,.15h0c-2.13.37-9,2.12-8.92,8.92A11.72,11.72,0,0,0,173.82,64a13.4,13.4,0,0,0,13.35,2.65A11,11,0,0,0,194,57.36c.18-3.3-1.28-8.45-4.49-9.56a3.56,3.56,0,0,0-2.6.55.44.44,0,0,1-.4,0,.46.46,0,0,1-.29-.29C185.81,47,182.85,46.47,180.45,46.47Zm-2-.3h0Z" fill="#231f20"/><path d="M205.51,166.5,200.88,178s13.54,5.3,17.2,6.08,3.78-.89-1.14-5.44c-3.84-3.55-5.32-4-5.32-4l2.48-4.45Z" fill="#fff"/><path d="M219.54,184.7a7.73,7.73,0,0,1-1.55-.2c-3.66-.78-16.73-5.88-17.28-6.1a.44.44,0,0,1-.25-.25.47.47,0,0,1,0-.35l4.63-11.47a.51.51,0,0,1,.25-.25.43.43,0,0,1,.35,0l8.6,3.64a.44.44,0,0,1,.25.27.46.46,0,0,1,0,.38l-2.24,4a26.82,26.82,0,0,1,5,3.89c4.08,3.77,4.19,5,3.83,5.74A1.58,1.58,0,0,1,219.54,184.7Zm-18.07-7c2.34.9,13.49,5.2,16.71,5.89,1.48.31,2,.13,2.09,0s.4-.91-3.64-4.64c-3.66-3.39-5.13-3.92-5.15-3.93a.44.44,0,0,1-.28-.27.48.48,0,0,1,0-.39l2.23-4-7.69-3.27Z" fill="#231f20"/><path d="M178.74,205.69a22.78,22.78,0,0,0,.52,6.83c.85,2.86,1.66,6.74,1.34,9.2s-2.94,5.41-5.53,4.21-3.63-8.67-3.54-10.69.34-7.27-.22-10Z" fill="#fff"/><path d="M176.3,226.66a3.27,3.27,0,0,1-1.42-.32c-3.06-1.41-3.87-9.56-3.81-11.12V215c.09-2.12.31-7.08-.22-9.65a.48.48,0,0,1,.1-.4.5.5,0,0,1,.38-.15l7.42.45a.42.42,0,0,1,.32.15.47.47,0,0,1,.11.34,22.5,22.5,0,0,0,.51,6.66c.42,1.41,1.76,6.27,1.35,9.39a6.21,6.21,0,0,1-3,4.39A3.7,3.7,0,0,1,176.3,226.66Zm-4.44-20.93A58.92,58.92,0,0,1,172,215v.23c-.09,2.07,1,9.19,3.27,10.25a2.56,2.56,0,0,0,2.39-.14,5.31,5.31,0,0,0,2.5-3.71c.38-2.94-.92-7.64-1.32-9a22,22,0,0,1-.58-6.53Z" fill="#231f20"/><path d="M162.78,114.8c1.36-.85,31.94,5.85,31.94,5.85s37.06,6.71,36.07,16S214.7,172,214.7,172l-11.4-3.12,10-25.14-28.25-4.89s-6.69,53-4.52,69.43L169.47,210Z" fill="#231f20"/><path d="M169.47,210.4a.39.39,0,0,1-.27-.1A.42.42,0,0,1,169,210l-6.69-95.16a.46.46,0,0,1,.2-.4c1.41-.88,25.06,4.21,32.28,5.79,1.51.28,37.43,6.89,36.41,16.47-1,9.28-15.53,34.41-16.15,35.48a.45.45,0,0,1-.5.2l-11.4-3.11a.44.44,0,0,1-.27-.23.41.41,0,0,1,0-.36L212.72,144l-27.25-4.72c-.64,5.23-6.5,53.47-4.46,68.86a.45.45,0,0,1-.37.5l-11.1,1.72Zm-6.23-95.24,6.64,94.29,10.2-1.59c-2-16.79,4.51-68.59,4.57-69.12a.45.45,0,0,1,.18-.3.46.46,0,0,1,.34-.08l28.24,4.89a.42.42,0,0,1,.31.22.46.46,0,0,1,0,.38l-9.86,24.69,10.6,2.89c1.66-2.89,15-26.26,15.86-34.83.78-7.29-25.51-13.67-35.71-15.51C183.62,118.67,165.93,115.08,163.24,115.16Z" fill="#231f20"/><path d="M183.56,76.05s9.54,5.36,11.39,14.6-.23,30-.23,30l-23.61-1s2.31-26.17,0-33.51-1.88-5.48.35-6.2S179.41,71.45,183.56,76.05Z" fill="#231f20"/><path d="M194.72,121.09h0l-23.61-1a.46.46,0,0,1-.31-.15.44.44,0,0,1-.11-.33c0-.26,2.28-26.16,0-33.34l-.4-1.27c-1.13-3.57-1.37-4.31-1-4.85a1.21,1.21,0,0,1,1-.43,5,5,0,0,0,1-.2,11.1,11.1,0,0,0,2.36-1.7c2.73-2.28,6.85-5.71,10.14-2.14.92.52,9.74,5.82,11.55,14.87,1.84,9.2-.14,29.28-.22,30.13A.44.44,0,0,1,194.72,121.09Zm-23.13-1.84,22.73,1c.28-3,1.87-21.1.2-29.46-1.79-8.93-11.09-14.26-11.18-14.31a.31.31,0,0,1-.11-.09c-2.53-2.8-5.56-.67-9,2.18a10.46,10.46,0,0,1-2.65,1.86,6.05,6.05,0,0,1-1.21.23,2.1,2.1,0,0,0-.41.07,24.64,24.64,0,0,0,1.15,4.08l.4,1.27C173.7,92.92,171.9,115.61,171.59,119.25Z" fill="#231f20"/><path d="M183.28,73s1.87,0,3.54,3.65c1.59,3,4.42,49.75,4.42,49.75l19-5.7s-10.37-22.35-12-30.47A22.26,22.26,0,0,0,183.28,73Z" fill="#cdcd32"/><path d="M187.16,72.31l0,7.22s-.73,4-5.12,2.8a9.05,9.05,0,0,1-5.83-5.17s-.37-15.21-.46-19.79c5.34-.09,11.21-3.52,11.21-3.52s1.84,2.75,2.63,3.62a10.88,10.88,0,0,1,1.65,2.18,9.58,9.58,0,0,1,.68,4.66,29.93,29.93,0,0,1-.54,5.43C190.71,73.15,187.16,72.31,187.16,72.31Z" fill="#fff"/><path d="M183.64,83a5.8,5.8,0,0,1-1.68-.25,9.43,9.43,0,0,1-6.14-5.45.4.4,0,0,1,0-.15s-.37-15.21-.45-19.79a.44.44,0,0,1,.13-.33.43.43,0,0,1,.32-.14c5.15-.08,10.92-3.42,11-3.46a.46.46,0,0,1,.61.14s1.83,2.74,2.59,3.57a12,12,0,0,1,1.72,2.27,10.09,10.09,0,0,1,.73,4.89,30.24,30.24,0,0,1-.56,5.52,3.58,3.58,0,0,1-1.55,2.43,4.44,4.44,0,0,1-2.69.57l0,6.69a4.52,4.52,0,0,1-1.9,2.92A3.93,3.93,0,0,1,183.64,83Zm-6.94-6a8.7,8.7,0,0,0,5.5,4.82,3.76,3.76,0,0,0,3.07-.21,3.69,3.69,0,0,0,1.48-2.23l-.05-7.14a.46.46,0,0,1,.17-.36.49.49,0,0,1,.39-.09,3.76,3.76,0,0,0,2.56-.36A2.75,2.75,0,0,0,191,69.65a28.5,28.5,0,0,0,.53-5.35,9.11,9.11,0,0,0-.62-4.44,10.76,10.76,0,0,0-1.58-2.08,38.87,38.87,0,0,1-2.44-3.33c-1.35.74-6.06,3.14-10.6,3.36C176.36,62.64,176.67,75.9,176.7,77.07Z" fill="#231f20"/><path d="M187.12,75.86A7,7,0,0,1,182.3,74a5,5,0,0,1-1.6-3.92,14,14,0,0,0,6.46,2.2Z" fill="#231f20"/><path d="M187,76.3a7.24,7.24,0,0,1-5-2,5.49,5.49,0,0,1-1.73-4.29.44.44,0,0,1,.26-.34.42.42,0,0,1,.42,0,13.74,13.74,0,0,0,6.23,2.12.44.44,0,0,1,.43.44l0,3.55a.45.45,0,0,1-.42.44Zm.13-.45h0Zm-6-4.95a5.07,5.07,0,0,0,1.46,2.83,6.33,6.33,0,0,0,4.06,1.68l0-2.68A14,14,0,0,1,181.16,70.9Z" fill="#231f20"/><path d="M184.33,60.79s2.32,3.47,1.77,4.07-2.1.2-2.1.2" fill="#fff"/><path d="M185,65.64a4.73,4.73,0,0,1-1.13-.15.44.44,0,1,1,.22-.85c.52.13,1.41.2,1.66-.08A12.15,12.15,0,0,0,184,61a.45.45,0,0,1,.12-.62.46.46,0,0,1,.62.12c1.66,2.5,2.25,4.05,1.72,4.62A1.84,1.84,0,0,1,185,65.64Z" fill="#231f20"/><ellipse cx="187.38" cy="59.7" rx="0.4" ry="0.75" transform="translate(-2.2 7.41) rotate(-2.25)" fill="#231f20"/><ellipse cx="180.68" cy="59.51" rx="0.75" ry="0.4" transform="translate(115.84 238.34) rotate(-88.3)" fill="#231f20"/><path d="M177.27,62.06c-.77-1.08-2-3-3.56-2.44a2.6,2.6,0,0,0-1.08.8,4.67,4.67,0,0,0-.24,5.21c.73,1.44,3,3.62,4.6,1.81" fill="#fff"/><path d="M175.6,68.58a1.32,1.32,0,0,1-.28,0c-1.52-.18-2.85-1.77-3.34-2.73a5.06,5.06,0,0,1,.3-5.7,3.16,3.16,0,0,1,1.27-.94c1.8-.67,3.12,1.21,3.91,2.34l.18.26a.46.46,0,0,1-.1.64.45.45,0,0,1-.64-.11l-.19-.27c-.9-1.28-1.78-2.4-2.84-2a2.28,2.28,0,0,0-.89.68,4.18,4.18,0,0,0-.18,4.7,4.27,4.27,0,0,0,2.63,2.24,1.34,1.34,0,0,0,1.21-.52.47.47,0,0,1,.65,0,.46.46,0,0,1,0,.65A2.27,2.27,0,0,1,175.6,68.58Z" fill="#231f20"/><path d="M175.7,74.84s.56,16.83.56,27c0,11.65,2.28,27.25,2.28,27.25l-18.93,5.2a182.32,182.32,0,0,1,.7-23.12c.76-8.55,2.08-20.56,1.74-26.63S175.7,74.84,175.7,74.84Z" fill="#cdcd32"/><path d="M184.62,69a3.11,3.11,0,0,1-.43,0c-2.38-.27-4-2.71-4.1-2.81a.44.44,0,0,1,.12-.61.45.45,0,0,1,.62.12s1.49,2.2,3.46,2.42A3.44,3.44,0,0,0,187.08,67a.44.44,0,0,1,.63,0,.43.43,0,0,1,0,.62A4.44,4.44,0,0,1,184.62,69Z" fill="#231f20"/><polygon points="183.09 83.86 180.49 87.24 182.45 88.08 179.59 119.43 183.73 122.97 186.97 119.15 184.19 87.9 185.99 86.49 183.09 83.86" fill="#fff"/><path d="M183.73,123.43a.48.48,0,0,1-.3-.11l-4.13-3.54a.48.48,0,0,1-.16-.39l2.83-31-1.66-.71a.48.48,0,0,1-.26-.31.49.49,0,0,1,.08-.39l2.6-3.38a.44.44,0,0,1,.32-.17.49.49,0,0,1,.35.11l2.9,2.63a.48.48,0,0,1,.15.36.43.43,0,0,1-.18.34l-1.6,1.25,2.75,31a.47.47,0,0,1-.1.34l-3.24,3.81a.43.43,0,0,1-.31.16Zm-3.66-4.19,3.61,3.08L186.5,119l-2.76-31.06a.46.46,0,0,1,.17-.4l1.37-1.08-2.13-1.93-1.94,2.52,1.42.62a.46.46,0,0,1,.28.46Z" fill="#231f20"/><rect x="132.63" y="149.25" width="40.81" height="26.46" rx="3.46" transform="translate(-26.45 29.8) rotate(-10.24)" fill="#fff"/><path d="M138.09,179.07a4,4,0,0,1-3.89-3.26l-3.47-19.23a4,4,0,0,1,3.19-4.6l33.35-6a4,4,0,0,1,4.6,3.2l3.47,19.23a4,4,0,0,1-3.19,4.6h0l-33.35,6A3.49,3.49,0,0,1,138.09,179.07ZM168,146.89a3.07,3.07,0,0,0-.53.05l-33.35,6a3,3,0,0,0-2.39,3.44l3.47,19.23a3,3,0,0,0,1.23,1.91,2.94,2.94,0,0,0,2.21.48L172,172a2.95,2.95,0,0,0,2.39-3.43l-3.48-19.24a3,3,0,0,0-2.9-2.43Zm4.08,25.6h0Z" fill="#231f20"/><path d="M136.07,159.86a.49.49,0,0,1-.49-.42.5.5,0,0,1,.4-.58l31.76-5.73a.5.5,0,1,1,.18,1l-31.76,5.74Z" fill="#d1d3d4"/><path d="M143.26,151.3a.51.51,0,0,1-.49-.41l-.51-2.84a3.12,3.12,0,0,1,2.51-3.62l9.69-1.75a3.06,3.06,0,0,1,2.33.51,3.09,3.09,0,0,1,1.29,2l.51,2.84a.45.45,0,0,1-.08.37.49.49,0,0,1-.32.21l-14.84,2.68ZM155,143.63a2.43,2.43,0,0,0-.38,0L145,145.42a2.11,2.11,0,0,0-1.71,2.45l.43,2.35,13.85-2.5-.43-2.35a2.11,2.11,0,0,0-2.07-1.74Z" fill="#231f20"/><path d="M152.21,132.61s.46,2.77,1,4.7a26.61,26.61,0,0,0,2.45,5c-.71-.19-1.41.13-2.11,0a6.93,6.93,0,0,1,.87,2.2,2.41,2.41,0,0,1-.67,2.18,3.3,3.3,0,0,1-1.13.55c-1.46.45-3.92,1.12-5.18-.13a3.57,3.57,0,0,1-.82-1.83c-.58-2.74-.41-11.07-.37-12.42" fill="#fff"/><path d="M149.55,148.31a3.37,3.37,0,0,1-2.46-.86,4,4,0,0,1-1-2.08c-.64-3.05-.39-12.45-.38-12.54a.5.5,0,0,1,.51-.49.51.51,0,0,1,.49.52c-.08,2.41-.16,9.84.36,12.3a3.21,3.21,0,0,0,.68,1.58c1,1,3,.51,4.68,0a2.71,2.71,0,0,0,.95-.45,1.94,1.94,0,0,0,.51-1.73,6.82,6.82,0,0,0-.82-2,.5.5,0,0,1,.53-.73,2.55,2.55,0,0,0,.82,0l.29,0a22.11,22.11,0,0,1-2-4.29c-.54-1.93-1-4.63-1-4.75a.49.49,0,0,1,.41-.57.51.51,0,0,1,.58.41,47.32,47.32,0,0,0,1,4.64,25.75,25.75,0,0,0,2.38,4.83.5.5,0,0,1-.55.75,2.34,2.34,0,0,0-.95,0l-.21,0a6,6,0,0,1,.55,1.64,2.88,2.88,0,0,1-.85,2.63,3.51,3.51,0,0,1-1.3.64A11.33,11.33,0,0,1,149.55,148.31Z" fill="#231f20"/><path d="M163.41,81.1s-14.93,16.53-20.61,25.6c-1.62,2.59,1.41,34.48,1.41,34.48l12.11-4s-1.69-22.18-.85-24.75,17.85-17.1,17.85-17.1Z" fill="#cdcd32"/><path d="M161.8,94c-.22.13-2.27,31.8-2.27,31.8" fill="#fff"/><path d="M159.53,126.27h0a.47.47,0,0,1-.43-.49c2.07-31.91,2.22-32,2.51-32.16a.45.45,0,0,1,.62.16.47.47,0,0,1,0,.4c-.22,1.13-1.46,19.5-2.24,31.66A.47.47,0,0,1,159.53,126.27Z" fill="#231f20"/><path d="M228,76.69s5.72-9.44,6.75-9.41,6.29,1.94,6.38,2.84a4.64,4.64,0,0,1-.32,1.92s-1-.85-1.36-.52-1.6,2.44-1.13,2.77a3.39,3.39,0,0,0,1.41.38,4.27,4.27,0,0,1-2,1.36c-1.32.42-5,4.22-5,4.22Z" fill="#fff"/><path d="M232.79,80.71a.47.47,0,0,1-.28-.09l-4.76-3.57a.45.45,0,0,1-.12-.6c3.88-6.39,6.29-9.63,7.16-9.63h0c.91,0,6.69,1.88,6.83,3.25a5.18,5.18,0,0,1-.36,2.14.45.45,0,0,1-.71.18,3.23,3.23,0,0,0-.81-.48,6.67,6.67,0,0,0-1,2.06,3.06,3.06,0,0,0,1.08.24.46.46,0,0,1,.39.26.49.49,0,0,1,0,.47,4.78,4.78,0,0,1-2.24,1.52c-.89.29-3.4,2.67-4.77,4.11A.47.47,0,0,1,232.79,80.71Zm-4.16-4.14,4.11,3.07c.93-1,3.65-3.66,4.87-4a3.71,3.71,0,0,0,1.18-.62,2.32,2.32,0,0,1-.7-.3.74.74,0,0,1-.3-.55,6.26,6.26,0,0,1,1.36-2.92c.38-.38,1-.19,1.44.1a3.25,3.25,0,0,0,.12-1.14c-.32-.61-4.87-2.4-5.94-2.43C234.16,68,231.19,72.38,228.63,76.57Z" fill="#231f20"/><path d="M189.1,75.86S212.22,87,215.17,86.07,227.84,74.6,227.84,74.6l7.88,3.82s-11.07,21.27-18,20-25.54-10.14-25.54-10.14Z" fill="#cdcd32"/><path d="M194.43,89.45S208,95.08,215,97.63" fill="#fff"/><path d="M215,98.08a.44.44,0,0,1-.16,0c-6.87-2.52-20.43-8.13-20.56-8.19a.46.46,0,1,1,.35-.84c.13,0,13.67,5.65,20.53,8.17a.46.46,0,0,1,.27.58A.45.45,0,0,1,215,98.08Z" fill="#231f20"/></g></svg>