<svg xmlns="http://www.w3.org/2000/svg" viewBox="0 0 400 300"><g id="_163_career_flatline" data-name="#163_career_flatline"><polygon points="127.27 273.39 309.77 204.94 311.74 94.87 273.23 67.44 191.25 194.58 122.36 245.51 127.27 273.39" fill="#fff"/><path d="M127.27,273.9a.51.51,0,0,1-.24-.07.51.51,0,0,1-.25-.35l-4.91-27.88a.5.5,0,0,1,.2-.49l68.81-50.88L272.81,67.17a.52.52,0,0,1,.32-.22.53.53,0,0,1,.39.09L312,94.46a.51.51,0,0,1,.21.42l-2,110.07a.49.49,0,0,1-.32.46l-182.5,68.45A.58.58,0,0,1,127.27,273.9Zm-4.36-28.17,4.75,27L309.28,204.6l2-109.48-37.86-27-81.7,126.69a.49.49,0,0,1-.12.13Z" fill="#231f20"/><path d="M110.84,242.11s108-60.29,125.23-164.06l-24.3-7.39L281.61,26.6l30.13,68.27L289.6,90.13s-37.46,102-162.09,163.26Z" fill="#fff"/><path d="M127.51,253.89a.46.46,0,0,1-.28-.08l-16.67-11.28a.48.48,0,0,1-.22-.44.47.47,0,0,1,.25-.41c.27-.15,27.31-15.38,56.09-43.07,26.47-25.46,59.86-67,68.83-120.21l-23.88-7.26a.49.49,0,0,1-.35-.41.48.48,0,0,1,.23-.49l69.84-44.06a.46.46,0,0,1,.41-.05.49.49,0,0,1,.31.27L312.2,94.66a.51.51,0,0,1-.07.52.48.48,0,0,1-.5.17l-21.72-4.64c-1.32,3.41-11.21,27.79-34.22,58.37-22.79,30.29-63.49,73.06-128,104.76A.44.44,0,0,1,127.51,253.89Zm-15.73-11.74,15.77,10.67c64.12-31.6,104.62-74.15,127.32-104.31C279.49,115.79,289,90.21,289.13,90a.51.51,0,0,1,.57-.32l21.19,4.53-29.5-66.83L213,70.5l23.26,7.07a.5.5,0,0,1,.35.56c-8.91,53.74-42.56,95.58-69.22,121.22A314,314,0,0,1,111.78,242.15Z" fill="#231f20"/><path d="M177.53,85.53s3.33,3.68,2.91,4.61-2.38.66-2.38.66" fill="#fff"/><path d="M178.68,91.34a5.86,5.86,0,0,1-.69,0,.51.51,0,0,1-.42-.57.5.5,0,0,1,.56-.42c.64.08,1.67,0,1.85-.38s-1.25-2.33-2.82-4.06a.5.5,0,1,1,.74-.67c1.33,1.46,3.48,4.08,3,5.15C180.5,91.19,179.42,91.34,178.68,91.34Z" fill="#231f20"/><path d="M176.12,80.22c1.93,1.14,1.89,4.18,2.18,6.12.4,2.72.73,5.45,1,8.18.17,1.74-4.28,2.46-5.15,2.07l1.75,6.69L166,101.14l-.49-5.69s-1.42-5.73-.22-9.5a13.58,13.58,0,0,1,4.23-6.08S174.22,79.11,176.12,80.22Z" fill="#fff"/><path d="M175.91,103.78h-.11l-9.92-2.14a.51.51,0,0,1-.39-.45L165,95.5c0-.16-1.43-5.84-.2-9.7a13.93,13.93,0,0,1,4.41-6.33.47.47,0,0,1,.22-.09c.2,0,4.92-.78,6.94.41,1.83,1.07,2.09,3.49,2.3,5.43q.06.56.12,1c.4,2.71.74,5.47,1,8.2a1.69,1.69,0,0,1-.86,1.6,8,8,0,0,1-4.1,1.13l1.55,6a.49.49,0,0,1-.12.47A.51.51,0,0,1,175.91,103.78Zm-9.46-3,8.77,1.89-1.54-5.9a.51.51,0,0,1,.69-.59,6.62,6.62,0,0,0,4-.87q.48-.35.45-.69c-.27-2.71-.61-5.46-1-8.16-.05-.33-.09-.7-.13-1.08-.18-1.72-.41-3.86-1.81-4.68h0c-1.37-.81-4.78-.51-6.14-.31a13.2,13.2,0,0,0-4,5.76c-1.14,3.59.22,9.18.24,9.23Z" fill="#231f20"/><path d="M178.93,92.51a2.24,2.24,0,0,1-3.37-.39" fill="#fff"/><path d="M177.3,93.62H177a2.7,2.7,0,0,1-1.86-1.19.51.51,0,0,1,.11-.7.5.5,0,0,1,.7.11,1.74,1.74,0,0,0,1.17.79,2.2,2.2,0,0,0,1.46-.5.52.52,0,0,1,.71.06.51.51,0,0,1-.06.71A3.37,3.37,0,0,1,177.3,93.62Z" fill="#231f20"/><ellipse cx="175.76" cy="84.67" rx="0.39" ry="0.98" transform="translate(-13.68 38.04) rotate(-11.89)" fill="#231f20"/><path d="M164.36,103.11l.33-3.13,12.15.12,2.16,5.27A51,51,0,0,1,164.36,103.11Z" fill="#fff"/><path d="M178.74,105.88a52.8,52.8,0,0,1-14.53-2.3.49.49,0,0,1-.35-.53l.33-3.12a.49.49,0,0,1,.5-.45l12.15.12a.5.5,0,0,1,.46.31l2.16,5.27a.49.49,0,0,1,0,.47.48.48,0,0,1-.41.22Zm-13.84-3.13a52.12,52.12,0,0,0,13.35,2.12l-1.75-4.28-11.36-.1Z" fill="#231f20"/><path d="M205.49,113.39a36.19,36.19,0,0,0,2.58-4.36,13.7,13.7,0,0,1,.57-3.22c.48-1,1.85-2,2.58-.65,0,0,.24-2.34,1.85-1.13a4.2,4.2,0,0,1,1.7,4.5c-.33,1.79-6.37,11.06-6.37,11.06" fill="#fff"/><path d="M208.4,120.09a.48.48,0,0,1-.28-.08.5.5,0,0,1-.14-.69c2.41-3.69,6.07-9.64,6.29-10.87a3.69,3.69,0,0,0-1.5-4c-.26-.2-.49-.28-.61-.23s-.41.65-.44,1a.51.51,0,0,1-.41.44.49.49,0,0,1-.53-.26c-.23-.42-.44-.41-.52-.41-.38,0-.91.49-1.17,1a7,7,0,0,0-.41,2.13,7.84,7.84,0,0,1-.12,1,30.7,30.7,0,0,1-2.65,4.52.5.5,0,0,1-.69.14.49.49,0,0,1-.14-.69,33.08,33.08,0,0,0,2.51-4.19,7.34,7.34,0,0,0,.1-.86,7.53,7.53,0,0,1,.49-2.46,2.68,2.68,0,0,1,2.06-1.62,1.58,1.58,0,0,1,.73.19,1.6,1.6,0,0,1,.79-.89,1.57,1.57,0,0,1,1.61.35,4.71,4.71,0,0,1,1.89,5c-.33,1.84-5.82,10.29-6.44,11.25A.52.52,0,0,1,208.4,120.09Z" fill="#231f20"/><path d="M131.23,132.32s-1.33,2.23-2.1,3.91a24.37,24.37,0,0,0-1.25,5c-.39-.56-1.08-.75-1.49-1.25a6.57,6.57,0,0,1-.71,2.08,2.22,2.22,0,0,1-1.78,1.13,2.74,2.74,0,0,1-1.12-.29c-1.3-.55-3.44-1.54-3.59-3.18a3.32,3.32,0,0,1,.52-1.79c1.23-2.28,6.33-8.06,7.17-9" fill="#fff"/><path d="M123.9,143.66a3.38,3.38,0,0,1-1.32-.33c-1.11-.47-3.71-1.57-3.89-3.6a3.73,3.73,0,0,1,.58-2.06c1.37-2.55,7.18-9,7.24-9.1a.5.5,0,0,1,.7,0,.5.5,0,0,1,0,.71c-1.49,1.66-6,6.85-7.1,8.9a2.94,2.94,0,0,0-.46,1.51c.11,1.26,1.81,2.14,3.28,2.76a2.45,2.45,0,0,0,.93.25h0a1.75,1.75,0,0,0,1.36-.89,6.48,6.48,0,0,0,.64-1.92.5.5,0,0,1,.87-.22,2.9,2.9,0,0,0,.59.47l.18.11a21,21,0,0,1,1.13-4.18c.77-1.7,2.08-3.88,2.13-4a.5.5,0,0,1,.86.51s-1.33,2.23-2.08,3.87a23.92,23.92,0,0,0-1.2,4.82.52.52,0,0,1-.9.22,2.47,2.47,0,0,0-.67-.55l-.12-.08a5.24,5.24,0,0,1-.58,1.44,2.73,2.73,0,0,1-2.21,1.37Z" fill="#231f20"/><path d="M189.58,187.14s-1,6.9,1.86,7.92,17.51-10.66,16.5-13.25-6-3.48-10.5,0A66.83,66.83,0,0,1,189.58,187.14Z" fill="#231f20"/><path d="M191.82,195.61a1.59,1.59,0,0,1-.55-.09c-3.15-1.11-2.29-7.7-2.18-8.45a.49.49,0,0,1,.25-.37,68.93,68.93,0,0,0,7.79-5.28c2.66-2.06,5.78-2.86,8.35-2.15a4.12,4.12,0,0,1,2.92,2.36c.14.34.55,1.39-2.63,4.66C202.44,189.73,194.85,195.61,191.82,195.61ZM190,187.45c-.24,2-.38,6.45,1.56,7.14,1.58.55,9-4.4,13.46-9,2.15-2.22,2.53-3.32,2.42-3.61a3.23,3.23,0,0,0-2.26-1.76,8.86,8.86,0,0,0-7.48,2A71.78,71.78,0,0,1,190,187.45Z" fill="#231f20"/><path d="M160.05,155.89s17.48,4.69,30.54,2.3l-1.18,28.92s4.94,1.8,10.33-5.16c0,0,5.21-35.53,1.84-37.24s-34.25.31-34.25.31Z" fill="#fff"/><path d="M191,187.84a5.91,5.91,0,0,1-1.75-.24.53.53,0,0,1-.34-.51l1.16-28.28c-13,2.13-30-2.37-30.13-2.42a.51.51,0,0,1-.35-.32.52.52,0,0,1,.05-.47l7.28-10.87a.54.54,0,0,1,.39-.23c3.18-.2,31.13-2,34.52-.25S201.13,176,200.25,182a.51.51,0,0,1-.1.24C196.48,187,193,187.84,191,187.84Zm-1-1.12c1.17.23,5,.48,9.31-5,2.52-17.25,4-35.61,2.1-36.57-2.64-1.33-25-.22-33.73.35l-6.73,10c3.38.83,18.28,4.19,29.61,2.12a.49.49,0,0,1,.43.12.52.52,0,0,1,.18.41Z" fill="#231f20"/><path d="M150.39,150.85s-4.6,28.29-5.5,28.74-26,22.23-26,22.23l7.41,6.52s28-16.94,29.58-22S170,150.85,170,150.85Z" fill="#fff"/><path d="M126.31,208.85a.5.5,0,0,1-.34-.12l-7.42-6.52a.52.52,0,0,1-.17-.39.5.5,0,0,1,.18-.39c4.08-3.54,24.07-20.87,26-22.22.75-1.42,3.66-18.13,5.34-28.44a.52.52,0,0,1,.51-.44H170a.54.54,0,0,1,.43.23.51.51,0,0,1,.05.48c-.13.31-12.51,30.58-14.05,35.51-1.62,5.13-28.67,21.53-29.82,22.23A.48.48,0,0,1,126.31,208.85Zm-6.63-7,6.68,5.87c8-4.84,27.82-17.56,29-21.46,1.45-4.6,11.86-30.15,13.79-34.87H150.83c-4.59,28.12-5.4,28.53-5.71,28.68C144.29,180.55,129.62,193.2,119.68,201.83Zm25.21-22.24h0Z" fill="#231f20"/><path d="M140.06,177.53s15.92,10.85,25.22,9C192.06,181,205.74,144,205.74,144s-18-2.41-27.56-4.8l-27.79,8.9Z" fill="#231f20"/><path d="M162.91,187.21c-9.42,0-22.53-8.86-23.13-9.27a.48.48,0,0,1-.19-.57L149.92,148a.49.49,0,0,1,.32-.31L178,138.76a.5.5,0,0,1,.27,0c9.43,2.36,27.33,4.76,27.51,4.78a.5.5,0,0,1,.4.67c-.14.37-14.09,37.34-40.83,42.78A13.19,13.19,0,0,1,162.91,187.21Zm-22.26-9.88c2.28,1.49,16.25,10.35,24.53,8.67,24.38-5,38-36.85,39.87-41.57-3.25-.44-18.35-2.57-26.85-4.68l-27.42,8.77Z" fill="#231f20"/><path d="M185.41,108.72s-1.45-5.84-18.87-7.7a25.48,25.48,0,0,0-12.4,1.62c-.45,2.7-4.58,36.28-6.38,45.49,0,0,23.47,5.12,32.93-8.23C180.69,139.9,184.06,111.64,185.41,108.72Z" fill="#cdcd32"/><rect x="95.04" y="141.65" width="37.78" height="24.5" rx="3.2" transform="translate(92.37 -36.36) rotate(30.05)" fill="#fff"/><path d="M123,173.29a3.65,3.65,0,0,1-1.84-.49h0L94,157.08a3.69,3.69,0,0,1-1.72-2.25,3.73,3.73,0,0,1,.37-2.81l9.06-15.66a3.67,3.67,0,0,1,2.25-1.72,3.63,3.63,0,0,1,2.81.37l27.17,15.71a3.71,3.71,0,0,1,1.35,5.06l-9.06,15.66a3.72,3.72,0,0,1-2.25,1.73A4,4,0,0,1,123,173.29Zm-1.34-1.36a2.71,2.71,0,0,0,3.69-1l9.06-15.66a2.67,2.67,0,0,0,.27-2.05,2.63,2.63,0,0,0-1.26-1.64l-27.16-15.71a2.67,2.67,0,0,0-2-.28,2.7,2.7,0,0,0-1.64,1.26l-9.06,15.67a2.7,2.7,0,0,0,1,3.69l27.16,15.71Z" fill="#231f20"/><path d="M126.1,147.29a.57.57,0,0,1-.25-.06l-12.08-7a.51.51,0,0,1-.18-.69l1.34-2.31a2.93,2.93,0,0,1,4-1.07l7.89,4.57a2.88,2.88,0,0,1,1.36,1.77,2.92,2.92,0,0,1-.29,2.22L126.54,147A.5.5,0,0,1,126.1,147.29Zm-11.39-7.67,11.21,6.49,1.09-1.88a1.91,1.91,0,0,0-.7-2.62l-7.9-4.57a1.92,1.92,0,0,0-2.62.7Z" fill="#231f20"/><path d="M165.28,107.35s-17.72,2.05-22.23,4.19-19.56,18.93-19.56,18.93l6.89,6.61s11.67-11.33,14.91-12.8,16.62,1.45,16.62,1.45Z" fill="#cdcd32"/><path d="M185.41,108.72,195.16,125l10.58-13.48,5.55,6.12s-9.33,18.32-13.83,18.23c-9.78-.19-22.83-13.2-22.83-13.2Z" fill="#cdcd32"/><path d="M126.31,208.34c-.54-6.68-3.59-8.66-5.78-7.93s-3.69.94-3.07,7.43,4.13,15.83,7.67,15S126.84,215,126.31,208.34Z" fill="#231f20"/><path d="M124.67,223.38a3,3,0,0,1-1.76-.63c-2.9-2.08-5.42-9.36-5.94-14.86-.61-6.32.73-7.08,3.14-7.87l.26-.08a3.45,3.45,0,0,1,3.06.47c1.87,1.23,3.07,4,3.37,7.89.12,1.41.29,2.85.45,4.24.65,5.37,1.21,10-2,10.77A2.78,2.78,0,0,1,124.67,223.38Zm-3.27-22.62a2.16,2.16,0,0,0-.71.12l-.27.09c-1.88.61-3,1-2.46,6.83.49,5.17,2.89,12.24,5.53,14.14a1.83,1.83,0,0,0,1.52.4c2.35-.56,1.84-4.79,1.26-9.69-.17-1.39-.34-2.84-.46-4.27-.38-4.78-2-6.53-2.92-7.14A2.68,2.68,0,0,0,121.4,200.76Z" fill="#231f20"/><path d="M174,75.18a18.53,18.53,0,0,0-13.91,1.92,10.75,10.75,0,0,0-3.44,3.13c-2.57,3.87-1.34,8.85-3,13s-6.74,7.06-10.07,9.81c-3.82,3.16-7.57,6.57-10,10.88-4.1,7.19-2.56,14.13,2.13,20.5a11.83,11.83,0,0,0,2.22,2.41,13.58,13.58,0,0,0,5.74,2.26c3.81.77,9.32,1.54,12.87-.58,2.54-1.51,4.67-5.32,5-8.17s-.64-6.07.38-8.86c1.5-4.15,6.78-6,8.28-10.14,1.08-3-.12-6.31-1.73-9-1.24-2.11-2.78-4.54-1.87-6.81.53-1.35,1.8-2.23,2.77-3.3a8.8,8.8,0,0,0,2.16-4.86c.18-1.61-.52-3.13-.34-4.68,1.31.72,2.94.22,4.35.16,1.74-.07,3.49-.18,5.23-.32a7.92,7.92,0,0,0-2.48-4.83A10.84,10.84,0,0,0,174,75.18Z" fill="#fff"/><path d="M150.33,140.4a34.67,34.67,0,0,1-6.84-.81,14,14,0,0,1-6-2.36,12.46,12.46,0,0,1-2.32-2.5c-5.28-7.2-6-14.28-2.16-21,2.5-4.39,6.35-7.89,10.15-11,.77-.64,1.63-1.28,2.53-2,2.87-2.15,6.13-4.58,7.39-7.66a19.43,19.43,0,0,0,1.07-5.59c.24-2.57.49-5.21,2-7.5a11.34,11.34,0,0,1,3.6-3.29,19.07,19.07,0,0,1,14.31-2,11.06,11.06,0,0,1,4.43,2.59,8.28,8.28,0,0,1,2.63,5.14.46.46,0,0,1-.11.37.52.52,0,0,1-.34.18c-1.73.14-3.5.25-5.25.32-.35,0-.72.06-1.09.11a7.39,7.39,0,0,1-2.81,0,11,11,0,0,0,.19,1.47,8.52,8.52,0,0,1,.17,2.54,9.24,9.24,0,0,1-2.28,5.13c-.29.32-.6.63-.92.93A6.88,6.88,0,0,0,167,95.67c-.77,1.94.52,4.14,1.66,6.08l.18.3c2.14,3.64,2.73,6.83,1.77,9.47-.79,2.2-2.56,3.76-4.28,5.28s-3.29,2.9-4,4.86a12.41,12.41,0,0,0-.37,5.08,20.33,20.33,0,0,1,0,3.66c-.32,2.81-2.42,6.87-5.23,8.55A12.55,12.55,0,0,1,150.33,140.4Zm19.24-65.33a18.42,18.42,0,0,0-9.24,2.46,10.2,10.2,0,0,0-3.28,3c-1.38,2.08-1.61,4.49-1.85,7a20.51,20.51,0,0,1-1.15,5.88c-1.36,3.33-4.73,5.85-7.71,8.08-.89.67-1.74,1.3-2.5,1.92-3.72,3.08-7.49,6.5-9.91,10.75-3.64,6.39-2.93,13.1,2.1,20a11.29,11.29,0,0,0,2.13,2.3,13.14,13.14,0,0,0,5.53,2.17c2.15.44,8.68,1.76,12.51-.52,2.48-1.47,4.46-5.22,4.76-7.8a20.35,20.35,0,0,0,0-3.49,13.36,13.36,0,0,1,.42-5.48c.79-2.2,2.56-3.76,4.28-5.27s3.3-2.91,4-4.87c.86-2.35.29-5.26-1.69-8.63l-.18-.3c-1.25-2.13-2.68-4.55-1.73-7a7.64,7.64,0,0,1,2-2.57,12,12,0,0,0,.87-.88,8.28,8.28,0,0,0,2-4.58,7.88,7.88,0,0,0-.17-2.25,8.84,8.84,0,0,1-.17-2.42.5.5,0,0,1,.27-.39.49.49,0,0,1,.47,0,4.92,4.92,0,0,0,2.92.21c.4,0,.79-.09,1.17-.1,1.56-.07,3.13-.17,4.67-.28a7.54,7.54,0,0,0-2.25-4,10.11,10.11,0,0,0-4-2.36h0A15,15,0,0,0,169.57,75.07Z" fill="#231f20"/><path d="M173.33,88.35a3.68,3.68,0,0,0-.7-1.91,5.48,5.48,0,0,0-.94-1.29,1.81,1.81,0,0,0-1.47-.51,1.72,1.72,0,0,0-1.11.81,3.19,3.19,0,0,0-.39,1.35,5.89,5.89,0,0,0,2.51,5.33l-.14-.16" fill="#fff"/><path d="M171.2,92.62a.42.42,0,0,1-.24-.07,6.44,6.44,0,0,1-2.74-5.79,3.55,3.55,0,0,1,.47-1.57,2.16,2.16,0,0,1,1.45-1,2.25,2.25,0,0,1,1.88.63,5.59,5.59,0,0,1,1,1.4,4.25,4.25,0,0,1,.77,2.18.48.48,0,0,1-.51.49.5.5,0,0,1-.49-.51,3.22,3.22,0,0,0-.63-1.65,4.82,4.82,0,0,0-.85-1.17,1.31,1.31,0,0,0-1-.38,1.19,1.19,0,0,0-.77.57,2.8,2.8,0,0,0-.33,1.14,5.43,5.43,0,0,0,2,4.62.51.51,0,0,1,.29.17l.1.12a.54.54,0,0,1,0,.68A.53.53,0,0,1,171.2,92.62Z" fill="#231f20"/><path d="M195.49,136.35h-.09c-9.92-1.84-20.7-14.44-21.15-15a.49.49,0,0,1,.06-.7.49.49,0,0,1,.7.06c.11.12,11,12.86,20.57,14.63a.5.5,0,0,1,.4.59A.49.49,0,0,1,195.49,136.35Z" fill="#231f20"/><path d="M174.16,96.59l-4.65-1.49a5.3,5.3,0,0,0,2.54,2.81c1.79,1,2.66.8,2.66.8Z" fill="#231f20"/><path d="M174.45,99.23a5.41,5.41,0,0,1-2.65-.88A5.77,5.77,0,0,1,169,95.23a.49.49,0,0,1,.14-.49.51.51,0,0,1,.5-.12l4.64,1.49a.5.5,0,0,1,.33.35l.56,2.12a.5.5,0,0,1-.35.61A1.64,1.64,0,0,1,174.45,99.23ZM170.53,96a5.9,5.9,0,0,0,1.78,1.53,5.53,5.53,0,0,0,1.75.71L173.75,97Z" fill="#231f20"/><path d="M132.19,154.4h-.05L113,152.82a.49.49,0,0,1-.37-.21L103.16,139a.5.5,0,0,1,.82-.57l9.33,13.42,18.92,1.55a.5.5,0,0,1,0,1Z" fill="#d1d3d4"/><polygon points="110.84 242.12 110.84 262.49 127.27 273.39 127.27 253.39 110.84 242.12" fill="#fff"/><path d="M127.27,273.9a.46.46,0,0,1-.27-.09l-16.44-10.9a.5.5,0,0,1-.22-.42V242.11a.5.5,0,0,1,.78-.41L127.56,253a.52.52,0,0,1,.21.41v20a.51.51,0,0,1-.26.44A.5.5,0,0,1,127.27,273.9Zm-15.93-11.68,15.43,10.24v-18.8l-15.43-10.6Z" fill="#231f20"/><path d="M276.14,216.19a.5.5,0,0,1-.5-.5V122.27a.5.5,0,0,1,.5-.5.5.5,0,0,1,.5.5v93.42A.5.5,0,0,1,276.14,216.19Z" fill="#d1d3d4"/><path d="M241,229.22a.51.51,0,0,1-.5-.5v-58.5a.51.51,0,0,1,.5-.5.5.5,0,0,1,.5.5v58.5A.5.5,0,0,1,241,229.22Z" fill="#d1d3d4"/><path d="M205.86,242.19a.5.5,0,0,1-.5-.5V204.94a.51.51,0,0,1,.5-.5.5.5,0,0,1,.5.5v36.75A.5.5,0,0,1,205.86,242.19Z" fill="#d1d3d4"/><path d="M170.72,255.17a.5.5,0,0,1-.5-.5V231.94a.51.51,0,0,1,.5-.5.5.5,0,0,1,.5.5v22.73A.5.5,0,0,1,170.72,255.17Z" fill="#d1d3d4"/></g></svg>