<svg xmlns="http://www.w3.org/2000/svg" viewBox="0 0 400 300"><g id="_249_completed_task_flatline" data-name="#249_completed_task_flatline"><path d="M348.57,231.17H48.6a.5.5,0,0,1-.5-.5.5.5,0,0,1,.5-.5h300a.51.51,0,0,1,.5.5A.5.5,0,0,1,348.57,231.17Z" fill="#d1d3d4"/><polygon points="324.2 250.45 142.32 250.45 169.51 38.3 351.4 38.3 324.2 250.45" fill="#fff"/><path d="M324.21,251H142.32a.5.5,0,0,1-.38-.17.51.51,0,0,1-.12-.39L169,38.24a.5.5,0,0,1,.49-.44H351.4a.5.5,0,0,1,.5.57L324.7,250.51A.5.5,0,0,1,324.21,251Zm-181.32-1H323.76L350.83,38.8H170Z" fill="#231f20"/><path d="M325,64.14H209.7a3.89,3.89,0,0,1-3.94-4.52l.3-2.35a5.29,5.29,0,0,1,5.1-4.51H326.45a3.89,3.89,0,0,1,3.94,4.51l-.31,2.35A5.29,5.29,0,0,1,325,64.14Z" fill="#e6e7e8"/><path d="M193.53,54.62H183.25a.5.5,0,0,1-.5-.5.51.51,0,0,1,.5-.5h10.28a.51.51,0,0,1,.5.5A.5.5,0,0,1,193.53,54.62Z" fill="#d1d3d4"/><path d="M193,59.13H182.67a.5.5,0,0,1,0-1H193a.5.5,0,0,1,0,1Z" fill="#d1d3d4"/><path d="M192.37,63.63H182.1a.5.5,0,0,1-.5-.5.5.5,0,0,1,.5-.5h10.27a.5.5,0,0,1,.5.5A.5.5,0,0,1,192.37,63.63Z" fill="#d1d3d4"/><path d="M193.53,54.62H183.25a.5.5,0,0,1-.5-.5.51.51,0,0,1,.5-.5h10.28a.51.51,0,0,1,.5.5A.5.5,0,0,1,193.53,54.62Z" fill="none" stroke="#231f20" stroke-linecap="round" stroke-linejoin="round"/><path d="M193,59.13H182.67a.5.5,0,0,1,0-1H193a.5.5,0,0,1,0,1Z" fill="none" stroke="#231f20" stroke-linecap="round" stroke-linejoin="round"/><path d="M192.37,63.63H182.1a.5.5,0,0,1-.5-.5.5.5,0,0,1,.5-.5h10.27a.5.5,0,0,1,.5.5A.5.5,0,0,1,192.37,63.63Z" fill="none" stroke="#231f20" stroke-linecap="round" stroke-linejoin="round"/><path d="M317.63,119.67H184.51A10.08,10.08,0,0,1,174.29,108l2.19-17.11A13.73,13.73,0,0,1,189.7,79.12H322.83A10.09,10.09,0,0,1,333,90.84L330.85,108A13.72,13.72,0,0,1,317.63,119.67Z" fill="#fff"/><path d="M317.63,120.17H184.51a10.71,10.71,0,0,1-8.2-3.57,10.86,10.86,0,0,1-2.52-8.71L176,90.78A14.25,14.25,0,0,1,189.7,78.62H322.83A10.73,10.73,0,0,1,331,82.19a10.89,10.89,0,0,1,2.52,8.72L331.35,108A14.26,14.26,0,0,1,317.63,120.17ZM189.7,79.62A13.23,13.23,0,0,0,177,90.91L174.78,108a9.92,9.92,0,0,0,2.28,7.92,9.73,9.73,0,0,0,7.45,3.23H317.63a13.22,13.22,0,0,0,12.72-11.28l2.2-17.11a9.94,9.94,0,0,0-2.28-7.93,9.74,9.74,0,0,0-7.44-3.23Z" fill="#231f20"/><ellipse cx="201.8" cy="99.4" rx="15.01" ry="13.2" transform="translate(-13.39 164.96) rotate(-43.17)" fill="#cdcd32"/><path d="M211.42,94.92a4.71,4.71,0,0,1-.35.41l-11.95,10.58c-.41.36-.69.37-1,0L193,99.75q-.42-.5.15-1l1.67-1.34c.35-.28.64-.28.9,0l3.06,3.59c.32.37.59.38,1,0L209,92.88c.4-.35.68-.35,1,0s.82.93,1.22,1.4c.09.12.15.27.23.4Z" fill="#fff"/><path d="M314.7,93.25H229.11a1.5,1.5,0,0,1,0-3H314.7a1.5,1.5,0,0,1,0,3Z" fill="#e6e7e8"/><path d="M295.4,107.68H227.26a1.5,1.5,0,0,1,0-3H295.4a1.5,1.5,0,0,1,0,3Z" fill="#e6e7e8"/><path d="M311.61,166.58H178.49a10.09,10.09,0,0,1-10.22-11.72l2.2-17.11A13.73,13.73,0,0,1,183.69,126H316.81A10.09,10.09,0,0,1,327,137.75l-2.19,17.11A13.72,13.72,0,0,1,311.61,166.58Z" fill="#fff"/><path d="M311.62,167.08H178.49a10.71,10.71,0,0,1-8.19-3.56,10.9,10.9,0,0,1-2.52-8.72L170,137.69a14.26,14.26,0,0,1,13.72-12.15H316.81a10.73,10.73,0,0,1,8.2,3.56,10.93,10.93,0,0,1,2.52,8.72l-2.2,17.11A14.25,14.25,0,0,1,311.62,167.08ZM183.69,126.54A13.24,13.24,0,0,0,171,137.82l-2.19,17.11a9.94,9.94,0,0,0,2.28,7.93,9.73,9.73,0,0,0,7.44,3.22H311.62a13.23,13.23,0,0,0,12.72-11.28l2.19-17.11a9.87,9.87,0,0,0-2.28-7.93,9.72,9.72,0,0,0-7.44-3.22Z" fill="#231f20"/><path d="M194,160.89a12.74,12.74,0,0,1-9.76-4.26,13,13,0,0,1-3-10.38,17,17,0,0,1,16.38-14.52,12.77,12.77,0,0,1,9.77,4.25,13,13,0,0,1,3,10.39h0A17,17,0,0,1,194,160.89Zm3.61-28.16a16,16,0,0,0-15.38,13.64A12,12,0,0,0,185,156a11.76,11.76,0,0,0,9,3.92,16,16,0,0,0,15.39-13.64h0a12,12,0,0,0-2.76-9.61A11.79,11.79,0,0,0,197.59,132.73Z" fill="#d1d3d4"/><path d="M205.41,141.83a4.71,4.71,0,0,1-.35.41l-11.95,10.58c-.42.36-.7.37-1,0l-5.17-6.15c-.28-.33-.22-.65.16-1l1.67-1.34c.35-.28.64-.28.89,0l3.07,3.59c.32.38.59.38,1,0l9.29-8.19c.4-.35.67-.35,1,0s.81.93,1.21,1.41a2.55,2.55,0,0,1,.24.39Z" fill="#fff"/><path d="M308.69,140.16H223.1a1.5,1.5,0,0,1,0-3h85.59a1.5,1.5,0,0,1,0,3Z" fill="#e6e7e8"/><path d="M289.38,154.59H221.25a1.5,1.5,0,0,1,0-3h68.13a1.5,1.5,0,0,1,0,3Z" fill="#e6e7e8"/><path d="M305.6,213.49H172.48a10.09,10.09,0,0,1-10.22-11.72l2.19-17.1A13.72,13.72,0,0,1,177.68,173H310.8A10.09,10.09,0,0,1,321,184.67l-2.2,17.1A13.72,13.72,0,0,1,305.6,213.49Z" fill="#fff"/><path d="M305.6,214H172.48a10.69,10.69,0,0,1-8.19-3.56,10.9,10.9,0,0,1-2.53-8.72L164,184.6a14.25,14.25,0,0,1,13.72-12.15H310.8A10.69,10.69,0,0,1,319,176a10.9,10.9,0,0,1,2.52,8.72l-2.19,17.11A14.25,14.25,0,0,1,305.6,214ZM177.68,173.45A13.24,13.24,0,0,0,165,184.73l-2.19,17.11a9.87,9.87,0,0,0,2.28,7.93,9.72,9.72,0,0,0,7.44,3.22H305.6a13.24,13.24,0,0,0,12.73-11.28l2.19-17.11a9.87,9.87,0,0,0-2.28-7.93,9.72,9.72,0,0,0-7.44-3.22Z" fill="#231f20"/><path d="M188,207.8a12.74,12.74,0,0,1-9.76-4.26,13,13,0,0,1-3-10.38,17,17,0,0,1,16.38-14.52,12.76,12.76,0,0,1,9.77,4.26,13,13,0,0,1,3,10.38h0A17,17,0,0,1,188,207.8Zm3.61-28.16a16,16,0,0,0-15.39,13.64,12,12,0,0,0,2.77,9.6,11.76,11.76,0,0,0,9,3.92,16,16,0,0,0,15.39-13.64h0a12,12,0,0,0-2.76-9.6A11.78,11.78,0,0,0,191.58,179.64Z" fill="#d1d3d4"/><path d="M199.39,188.75a2.64,2.64,0,0,1-.35.4q-6,5.29-11.95,10.58c-.41.37-.69.37-1,0l-5.17-6.15c-.28-.33-.22-.65.16-.95l1.67-1.35c.35-.28.63-.28.89,0q1.53,1.8,3.07,3.59c.31.38.59.38,1,0l9.28-8.2c.4-.35.68-.35,1,0s.81.93,1.21,1.41a1.9,1.9,0,0,1,.23.39Z" fill="#fff"/><path d="M302.68,187.07h-85.6a1.5,1.5,0,1,1,0-3h85.6a1.5,1.5,0,0,1,0,3Z" fill="#e6e7e8"/><path d="M283.37,201.5H215.23a1.5,1.5,0,0,1,0-3h68.14a1.5,1.5,0,0,1,0,3Z" fill="#e6e7e8"/><path d="M297.73,239.84a.52.52,0,0,1-.29-.09l-7.8-5.43a.49.49,0,0,1-.21-.43.52.52,0,0,1,.24-.41l9.2-5.43a.5.5,0,1,1,.5.86l-8.52,5,7.16,5a.5.5,0,0,1-.28.91Z" fill="#d1d3d4"/><path d="M304.44,239.84a.5.5,0,0,1-.26-.93l8.52-5-7.16-5a.5.5,0,0,1,.58-.82l7.79,5.43a.53.53,0,0,1,.22.43.51.51,0,0,1-.25.41l-9.19,5.43A.47.47,0,0,1,304.44,239.84Z" fill="#d1d3d4"/><path d="M109.8,150.8s8.44,14.86,16.62,16.2c10.09,1.66,24.88-7.24,24.88-7.24L143,151.61l-17-.06-9.3-19Z" fill="#cdcd32"/><polygon points="123.61 247.7 124.23 254.1 133.16 253.41 132.32 245.72 123.61 247.7" fill="#fff"/><path d="M124.23,254.6a.49.49,0,0,1-.49-.45l-.63-6.4a.51.51,0,0,1,.39-.54l8.71-2a.51.51,0,0,1,.4.08.52.52,0,0,1,.21.36l.84,7.68a.48.48,0,0,1-.11.38.52.52,0,0,1-.35.18l-8.93.69Zm-.08-6.51.53,5.48,7.93-.62-.72-6.62Z" fill="#231f20"/><polygon points="61.05 233.52 55.32 238.08 58.56 244.22 64.28 241.69 61.05 233.52" fill="#fff"/><path d="M58.56,244.72a.49.49,0,0,1-.44-.26l-3.24-6.15a.48.48,0,0,1,.13-.62l5.72-4.56a.54.54,0,0,1,.44-.1.51.51,0,0,1,.34.3l3.24,8.18a.5.5,0,0,1-.27.64l-5.71,2.53A.52.52,0,0,1,58.56,244.72ZM56,238.21l2.84,5.37,4.85-2.15-2.81-7.1Z" fill="#231f20"/><path d="M78.28,175.26l.6,40.91-20,17.32L63,243.68s29.08-14,33.61-20.3,5.21-21.56,5.21-21.56l14.91,15,5.72,32.48,11.38-.62s-1.45-23.83-1.45-32.68-22.54-39.29-22.54-39.29Z" fill="#231f20"/><path d="M122.48,249.77a.49.49,0,0,1-.49-.41L116.29,217l-14-14.06c-.25,3.67-1.34,15.26-5.23,20.7-4.56,6.36-32.61,19.89-33.8,20.46a.51.51,0,0,1-.4,0,.48.48,0,0,1-.28-.28l-4.11-10.2a.5.5,0,0,1,.13-.56L78.37,216l-.59-40.69a.49.49,0,0,1,.15-.36.45.45,0,0,1,.37-.14l31.59,1.42a.48.48,0,0,1,.38.2c.93,1.25,22.64,30.67,22.64,39.59,0,8.73,1.43,32.41,1.45,32.65a.51.51,0,0,1-.47.53l-11.38.62Zm-20.63-48.44a.52.52,0,0,1,.35.14l14.91,15a.51.51,0,0,1,.14.26l5.65,32.05,10.43-.57c-.21-3.49-1.42-24.16-1.42-32.21,0-8.23-20.39-36.21-22.3-38.8l-30.82-1.39.59,40.39a.52.52,0,0,1-.17.38L59.52,233.63,63.29,243c3.8-1.85,28.85-14.2,32.94-19.91,4.4-6.13,5.11-21.14,5.12-21.29a.47.47,0,0,1,.32-.44A.52.52,0,0,1,101.85,201.33Z" fill="#231f20"/><path d="M76.23,179.31,77,159.24s-.34-24.76,8.75-29.18,27.3-2.52,30.83,2.49-4.84,46.76-4.84,46.76Z" fill="#cdcd32"/><path d="M114.48,111.34a8.38,8.38,0,0,0-2.53-5.58c-3.21-2.89-10.39-4-13.07.27a4,4,0,0,0-2.33,1,6.57,6.57,0,0,0-1.72,2.91c-1.48,4.24-.26,8.74,1.38,12.84a10.38,10.38,0,0,0,2.32,3.73c2.51,2.39,6,1.08,8.81-.12a12.65,12.65,0,0,0,4.9-3.48c1.56-1.91,2.35-5.48,2.37-7.91A30.88,30.88,0,0,0,114.48,111.34Z" fill="#fff"/><path d="M102,128.29a5.3,5.3,0,0,1-3.81-1.47,10.51,10.51,0,0,1-2.45-3.91c-1.48-3.72-3-8.59-1.38-13.19a7.11,7.11,0,0,1,1.86-3.11,4.41,4.41,0,0,1,2.37-1,6.66,6.66,0,0,1,4.78-2.78,11.74,11.74,0,0,1,8.91,2.61,8.74,8.74,0,0,1,2.7,5.89h0a32.56,32.56,0,0,1,.13,3.67c0,2.6-.88,6.26-2.48,8.23a12.94,12.94,0,0,1-5.1,3.62A14.69,14.69,0,0,1,102,128.29Zm2.74-24.6a8.29,8.29,0,0,0-1.23.08,5.72,5.72,0,0,0-4.21,2.53.5.5,0,0,1-.39.23,3.44,3.44,0,0,0-2,.83,6.27,6.27,0,0,0-1.58,2.69c-1.49,4.28,0,8.93,1.37,12.49a9.59,9.59,0,0,0,2.21,3.56c2.2,2.1,5.29,1,8.26-.22a12.06,12.06,0,0,0,4.72-3.33c1.43-1.77,2.23-5.24,2.25-7.61a30.25,30.25,0,0,0-.13-3.55h0a7.8,7.8,0,0,0-2.37-5.26A10.83,10.83,0,0,0,104.74,103.69Z" fill="#231f20"/><path d="M107.8,127.35l-.62,6.06s-1.42,3.23-5.17,1.62a6.34,6.34,0,0,1-3.8-5.44l1.19-10.86s3.16-1,3.39-7.48c0,0,3.76,0,9.69.28,0,0,.82,10-.17,12.94S107.8,127.35,107.8,127.35Z" fill="#fff"/><path d="M104,136a5.6,5.6,0,0,1-2.18-.49,6.79,6.79,0,0,1-4.1-5.89l1.19-10.92a.51.51,0,0,1,.34-.42s2.84-1.08,3.05-7a.5.5,0,0,1,.5-.48h0s3.84,0,9.71.28a.49.49,0,0,1,.48.45c0,.42.81,10.14-.2,13.15a5,5,0,0,1-4.52,3.2l-.58,5.63a.42.42,0,0,1,0,.16A4.19,4.19,0,0,1,104,136Zm-4.12-16.91L98.7,129.64a5.82,5.82,0,0,0,3.51,4.93c3,1.3,4.27-.87,4.49-1.29l.61-6a.51.51,0,0,1,.5-.45c.13,0,3.17,0,4-2.54s.33-10.35.19-12.3c-4.43-.19-7.6-.24-8.75-.26C103,117,100.71,118.62,99.87,119.07Zm7.31,14.34h0Z" fill="#231f20"/><path d="M101.72,118.93a2.58,2.58,0,0,0-.63-1.51,4.4,4.4,0,0,0-1.25-.92,1.8,1.8,0,0,0-.8-.29,1.7,1.7,0,0,0-.59.1,2.06,2.06,0,0,0-1.11.83,2.34,2.34,0,0,0-.24,1.11,4.73,4.73,0,0,0,.1,1.24A3.13,3.13,0,0,0,101,121.8" fill="#fff"/><path d="M100.25,122.4a3.62,3.62,0,0,1-1.89-.53,3.67,3.67,0,0,1-1.65-2.27,5.13,5.13,0,0,1-.11-1.37,2.79,2.79,0,0,1,.31-1.34,2.49,2.49,0,0,1,1.38-1,1.89,1.89,0,0,1,.78-.13,2.26,2.26,0,0,1,1,.35,4.86,4.86,0,0,1,1.39,1,3,3,0,0,1,.75,1.81.5.5,0,0,1-.46.53.52.52,0,0,1-.54-.46,2.11,2.11,0,0,0-.5-1.22,4.42,4.42,0,0,0-1.12-.82,1.45,1.45,0,0,0-.58-.22,1.17,1.17,0,0,0-.4.08,1.51,1.51,0,0,0-.84.6,1.94,1.94,0,0,0-.18.87,4.05,4.05,0,0,0,.08,1.11,2.72,2.72,0,0,0,1.2,1.65,2.67,2.67,0,0,0,2,.3.5.5,0,0,1,.25,1A3.8,3.8,0,0,1,100.25,122.4Z" fill="#231f20"/><path d="M107.51,130.26a6.65,6.65,0,0,1-3.32-2.12,3,3,0,0,1-.69-2.91,5.67,5.67,0,0,0,4.3,2.12Z" fill="#231f20"/><path d="M107.51,130.76h-.1a7.17,7.17,0,0,1-3.59-2.27,3.47,3.47,0,0,1-.79-3.43.47.47,0,0,1,.39-.31.48.48,0,0,1,.47.19,5.29,5.29,0,0,0,3.9,1.92.57.57,0,0,1,.38.16.52.52,0,0,1,.13.39l-.3,2.91a.49.49,0,0,1-.19.35A.57.57,0,0,1,107.51,130.76Zm-3.63-4.42a2.61,2.61,0,0,0,.68,1.47,6.66,6.66,0,0,0,2.51,1.78l.18-1.76A5.91,5.91,0,0,1,103.88,126.34Z" fill="#231f20"/><path d="M109.1,122.05a4,4,0,0,1-1.4-.3.5.5,0,0,1,.38-.93,2.37,2.37,0,0,0,1.31.19,10.74,10.74,0,0,0-1.15-3.25.5.5,0,0,1,.9-.44c1.82,3.7,1.17,4.24,1,4.42A1.5,1.5,0,0,1,109.1,122.05Z" fill="#231f20"/><path d="M107.59,124.08a3,3,0,0,1-1.75-.51,2.57,2.57,0,0,1-1-1.82.49.49,0,0,1,.43-.56.5.5,0,0,1,.56.42,1.57,1.57,0,0,0,.61,1.15,2.28,2.28,0,0,0,1.52.3.51.51,0,0,1,.58.4.5.5,0,0,1-.4.58A2.57,2.57,0,0,1,107.59,124.08Z" fill="#231f20"/><path d="M106.88,116.39a.5.5,0,0,1-.37-.17,1,1,0,0,0-.69-.37,1.73,1.73,0,0,0-1,.41.5.5,0,1,1-.67-.74,2.63,2.63,0,0,1,1.76-.67,2,2,0,0,1,1.39.71.51.51,0,0,1-.05.71A.5.5,0,0,1,106.88,116.39Z" fill="#231f20"/><path d="M109.89,117a.59.59,0,0,1-.22,0,.5.5,0,0,1-.23-.67,1.62,1.62,0,0,1,1.11-.87,1.86,1.86,0,0,1,1.6.75.5.5,0,0,1,0,.71.5.5,0,0,1-.7,0c-.29-.31-.54-.47-.72-.44s-.34.27-.36.32A.52.52,0,0,1,109.89,117Z" fill="#231f20"/><polygon points="103.75 135.74 100.41 137.39 102.36 140.05 96.57 164.77 102.06 171.02 106.88 162.54 104.1 140.08 106.31 137.68 103.75 135.74" fill="#fff"/><path d="M55.32,238.08l-6.72,4.56S60,262,63.17,257c.86-1.38-4.61-12.79-4.61-12.79Z" fill="#231f20"/><path d="M61.79,258.34h0c-4.39-.06-12.66-13.87-13.59-15.44a.5.5,0,0,1,.15-.67L55,237.67a.51.51,0,0,1,.4-.08.52.52,0,0,1,.32.26L59,244c1.68,3.52,5.49,11.82,4.58,13.28A2.06,2.06,0,0,1,61.79,258.34ZM49.27,242.79c2.64,4.4,9.36,14.51,12.5,14.55a1.17,1.17,0,0,0,1-.6c.36-.86-2.12-7.06-4.64-12.3l-3-5.63Z" fill="#231f20"/><path d="M124.15,254.1s-.21,7.47.47,7.59,21.89-2.74,20.28-4.36-11.74-3.92-11.74-3.92Z" fill="#231f20"/><path d="M124.54,262.19h0c-.41-.08-1.1-.2-.88-8.1a.5.5,0,0,1,.46-.48l9-.7h.15c1.05.24,10.32,2.38,12,4.05a.75.75,0,0,1,.14.89C144.27,260,125,262.19,124.54,262.19Zm.39-.85h0Zm-.29-6.77a38.6,38.6,0,0,0,.24,6.63c2.35-.06,17.52-2.43,19.48-3.68-1.5-1.11-7.4-2.73-11.23-3.61Z" fill="#231f20"/><path d="M112.35,176.91h-.07a.5.5,0,0,1-.44-.57c.78-6.1,4.58-29.54,4.62-29.77a.51.51,0,1,1,1,.16c0,.24-3.83,23.66-4.61,29.74A.51.51,0,0,1,112.35,176.91Z" fill="#231f20"/><circle cx="153.57" cy="139.76" r="29.48" fill="#231f20"/><path d="M153.55,169.75A30,30,0,1,1,183.5,138h0a30,30,0,0,1-28.18,31.68Q154.44,169.75,153.55,169.75Zm.06-59c-.57,0-1.15,0-1.73,0a29,29,0,1,0,30.62,27.24h0a29,29,0,0,0-28.89-27.29Z" fill="#231f20"/><circle cx="149.02" cy="140.03" r="29.48" fill="#cdcd32"/><path d="M149,170a29.95,29.95,0,1,1,1.79,0C150.17,170,149.57,170,149,170Zm.06-59c-.57,0-1.14,0-1.71,0a29,29,0,1,0,1.71,0Z" fill="#231f20"/><path d="M167.6,130.1a6.46,6.46,0,0,1-.65.88l-22.88,22.85a1.28,1.28,0,0,1-2.17,0q-6.45-6.65-12.87-13.29a1.25,1.25,0,0,1,.08-2.06l3.23-2.91a1.24,1.24,0,0,1,1.94,0q3.79,3.89,7.61,7.76c.79.8,1.38.81,2.17,0l17.79-17.7a1.27,1.27,0,0,1,2.12,0c1,1,2,2,3,3a7.73,7.73,0,0,1,.62.85Z" fill="#fff"/><path d="M120.55,156.71s6-.76,6.92-1.38,3.45-4.68,4.76-5,1.07,2.69,0,3.92S137.3,151,138.3,152a5,5,0,0,1,0,6.07c-1.69,2.07-11.83,6.08-17.13,6.34" fill="#fff"/><path d="M121.17,164.86a.49.49,0,0,1-.5-.47.5.5,0,0,1,.47-.53c5-.25,15.17-4.19,16.77-6.16a4.49,4.49,0,0,0,0-5.39c-.54-.23-3.3,1.36-4.21,1.89-1.4.8-1.69,1-2,.58s-.15-.53.13-.85a3.54,3.54,0,0,0,.64-3.05c0-.06-.06-.08-.15,0-.62.14-2,1.83-2.84,2.94a10.44,10.44,0,0,1-1.76,2c-1,.64-6.1,1.33-7.12,1.46a.5.5,0,0,1-.56-.43.49.49,0,0,1,.43-.56c2.44-.31,6.13-.93,6.7-1.3a13.4,13.4,0,0,0,1.53-1.77c1.42-1.8,2.5-3.09,3.39-3.3a1.09,1.09,0,0,1,1.24.52,3.86,3.86,0,0,1,0,2.9c2.52-1.45,4.51-2.48,5.32-1.67a5.51,5.51,0,0,1,0,6.73c-1.78,2.19-12,6.26-17.49,6.53Z" fill="#231f20"/><path d="M87.83,129.91s2.55,25.64,10,25.76c9.07.16,24.57-.18,24.57-.18l3,9.67s-24,5.76-34.1,1.39-10.83-21.66-10.83-21.66Z" fill="#cdcd32"/><path d="M105.18,156.47c-4.1,0-7.56-.14-8.53-.56-2.65-1.17-7.52-18-8.47-21.33a.51.51,0,0,1,.36-.63.5.5,0,0,1,.63.35c2.15,7.59,6.19,19.91,7.9,20.66s16.12.44,25.3,0a.5.5,0,0,1,.54.49.51.51,0,0,1-.49.54C120.93,156.07,112.14,156.47,105.18,156.47Z" fill="#231f20"/><path d="M102.06,168.51a32.94,32.94,0,0,1-11-1.48C81.55,163.42,80,149.94,80,149.36a.51.51,0,0,1,.45-.56.52.52,0,0,1,.57.45c0,.14,1.54,13.43,10.5,16.81,9.13,3.44,29.78-.55,30-.59a.52.52,0,0,1,.2,1A117.77,117.77,0,0,1,102.06,168.51Z" fill="#231f20"/></g></svg>