<svg xmlns="http://www.w3.org/2000/svg" viewBox="0 0 400 300"><g id="_211_creative_process_flatline" data-name="#211_creative_process_flatline"><path d="M358.11,148.06a48.11,48.11,0,0,0-.18-9.32,48.86,48.86,0,0,0-15.82-30.28c-9-7.91-15.33-5.51-26.39-7.48a22.63,22.63,0,0,0-13.21,1.66c.58-17.08-6.13-31-19.62-41.49C255.24,39.7,222.79,48.61,201.2,73c-9.92-18.05-25.09-31.29-47.12-27.53-18.94,3.23-34.76,19.91-37,39-8-3-17.27-1.6-25,2.15S77.82,96.2,71.7,102.24c-7.38,7.27-14.52,15.13-18.62,24.64-2.78,6.45-2.79,13.05-2.87,19.93,0,1.14,2.24,18.42,4.24,16.74C24.14,189,53.59,236,85.17,243c14,3.11,29.63-.27,40.27-9.92a122,122,0,0,0,42.81,18.19c21.15,4.51,43.83,6.24,64.68-.62,5.3-1.74,9.94-4.41,15-6.7,6.12-2.78,7.1-.34,13.47,1.71,10.7,3.44,22.55,2.33,33.16-.9,11.34-3.45,23.33-11.23,24.16-23.06,12.1.83,24.81-4.48,31.45-14.62s6-24.94-2.59-33.49c1.57,1.56,8.88-14.64,9.21-16.15A64.62,64.62,0,0,0,358.11,148.06Z" fill="#fff"/><path d="M202.33,255.68a164.8,164.8,0,0,1-34.19-4,123.39,123.39,0,0,1-42.66-18.05c-10.41,9.26-25.86,13-40.42,9.78-19-4.21-37.65-23.17-42.55-43.17C39,186,42.88,173,53.42,163.78c-2.15-2.43-3.72-16.38-3.71-17v-.48c.08-6.82.16-13.25,2.91-19.65C56.8,117,64.09,109,71.35,101.88,77.37,96,84,89.93,91.85,86.14c8.45-4.09,17.45-5,24.82-2.39,2.52-19,18.46-35.57,37.33-38.8,19.16-3.27,35.51,6.12,47.3,27.17C212.24,60,225.85,51.9,239.68,49.39,255,46.61,270,50.54,283.19,60.75c13.52,10.49,20.19,24.32,19.84,41.12a23.19,23.19,0,0,1,12.78-1.38,79.62,79.62,0,0,0,8.41,1c6.53.49,11.68.87,18.22,6.65a49.51,49.51,0,0,1,16,30.59,48.57,48.57,0,0,1,.18,9.42l-.5,0,.5,0a67.32,67.32,0,0,1-1.36,9.41c-.26,1.18-5.94,14.25-8.71,16.35,7.9,8.55,8.84,23,2,33.45-6.4,9.78-18.68,15.58-31.41,14.88-.8,7.86-7.61,17.88-24.48,23-8.49,2.58-21.19,4.84-33.45.9a41.81,41.81,0,0,1-4.24-1.65c-3.06-1.35-4.6-2-8.87-.08-1.57.71-3.13,1.48-4.63,2.22a81.75,81.75,0,0,1-10.39,4.5A97.82,97.82,0,0,1,202.33,255.68Zm-76.89-23.14a.6.6,0,0,1,.28.08,122.12,122.12,0,0,0,42.63,18.12c25.56,5.45,46.64,5.25,64.43-.6A80.09,80.09,0,0,0,243,245.69c1.51-.74,3.07-1.51,4.66-2.23,4.67-2.13,6.56-1.3,9.69.07a40,40,0,0,0,4.13,1.61c12,3.87,24.5,1.65,32.86-.9,16.74-5.09,23.28-15,23.82-22.61a.5.5,0,0,1,.53-.47c12.54.86,24.71-4.79,31-14.4,6.75-10.29,5.64-24.73-2.52-32.86h0a.5.5,0,0,1,0-.71.5.5,0,0,1,.64-.05c1.64-.54,8-13.82,8.43-15.84a63.93,63.93,0,0,0,1.34-9.27h0a46.62,46.62,0,0,0-.18-9.23,48.39,48.39,0,0,0-15.66-30c-6.28-5.55-11.28-5.93-17.62-6.4a80.67,80.67,0,0,1-8.52-1,22.12,22.12,0,0,0-12.91,1.63.5.5,0,0,1-.71-.48c.57-16.81-6-30.63-19.43-41.08-12.93-10-27.71-13.9-42.72-11.17C226.05,52.88,212.45,61,201.58,73.31a.55.55,0,0,1-.43.17.52.52,0,0,1-.39-.26c-14.64-26.62-33.42-29.53-46.59-27.28-18.66,3.18-34.39,19.76-36.59,38.56a.49.49,0,0,1-.67.4C109.69,82.18,100.72,83,92.29,87,84.59,90.77,78,96.72,72.05,102.6c-7.19,7.08-14.4,15-18.51,24.48-2.67,6.21-2.75,12.55-2.83,19.26v.48c0,1.78,2.08,15.38,3.45,16.32a.5.5,0,0,1,.67.08.51.51,0,0,1-.06.71h0C44,173,40,185.8,43.48,200c4.82,19.66,23.18,38.3,41.8,42.43,14.38,3.19,29.64-.57,39.82-9.8A.5.5,0,0,1,125.44,232.54Z" fill="#d1d3d4"/><path d="M153.92,197c-10.21,0-10.27-1.49-12.17-7-3.42-9.94-9.88-17.57-16.62-25.4-25-29-16.46-74.37,26.08-82,28.84-5.21,52.95,10.05,57.89,38.12,2.45,13.93-.65,27.15-8.45,38.86-5.31,8-9.69,16.07-11.22,25.66-1,6.18-.53,9.83-11.38,9.83-3.93,0-7.85.61-11.77.94C162.16,196.24,158.05,197,153.92,197Z" fill="#fff"/><path d="M153.92,197.45c-9.77,0-10.58-1.27-12.42-6.68l-.22-.67c-3.46-10.06-10.11-17.77-16.53-25.23-13.13-15.24-17.48-35.47-11.34-52.8,5.68-16,19.07-26.71,37.71-30.08,14.73-2.65,28.74,0,39.44,7.45,10.11,7,16.7,17.8,19,31.08a53.07,53.07,0,0,1-8.52,39.23c-4.61,6.91-9.53,15.33-11.15,25.46-.08.51-.15,1-.22,1.49-.77,5.27-1.27,8.76-11.65,8.76a75.86,75.86,0,0,0-8,.57c-1.25.13-2.49.26-3.74.37-1.4.12-2.79.27-4.19.43A71.76,71.76,0,0,1,153.92,197.45ZM162.15,82a60.57,60.57,0,0,0-10.85,1c-18.27,3.3-31.39,13.75-37,29.43-6,17-1.74,36.84,11.16,51.81,6.48,7.53,13.19,15.31,16.71,25.56l.23.67c1.65,4.85,2.05,6,11.47,6a72.85,72.85,0,0,0,8.1-.61c1.4-.16,2.81-.32,4.22-.44,1.24-.1,2.48-.23,3.72-.37a77.19,77.19,0,0,1,8.09-.57c9.51,0,9.89-2.64,10.66-7.91.07-.48.14-1,.23-1.5,1.64-10.31,6.63-18.86,11.3-25.86,7.95-11.93,10.76-24.88,8.37-38.5-2.29-13-8.73-23.53-18.62-30.43A48.25,48.25,0,0,0,162.15,82Z" fill="#231f20"/><rect x="145.8" y="195.93" width="42.13" height="11.97" rx="2.76" transform="translate(349.78 389.4) rotate(175.28)" fill="#fff"/><path d="M148.88,209.89a3.26,3.26,0,0,1-3.25-3l-.53-6.42a3.27,3.27,0,0,1,3-3.52l36.48-3a3.28,3.28,0,0,1,3.52,3l.53,6.42a3.27,3.27,0,0,1-3,3.52l-36.48,3h-.27Zm.23-.5h0Zm35.72-14.46h-.18l-36.48,3a2.26,2.26,0,0,0-2.07,2.44l.53,6.42a2.27,2.27,0,0,0,2.44,2.07l36.48-3a2.26,2.26,0,0,0,2.07-2.44l-.54-6.42A2.26,2.26,0,0,0,184.83,194.93Z" fill="#231f20"/><rect x="146.78" y="207.86" width="42.13" height="11.97" rx="2.76" transform="translate(352.73 413.13) rotate(175.28)" fill="#fff"/><path d="M149.87,221.82a3.26,3.26,0,0,1-3.25-3l-.53-6.43a3.26,3.26,0,0,1,3-3.51l36.48-3a3.27,3.27,0,0,1,3.52,3l.53,6.43a3.27,3.27,0,0,1-3,3.52l-36.48,3h-.27Zm.23-.51h0Zm35.72-14.45h-.19l-36.48,3a2.26,2.26,0,0,0-2.06,2.44l.53,6.43a2.26,2.26,0,0,0,2.44,2.06l36.48-3a2.25,2.25,0,0,0,2.06-2.44l-.53-6.43A2.27,2.27,0,0,0,185.82,206.86Z" fill="#231f20"/><path d="M152.06,221.15c.37,4.5,8,7.54,16.95,6.79s16-5,15.61-9.48Z" fill="#231f20"/><path d="M166.26,228.56c-8.1,0-14.34-3-14.7-7.37a.51.51,0,0,1,.46-.54L184.58,218a.51.51,0,0,1,.54.46c.4,4.84-6.66,9.25-16.07,10Q167.63,228.56,166.26,228.56Zm-13.63-7c.39,1.78,2.09,3.34,4.86,4.45a26,26,0,0,0,11.48,1.4c8.35-.69,14.95-4.42,15.16-8.45Z" fill="#231f20"/><path d="M155.82,190.92h0a.5.5,0,0,1-.47-.54,125.33,125.33,0,0,0-1.47-31.08,34.22,34.22,0,0,1-7.75-2.74,24.59,24.59,0,0,1-10.52-9.16c-2.59-4.38-3-9.65-1.16-13.75a4.52,4.52,0,0,1,3.23-2.84c3.09-.62,6.42,2.2,7.36,3.08,5.88,5.46,7.76,14.85,9.27,22.39l.19,1,.24,1.23a36.92,36.92,0,0,0,14.88,0,60.4,60.4,0,0,1,.8-7.44c1.37-8,3.45-13.95,6.2-17.62a9.78,9.78,0,0,1,14.27-.51,10.5,10.5,0,0,1,1.61,10,19.28,19.28,0,0,1-5.95,8.3,36.11,36.11,0,0,1-16,8.08c-.36,9.63,1.27,19.33,2.86,28.78l.2,1.18a.51.51,0,0,1-.41.58.5.5,0,0,1-.57-.41l-.2-1.18c-1.59-9.42-3.21-19.1-2.89-28.73a37.81,37.81,0,0,1-14.65.05,126.28,126.28,0,0,1,1.42,30.93A.51.51,0,0,1,155.82,190.92Zm-17.28-59.2a4.05,4.05,0,0,0-.7.07,3.58,3.58,0,0,0-2.51,2.27,14.17,14.17,0,0,0,1.11,12.83,23.73,23.73,0,0,0,10.11,8.78,34,34,0,0,0,7.1,2.56c-.05-.26-.11-.53-.16-.79l-.19-1c-1.49-7.4-3.33-16.6-9-21.85C142.76,133.16,140.5,131.72,138.54,131.72ZM184,131h-.37a8.12,8.12,0,0,0-6.24,2.95c-2.65,3.55-4.67,9.33-6,17.19a62.43,62.43,0,0,0-.77,7.06,35.26,35.26,0,0,0,15.26-7.79,18.38,18.38,0,0,0,5.66-7.87,9.52,9.52,0,0,0-1.41-9A8.08,8.08,0,0,0,184,131Z" fill="#d1d3d4"/><path d="M197.66,193.26c.41-1.59.8-3.17,1.22-4.75.22-.82.48-1.63.74-2.44a2.26,2.26,0,0,1,2.33-1.69c1.26,0,2.51.2,3.77.3a10.67,10.67,0,0,0,2,.1,2.19,2.19,0,0,0,1.35-.55c1.32-1.48,2.58-3,3.82-4.56a2.13,2.13,0,0,0,.26-2c-.43-1.49-.92-3-1.35-4.44a6.38,6.38,0,0,1-.3-1.77,1.68,1.68,0,0,1,.49-1.19,27.55,27.55,0,0,1,7.19-4,1.86,1.86,0,0,1,2.19.6c1.06,1.23,2.16,2.43,3.18,3.69a3,3,0,0,0,3.06,1.25c1.63-.25,3.29-.41,4.93-.62a1.88,1.88,0,0,0,1.43-1c.52-.92,1-1.86,1.51-2.78s.86-1.59,1.33-2.37a1.9,1.9,0,0,1,2.22-1c2.35.61,4.7,1.24,7,1.93a2,2,0,0,1,1.41,2.11c0,1.28-.21,2.55-.31,3.83-.05.6-.09,1.2-.09,1.81a2.47,2.47,0,0,0,.93,2c1.3,1,2.61,2.07,3.86,3.16a2.69,2.69,0,0,0,2.74.54c1.61-.48,3.2-1,4.81-1.49a2.19,2.19,0,0,1,2.84,1.08c1.09,1.88,2.14,3.77,3.16,5.69a2.33,2.33,0,0,1-.58,3.33c-.79.73-1.65,1.38-2.46,2.09-.58.5-1.15,1-1.69,1.58a2.13,2.13,0,0,0-.63,1.76c.18,1.7.34,3.41.56,5.12a2.66,2.66,0,0,0,1.55,2.16c1,.49,2,.95,2.94,1.45a17.17,17.17,0,0,1,1.78,1,2,2,0,0,1,1,2.4Q267,208.8,266,212a4.8,4.8,0,0,1-.43.92,1.82,1.82,0,0,1-1.85,1.05l-4.51-.38c-.11,0-.23,0-.34,0a3.2,3.2,0,0,0-3.3,1.46c-.76,1.06-1.64,2-2.47,3a3.23,3.23,0,0,0-.57,3.29c.48,1.41.95,2.82,1.36,4.25s.19,2.2-1.16,3c-1.94,1.13-3.91,2.2-5.9,3.24a2,2,0,0,1-2.76-.49c-.88-.94-1.69-1.94-2.51-2.92-1.77-2.12-2.19-2.28-4.93-1.93l-3.2.44a3,3,0,0,0-2.4,1.67c-.57,1.13-1.1,2.28-1.7,3.39a10.64,10.64,0,0,1-1.11,1.63,1.51,1.51,0,0,1-1.67.57c-2.22-.63-4.45-1.26-6.68-1.91a3.76,3.76,0,0,1-.86-.41A1.81,1.81,0,0,1,218,230c.12-1.49.25-3,.37-4.45,0-.46,0-.91,0-1.36a2.36,2.36,0,0,0-.9-1.93c-1.26-1-2.51-2-3.77-3a2.58,2.58,0,0,0-2.6-.42c-1.41.47-2.84.9-4.26,1.35l-.16.05c-1.87.49-2.5.3-3.46-1.38-1.06-1.86-2.05-3.77-3-5.69a2,2,0,0,1,.57-2.77c1.08-1,2.19-1.92,3.35-2.8a3.49,3.49,0,0,0,1.46-3.55c-.23-1.53-.39-3.07-.59-4.6a1.93,1.93,0,0,0-1-1.54c-1.35-.72-2.71-1.42-4-2.15a4.26,4.26,0,0,1-2.19-2ZM247.37,198a14.66,14.66,0,0,0-15.9-13.48,14.89,14.89,0,0,0-13.24,15.81,14.68,14.68,0,0,0,15.66,13.41C243.29,213,248.29,204.4,247.37,198Z" fill="#cdcd32"/><path d="M210.82,81.75c.24-1,.48-1.9.73-2.85.13-.49.29-1,.45-1.46a1.36,1.36,0,0,1,1.39-1c.76,0,1.51.12,2.27.18a6.28,6.28,0,0,0,1.22.06,1.29,1.29,0,0,0,.81-.33c.8-.89,1.55-1.81,2.29-2.74a1.28,1.28,0,0,0,.17-1.2c-.27-.9-.56-1.78-.82-2.67a3.93,3.93,0,0,1-.18-1.07,1,1,0,0,1,.3-.71,16.46,16.46,0,0,1,4.32-2.4,1.11,1.11,0,0,1,1.31.36c.64.74,1.3,1.46,1.91,2.22a1.84,1.84,0,0,0,1.84.75c1-.15,2-.25,3-.38a1.11,1.11,0,0,0,.85-.61c.31-.55.6-1.11.91-1.67s.52-1,.8-1.42a1.13,1.13,0,0,1,1.33-.58c1.42.36,2.83.74,4.23,1.15a1.21,1.21,0,0,1,.84,1.27c0,.77-.12,1.53-.18,2.3,0,.36-.06.73-.06,1.09a1.48,1.48,0,0,0,.56,1.22c.78.63,1.57,1.24,2.32,1.9a1.64,1.64,0,0,0,1.65.33c1-.3,1.92-.61,2.88-.9a1.31,1.31,0,0,1,1.71.65c.66,1.13,1.29,2.27,1.9,3.41a1.41,1.41,0,0,1-.35,2c-.47.44-1,.83-1.47,1.25s-.7.62-1,1a1.27,1.27,0,0,0-.38,1.06c.11,1,.2,2,.33,3.08a1.65,1.65,0,0,0,.94,1.3l1.77.86c.36.19.72.38,1.06.6a1.22,1.22,0,0,1,.58,1.44c-.36,1.28-.72,2.55-1.1,3.82a2.5,2.5,0,0,1-.26.55,1.11,1.11,0,0,1-1.11.64L247.82,94h-.2a1.91,1.91,0,0,0-2,.88c-.45.63-1,1.21-1.48,1.82a2,2,0,0,0-.34,2c.29.84.57,1.69.82,2.55a1.29,1.29,0,0,1-.71,1.8c-1.16.68-2.34,1.32-3.54,2a1.23,1.23,0,0,1-1.66-.3c-.52-.57-1-1.16-1.51-1.75-1.06-1.28-1.31-1.38-3-1.16l-1.92.26a1.78,1.78,0,0,0-1.44,1c-.34.67-.66,1.36-1,2a6.06,6.06,0,0,1-.67,1,.92.92,0,0,1-1,.35l-4-1.15a2.76,2.76,0,0,1-.52-.25,1.1,1.1,0,0,1-.64-1.11c.07-.89.15-1.78.22-2.67,0-.27,0-.55,0-.82a1.43,1.43,0,0,0-.54-1.16l-2.27-1.79a1.55,1.55,0,0,0-1.56-.26c-.85.28-1.71.54-2.56.81l-.1,0c-1.12.3-1.5.18-2.08-.82s-1.23-2.27-1.81-3.42a1.18,1.18,0,0,1,.34-1.67c.65-.58,1.32-1.15,2-1.68a2.11,2.11,0,0,0,.88-2.13c-.14-.92-.23-1.85-.35-2.77a1.18,1.18,0,0,0-.62-.93c-.81-.43-1.63-.85-2.44-1.29a2.54,2.54,0,0,1-1.31-1.17Zm29.87,2.83a8.81,8.81,0,0,0-9.55-8.09,9,9,0,0,0-8,9.5,8.82,8.82,0,0,0,9.41,8.06A8.72,8.72,0,0,0,240.69,84.58Z" fill="#cdcd32"/><polygon points="103.96 205.27 104.24 187.07 121.91 191.4 124.03 202.91 126.4 215.77 115.08 210.47 103.96 205.27" fill="#fff"/><path d="M126.4,216.27a.54.54,0,0,1-.21-.05l-22.44-10.5a.52.52,0,0,1-.29-.46l.28-18.2a.55.55,0,0,1,.2-.39.52.52,0,0,1,.42-.09L122,190.92a.49.49,0,0,1,.37.39l4.49,24.37a.49.49,0,0,1-.18.49A.57.57,0,0,1,126.4,216.27ZM104.46,205l21.28,10-4.26-23.1-16.75-4.11Z" fill="#231f20"/><rect x="84.02" y="128.35" width="7.56" height="74.86" transform="translate(258.62 243.34) rotate(142.33)" fill="#fff"/><path d="M107.69,198.22h-.07a.45.45,0,0,1-.33-.19L61.54,138.77a.5.5,0,0,1-.1-.37.53.53,0,0,1,.19-.33l6-4.62a.48.48,0,0,1,.69.09l45.75,59.25a.5.5,0,0,1-.08.7l-6,4.62A.48.48,0,0,1,107.69,198.22ZM62.63,138.55,107.78,197l5.19-4L67.83,134.54Z" fill="#231f20"/><polygon points="67.92 133.84 76.16 132.15 121.91 191.4 113.67 193.1 67.92 133.84" fill="#231f20"/><path d="M113.67,193.6a.51.51,0,0,1-.4-.2L67.52,134.15a.51.51,0,0,1,.3-.8l8.24-1.69a.5.5,0,0,1,.5.18l45.75,59.26a.5.5,0,0,1-.3.79l-8.24,1.7ZM68.81,134.17l45.07,58.38,7.15-1.48L76,132.7Z" fill="#231f20"/><polygon points="58.21 146.01 61.94 138.47 107.69 197.72 103.96 205.26 58.21 146.01" fill="#231f20"/><path d="M104,205.77a.54.54,0,0,1-.4-.2L57.81,146.32a.53.53,0,0,1-.05-.53l3.73-7.55a.47.47,0,0,1,.4-.27.49.49,0,0,1,.44.19l45.75,59.25a.49.49,0,0,1,0,.53l-3.72,7.55a.5.5,0,0,1-.4.27ZM58.8,146l45.07,58.38,3.23-6.55L62,139.4Z" fill="#231f20"/><polygon points="115.08 210.47 115.78 207.03 121.2 202.85 124.03 202.91 126.4 215.77 115.08 210.47" fill="#cdcd32"/><path d="M126.4,216.27a.54.54,0,0,1-.21-.05l-11.33-5.3a.5.5,0,0,1-.27-.55l.71-3.44a.47.47,0,0,1,.18-.29l5.41-4.18a.62.62,0,0,1,.32-.11l2.84.07a.48.48,0,0,1,.47.4l2.37,12.86a.49.49,0,0,1-.18.49A.57.57,0,0,1,126.4,216.27Zm-10.76-6.08,10.1,4.72-2.12-11.51-2.26-.05-5.13,4Z" fill="#231f20"/><path d="M84.64,67.52C68.61,70.91,57.58,82.89,60,94.28c1.4,6.61,7,11.57,14.66,13.9,2.54,4.34,7.68,9.52,18.06,13.35a29,29,0,0,1-6.7-11.9,41.24,41.24,0,0,0,7.36-.88c16-3.39,27.06-15.37,24.65-26.76S100.66,64.13,84.64,67.52Z" fill="#fff"/><path d="M92.71,122a.47.47,0,0,1-.17,0c-8.7-3.21-14.82-7.71-18.22-13.4-8-2.51-13.44-7.68-14.82-14.22C57,82.74,68.27,70.47,84.53,67h0c16.27-3.44,31.51,3.22,34,14.86s-8.77,23.9-25,27.35a41.75,41.75,0,0,1-6.81.87,28.87,28.87,0,0,0,6.4,11.06.5.5,0,0,1-.35.86Zm-8-54C69,71.34,58.13,83.07,60.48,94.17c1.31,6.22,6.53,11.15,14.32,13.53a.58.58,0,0,1,.29.22c3,5.14,8.34,9.31,15.89,12.4a29.48,29.48,0,0,1-5.45-10.56.5.5,0,0,1,.47-.63,41,41,0,0,0,7.26-.87c15.73-3.33,26.62-15.07,24.27-26.17S100.47,64.68,84.74,68Z" fill="#231f20"/><polygon points="312.97 197.56 237.38 172.14 269.75 75.9 330.06 96.19 340.09 116.92 312.97 197.56" fill="#231f20"/><path d="M313,198.06l-.16,0-75.59-25.43a.49.49,0,0,1-.31-.63l32.36-96.24a.51.51,0,0,1,.64-.31l60.31,20.28a.5.5,0,0,1,.29.26l10,20.73a.5.5,0,0,1,0,.38l-27.13,80.64a.48.48,0,0,1-.25.29A.54.54,0,0,1,313,198.06Zm-75-26.23,74.65,25.1,26.89-80L329.7,96.59l-59.64-20Z" fill="#231f20"/><polygon points="305.36 202.53 229.77 177.11 262.14 80.87 322.45 101.15 332.48 121.89 305.36 202.53" fill="#fff"/><path d="M305.36,203a.45.45,0,0,1-.16,0l-75.59-25.42a.5.5,0,0,1-.31-.63l32.36-96.24a.53.53,0,0,1,.26-.29.44.44,0,0,1,.37,0l60.32,20.28a.49.49,0,0,1,.29.26l10,20.73a.48.48,0,0,1,0,.37l-27.12,80.65a.46.46,0,0,1-.25.28A.43.43,0,0,1,305.36,203Zm-75-26.24,74.65,25.11,26.89-80-9.85-20.36L262.45,81.5Z" fill="#231f20"/><polygon points="322.45 101.15 316.71 116.58 332.48 121.89 322.45 101.15" fill="#fff"/><path d="M332.48,122.38a.44.44,0,0,1-.16,0l-15.77-5.31a.48.48,0,0,1-.29-.25.53.53,0,0,1,0-.39L322,101a.51.51,0,0,1,.45-.33.51.51,0,0,1,.47.29l10,20.73a.49.49,0,0,1-.08.55A.51.51,0,0,1,332.48,122.38Zm-15.13-6.11L331.52,121l-9-18.62Z" fill="#231f20"/><path d="M319.1,129.27a.44.44,0,0,1-.16,0L264.5,110.94a.5.5,0,0,1-.31-.63.49.49,0,0,1,.63-.32l54.44,18.31a.5.5,0,0,1-.16,1Z" fill="#d1d3d4"/><path d="M315.66,139.5a.44.44,0,0,1-.16,0l-54.44-18.31a.51.51,0,0,1-.32-.63.5.5,0,0,1,.64-.32l54.44,18.31a.5.5,0,0,1-.16,1Z" fill="#d1d3d4"/><path d="M312.22,149.73a.44.44,0,0,1-.16,0L257.62,131.4a.5.5,0,1,1,.32-1l54.44,18.31a.5.5,0,0,1-.16,1Z" fill="#d1d3d4"/><path d="M308.78,160a.44.44,0,0,1-.16,0l-54.44-18.31a.51.51,0,0,1-.32-.63.5.5,0,0,1,.64-.32L308.94,159a.5.5,0,0,1-.16,1Z" fill="#d1d3d4"/><path d="M305.34,170.19a.44.44,0,0,1-.16,0l-54.44-18.31a.5.5,0,1,1,.32-1l54.44,18.31a.5.5,0,0,1-.16,1Z" fill="#d1d3d4"/><path d="M285.89,175a.41.41,0,0,1-.16,0L247.3,162.09a.5.5,0,1,1,.32-1l38.43,12.92a.51.51,0,0,1,.31.64A.49.49,0,0,1,285.89,175Z" fill="#d1d3d4"/><path d="M224.6,131.42a2.5,2.5,0,1,1,2.5-2.49A2.5,2.5,0,0,1,224.6,131.42Zm0-4a1.5,1.5,0,1,0,1.5,1.5A1.5,1.5,0,0,0,224.6,127.43Z" fill="#d1d3d4"/><path d="M83,211.35a2.5,2.5,0,1,1,2.49-2.5A2.5,2.5,0,0,1,83,211.35Zm0-4a1.5,1.5,0,1,0,1.49,1.5A1.5,1.5,0,0,0,83,207.35Z" fill="#d1d3d4"/><path d="M99.51,132.65a.5.5,0,0,1-.5-.5v-5.22a.5.5,0,0,1,.5-.5.5.5,0,0,1,.5.5v5.22A.51.51,0,0,1,99.51,132.65Z" fill="#d1d3d4"/><path d="M102.12,130H96.9a.5.5,0,0,1-.5-.5.5.5,0,0,1,.5-.5h5.22a.5.5,0,0,1,.5.5A.51.51,0,0,1,102.12,130Z" fill="#d1d3d4"/><path d="M280.73,229a.5.5,0,0,1-.5-.5v-5.22a.5.5,0,0,1,.5-.5.5.5,0,0,1,.5.5v5.22A.51.51,0,0,1,280.73,229Z" fill="#d1d3d4"/><path d="M283.34,226.37h-5.22a.5.5,0,0,1-.5-.5.5.5,0,0,1,.5-.5h5.22a.5.5,0,0,1,.5.5A.51.51,0,0,1,283.34,226.37Z" fill="#d1d3d4"/><path d="M184.63,72.33a.5.5,0,0,1-.5-.5V66.62a.5.5,0,0,1,1,0v5.21A.5.5,0,0,1,184.63,72.33Z" fill="#d1d3d4"/><path d="M187.24,69.73H182a.51.51,0,0,1-.5-.5.5.5,0,0,1,.5-.5h5.22a.5.5,0,0,1,.5.5A.5.5,0,0,1,187.24,69.73Z" fill="#d1d3d4"/><path d="M78.65,96.08A4.73,4.73,0,0,1,78,96a6.17,6.17,0,0,1-4.52-3.18,5.09,5.09,0,0,1-3.44,2,.5.5,0,1,1-.12-1A4.23,4.23,0,0,0,73,91.82a6.11,6.11,0,0,1,.23-5.15.49.49,0,0,1,.43-.26.52.52,0,0,1,.44.24,5.35,5.35,0,0,1,.06,5.14l0,.09.09.2a4.92,4.92,0,0,0,8.47,1,6.07,6.07,0,0,0,1.09-1.81A3.1,3.1,0,0,1,84,87.9a.53.53,0,0,1,.5-.17.52.52,0,0,1,.37.36,5.68,5.68,0,0,1-.07,3.11,2.33,2.33,0,0,0,2,1.2A2.63,2.63,0,0,0,89,91a3.42,3.42,0,0,0,.46-1.45,4.87,4.87,0,0,1-.32-1.63.5.5,0,0,1,.38-.49.5.5,0,0,1,.57.26,3.69,3.69,0,0,1,.37,1.68,4.45,4.45,0,0,0,1.09,1.52,4,4,0,0,0,6-.37,4.94,4.94,0,0,0,.63-1,6.6,6.6,0,0,1-.67-.92,2.14,2.14,0,0,1,.23-2.4,1,1,0,0,1,1.25-.1,1.53,1.53,0,0,1,.58,1.15,4.92,4.92,0,0,1-.22,2,2.64,2.64,0,0,0,3,.46c2.48-1.08,4.37-4.91,3.67-7.45a.5.5,0,0,1,.35-.62.5.5,0,0,1,.61.35c.84,3-1.3,7.37-4.24,8.64a3.6,3.6,0,0,1-3.79-.43,6.07,6.07,0,0,1-.63.9,5,5,0,0,1-7.44.47,5.07,5.07,0,0,1-.69-.78,4.85,4.85,0,0,1-.31.65,3.64,3.64,0,0,1-2.9,1.9,3.2,3.2,0,0,1-2.53-1.12,7.47,7.47,0,0,1-1,1.49A6.39,6.39,0,0,1,78.65,96.08Zm-5-7.83a5.2,5.2,0,0,0,0,2.12A4.36,4.36,0,0,0,73.66,88.25ZM98.4,87a.59.59,0,0,0-.15.32,1.17,1.17,0,0,0,.08.82,2.9,2.9,0,0,0,.19.29,3.72,3.72,0,0,0,0-1c0-.32-.11-.41-.14-.43Z" fill="#d1d3d4"/><circle cx="214.64" cy="155.22" r="2.2" fill="#d1d3d4"/><circle cx="118.35" cy="168.08" r="2.2" fill="#d1d3d4"/></g></svg>