<svg id="_210_creative_process_flatline" data-name="#210_creative_process_flatline" xmlns="http://www.w3.org/2000/svg" viewBox="0 0 400 300"><path d="M61.35,133.39c1-3.89,2-7.8,3-11.69.53-2,1.16-4,1.82-6a5.59,5.59,0,0,1,5.72-4.17c3.1.09,6.19.51,9.29.75a27.92,27.92,0,0,0,5,.25,5.42,5.42,0,0,0,3.33-1.37c3.25-3.63,6.34-7.4,9.39-11.21A5.26,5.26,0,0,0,99.55,95c-1.08-3.65-2.27-7.26-3.33-10.92a15.23,15.23,0,0,1-.75-4.36,4.14,4.14,0,0,1,1.22-2.93A67.61,67.61,0,0,1,114.37,67a4.58,4.58,0,0,1,5.4,1.47c2.6,3,5.31,6,7.82,9.08a7.46,7.46,0,0,0,7.52,3.07c4-.62,8.11-1,12.16-1.53a4.63,4.63,0,0,0,3.5-2.5c1.28-2.26,2.47-4.57,3.72-6.85,1.07-2,2.12-3.92,3.28-5.83a4.68,4.68,0,0,1,5.45-2.38c5.79,1.5,11.57,3,17.3,4.74A4.94,4.94,0,0,1,184,71.45c-.06,3.14-.52,6.28-.77,9.43-.12,1.48-.22,3-.22,4.45a6.08,6.08,0,0,0,2.29,5c3.18,2.56,6.41,5.08,9.5,7.76a6.66,6.66,0,0,0,6.74,1.35c3.95-1.2,7.88-2.49,11.83-3.68,3.12-.94,5.37-.14,7,2.67q4,6.91,7.78,14c1.82,3.42,1.44,5.52-1.44,8.19-1.93,1.8-4,3.4-6,5.14q-2.16,1.88-4.17,3.9A5.18,5.18,0,0,0,215,134c.43,4.21.83,8.42,1.36,12.61a6.64,6.64,0,0,0,3.82,5.33c2.41,1.19,4.85,2.33,7.25,3.55a45.54,45.54,0,0,1,4.36,2.46,5,5,0,0,1,2.35,5.88q-2.18,7.84-4.47,15.65a10.82,10.82,0,0,1-1.08,2.25,4.5,4.5,0,0,1-4.55,2.6c-3.7-.31-7.39-.64-11.09-1-.28,0-.56,0-.83-.06-3.48-.52-6.08.73-8.14,3.6-1.87,2.6-4,5-6.06,7.47a7.9,7.9,0,0,0-1.4,8.09c1.17,3.47,2.33,7,3.34,10.48,1.07,3.72.46,5.42-2.87,7.36-4.77,2.77-9.62,5.41-14.5,8-2.67,1.39-4.74,1-6.81-1.22s-4.15-4.76-6.18-7.18c-4.36-5.2-5.38-5.62-12.12-4.74-2.63.35-5.25.73-7.87,1.08a7.3,7.3,0,0,0-5.92,4.11c-1.39,2.78-2.71,5.6-4.18,8.34a26.06,26.06,0,0,1-2.74,4,3.73,3.73,0,0,1-4.1,1.41c-5.48-1.56-11-3.1-16.44-4.69a11.24,11.24,0,0,1-2.13-1,4.49,4.49,0,0,1-2.62-4.53c.29-3.66.62-7.31.9-11,.08-1.11.09-2.23.06-3.34a5.77,5.77,0,0,0-2.21-4.74c-3.12-2.42-6.2-4.9-9.28-7.36a6.34,6.34,0,0,0-6.41-1c-3.48,1.15-7,2.21-10.48,3.31l-.4.14c-4.59,1.22-6.15.73-8.51-3.39-2.62-4.59-5-9.29-7.42-14-1.45-2.89-1.07-4.63,1.39-6.82,2.67-2.38,5.4-4.7,8.24-6.87a8.59,8.59,0,0,0,3.6-8.75c-.56-3.76-1-7.55-1.46-11.33a4.77,4.77,0,0,0-2.53-3.79c-3.32-1.77-6.66-3.49-10-5.28-2.17-1.17-4.36-2.34-5.4-4.8ZM183.69,145c-1.58-20.08-18.88-34.68-39.13-33.17-16.63,1.24-34.32,17.31-32.6,38.9a36.14,36.14,0,0,0,38.55,33C173.65,182,186,160.81,183.69,145Z" fill="#fff"/><path d="M133.63,234.73a4.54,4.54,0,0,1-1.24-.18l-4.55-1.29c-4-1.13-7.93-2.25-11.9-3.41A9.4,9.4,0,0,1,114,229l-.3-.16a5,5,0,0,1-2.88-5c.13-1.63.27-3.26.41-4.89.17-2,.34-4.05.49-6.08a28.56,28.56,0,0,0,.06-3.29,5.22,5.22,0,0,0-2-4.36c-2.77-2.16-5.56-4.38-8.26-6.54l-1-.82a5.89,5.89,0,0,0-5.94-1c-2.43.8-4.91,1.58-7.32,2.32l-3.17,1-.14.05-.28.09c-4.88,1.3-6.66.58-9.07-3.63-2.89-5.05-5.49-10.15-7.44-14-1.53-3.06-1.12-5.07,1.51-7.42,3.1-2.77,5.73-5,8.26-6.9a8.09,8.09,0,0,0,3.42-8.27c-.35-2.36-.65-4.75-.93-7.07-.17-1.43-.35-2.85-.53-4.27a4.3,4.3,0,0,0-2.27-3.42l-4.12-2.17c-2-1-3.91-2.06-5.85-3.11-2.25-1.22-4.52-2.45-5.62-5a.83.83,0,0,1,0-.15l-.11-1.4a.44.44,0,0,1,0-.16l.87-3.43c.69-2.76,1.39-5.52,2.12-8.27.56-2.09,1.21-4.12,1.83-6A6,6,0,0,1,71.9,111c2.06.06,4.14.27,6.15.47l3.17.29,1.23.11a18.91,18.91,0,0,0,3.67.14,5.08,5.08,0,0,0,3-1.21C92.6,107,95.81,103,98.5,99.65a4.71,4.71,0,0,0,.57-4.49c-.48-1.62-1-3.23-1.48-4.85-.62-2-1.26-4-1.84-6.07A15.61,15.61,0,0,1,95,79.73a4.65,4.65,0,0,1,1.42-3.32,67.2,67.2,0,0,1,17.82-9.89,5.1,5.1,0,0,1,5.94,1.61c.92,1.07,1.85,2.13,2.78,3.19,1.68,1.91,3.42,3.89,5,5.9a6.94,6.94,0,0,0,7.06,2.9c2.61-.4,5.28-.71,7.86-1l4.3-.52a4.11,4.11,0,0,0,3.13-2.25c.76-1.33,1.48-2.68,2.2-4,.5-.94,1-1.88,1.52-2.82l.53-1c.88-1.61,1.79-3.28,2.76-4.87a5.16,5.16,0,0,1,6-2.61c7,1.8,12.3,3.26,17.31,4.74,2.44.72,3.87,2.85,3.82,5.68,0,2.1-.25,4.22-.46,6.28-.11,1.06-.22,2.12-.31,3.18-.11,1.4-.21,2.91-.21,4.41A5.52,5.52,0,0,0,185.6,90l2.23,1.79c2.42,1.93,4.91,3.92,7.28,6A6.13,6.13,0,0,0,201.39,99c1.93-.58,3.84-1.19,5.76-1.79s4-1.28,6.06-1.89c3.38-1,5.86-.07,7.58,2.9,2.67,4.6,5.29,9.31,7.79,14,1.91,3.59,1.49,6-1.54,8.8-1.15,1.06-2.37,2.07-3.56,3.05-.84.69-1.68,1.38-2.5,2.1-1.49,1.3-2.88,2.6-4.14,3.87a4.71,4.71,0,0,0-1.4,3.92l.26,2.56c.34,3.3.68,6.7,1.1,10a6.12,6.12,0,0,0,3.55,4.94c1,.51,2,1,3.05,1.49,1.41.68,2.81,1.36,4.2,2.07a42.07,42.07,0,0,1,4.41,2.48,5.46,5.46,0,0,1,2.56,6.44c-1.37,4.92-2.83,10-4.47,15.64a10.75,10.75,0,0,1-1,2.17l-.11.2a5,5,0,0,1-5,2.85l-7.87-.68-3.51-.3a5.67,5.67,0,0,1-.58-.05c-3.22-.48-5.65.6-7.66,3.4-1.32,1.83-2.8,3.59-4.23,5.28-.62.74-1.24,1.47-1.84,2.21a7.42,7.42,0,0,0-1.32,7.62c1.13,3.33,2.31,6.9,3.35,10.5,1.14,4,.39,5.9-3.1,7.93-4.36,2.54-9.11,5.15-14.52,8-2.87,1.5-5.15,1.09-7.4-1.32-1.78-1.9-3.47-3.93-5.1-5.89l-1.1-1.31c-4.26-5.08-5.13-5.42-11.68-4.56l-4.42.6-3.44.47a6.77,6.77,0,0,0-5.54,3.84c-.47.93-.92,1.87-1.38,2.8-.9,1.83-1.83,3.73-2.81,5.56A26.42,26.42,0,0,1,137,233,4.31,4.31,0,0,1,133.63,234.73Zm-36.8-39.28a6.71,6.71,0,0,1,4.28,1.58l1,.82c2.69,2.16,5.47,4.38,8.24,6.54a6.23,6.23,0,0,1,2.41,5.12,32.8,32.8,0,0,1-.07,3.39c-.15,2-.32,4-.49,6.08-.14,1.63-.27,3.26-.4,4.88a4,4,0,0,0,2.36,4.06l.3.17a9.3,9.3,0,0,0,1.73.81c4,1.15,7.93,2.27,11.9,3.4l4.54,1.29a3.21,3.21,0,0,0,3.57-1.25,24.39,24.39,0,0,0,2.69-3.93c1-1.81,1.9-3.7,2.79-5.52.46-.94.92-1.87,1.39-2.8a7.78,7.78,0,0,1,6.29-4.38l3.44-.48,4.43-.6c6.91-.9,8.08-.45,12.57,4.91l1.1,1.31c1.63,2,3.31,4,5.07,5.85,1.91,2.06,3.77,2.39,6.21,1.12,5.39-2.83,10.13-5.43,14.48-8,3.09-1.8,3.66-3.26,2.64-6.79s-2.21-7.15-3.34-10.46a8.48,8.48,0,0,1,1.5-8.57l1.85-2.22c1.42-1.68,2.89-3.42,4.18-5.22,2.22-3.09,5-4.34,8.62-3.8l.48,0,.32,0,3.23.28c2.62.23,5.24.46,7.87.67a4,4,0,0,0,4.07-2.34l.11-.19a9.65,9.65,0,0,0,.92-2c1.64-5.6,3.1-10.72,4.47-15.64a4.5,4.5,0,0,0-2.14-5.34,47.66,47.66,0,0,0-4.32-2.43c-1.38-.7-2.78-1.38-4.18-2-1-.5-2.05-1-3.06-1.5a7.11,7.11,0,0,1-4.09-5.71c-.43-3.35-.77-6.76-1.11-10.06l-.26-2.55a5.73,5.73,0,0,1,1.69-4.73c1.27-1.28,2.68-2.6,4.19-3.92.82-.72,1.67-1.42,2.52-2.12,1.17-1,2.39-2,3.52-3,2.72-2.54,3-4.38,1.33-7.6-2.5-4.68-5.11-9.38-7.77-14-1.5-2.58-3.48-3.33-6.43-2.45-2,.61-4,1.25-6.05,1.88s-3.84,1.22-5.77,1.8a7.11,7.11,0,0,1-7.22-1.45c-2.36-2-4.84-4-7.25-6L185,90.73a6.62,6.62,0,0,1-2.47-5.4c0-1.54.11-3.07.22-4.49.09-1.07.2-2.14.31-3.2.21-2,.42-4.14.46-6.2,0-2.39-1.09-4.11-3.11-4.7-5-1.48-10.33-2.94-17.28-4.73a4.2,4.2,0,0,0-4.91,2.15c-1,1.58-1.86,3.23-2.73,4.83l-.54,1c-.51.93-1,1.87-1.51,2.81-.73,1.35-1.45,2.71-2.21,4a5.14,5.14,0,0,1-3.87,2.75c-1.44.18-2.87.35-4.31.51-2.57.3-5.23.61-7.83,1a8,8,0,0,1-8-3.25c-1.61-2-3.34-4-5-5.87-.93-1.06-1.87-2.13-2.79-3.2a4.06,4.06,0,0,0-4.85-1.32A66.58,66.58,0,0,0,97,77.21a3.67,3.67,0,0,0-1,2.54A14.57,14.57,0,0,0,96.7,84c.59,2,1.22,4.08,1.84,6.05.5,1.62,1,3.24,1.48,4.87a5.71,5.71,0,0,1-.74,5.39c-2.7,3.37-5.92,7.34-9.41,11.23A6,6,0,0,1,86.22,113a19.23,19.23,0,0,1-3.87-.14l-1.21-.11c-1.06-.08-2.12-.19-3.18-.29-2-.2-4.06-.4-6.09-.46a5.08,5.08,0,0,0-5.23,3.83c-.62,1.87-1.26,3.89-1.81,6-.74,2.75-1.43,5.5-2.13,8.26l-.85,3.35.1,1.21c.93,2.21,3,3.31,5.08,4.46s4,2.11,5.9,3.14l4.12,2.17a5.24,5.24,0,0,1,2.79,4.16q.28,2.14.54,4.29c.28,2.31.57,4.7.92,7a9.11,9.11,0,0,1-3.79,9.22c-2.52,1.92-5.12,4.09-8.21,6.84C67,178,66.69,179.54,68,182.2c1.94,3.87,4.53,9,7.42,14,2.2,3.85,3.46,4.35,7.94,3.15a1.66,1.66,0,0,0,.21-.06l.17-.06,3.18-1c2.39-.74,4.87-1.51,7.29-2.32A8.27,8.27,0,0,1,96.83,195.45Zm50.9-11.1a36.51,36.51,0,0,1-36.26-33.59,36.11,36.11,0,0,1,8.71-26.52c6.36-7.43,15.46-12.26,24.34-12.92,20.64-1.55,38,13.23,39.67,33.61,1.21,8.56-1.69,18.19-7.78,25.78a36.37,36.37,0,0,1-25.86,13.53C149.6,184.31,148.66,184.35,147.73,184.35Zm-.27-72.14c-1,0-1.9,0-2.87.1-8.62.65-17.46,5.35-23.66,12.58a35.14,35.14,0,0,0-8.47,25.79,35.59,35.59,0,0,0,63.18,19.4c5.91-7.38,8.74-16.73,7.56-25v0A35.43,35.43,0,0,0,147.46,112.21Z" fill="#231f20"/><path d="M271,271.39c-2.22-.28-3-1.76-3.33-3.78a33.5,33.5,0,0,0-1.13-5.28,4.07,4.07,0,0,0-1.76-2.2,68.26,68.26,0,0,0-6.91-2.85,2.63,2.63,0,0,0-1.95.26c-1.68.95-3.26,2.06-4.89,3.09-2.67,1.7-3.85,1.67-6.09-.54-1.87-1.84-3.53-3.89-5.33-5.8a2.16,2.16,0,0,1-.23-2.91c.9-1.47,1.75-3,2.79-4.35a6.28,6.28,0,0,0,.73-7c-2.92-6.4-2-5.64-8.55-6.88-3.94-.75-4.47-1.14-4.63-5.12-.1-2.42,0-4.85.12-7.27a2.67,2.67,0,0,1,2.38-2.86c1.76-.42,3.54-.71,5.32-1a5.24,5.24,0,0,0,4.19-3.24c.61-1.43,1.24-2.85,1.82-4.3a4.65,4.65,0,0,0-.44-4.46c-1.19-1.91-2.3-3.88-3.47-5.8a2.18,2.18,0,0,1,.32-2.92c2.41-2.36,4.82-4.7,7.33-6.93a2.34,2.34,0,0,1,2-.17,22.09,22.09,0,0,1,3.27,1.93c.9.57,1.76,1.2,2.66,1.78a4.63,4.63,0,0,0,4.25.48c2-.74,3.95-1.59,5.89-2.46a3.84,3.84,0,0,0,2.19-3.07c.39-2.09.93-4.15,1.41-6.23a1.87,1.87,0,0,1,1.93-1.57c3.32-.07,6.64-.08,10-.11a2.34,2.34,0,0,1,2.44,2.13c.42,1.92.91,3.84,1.23,5.77a4.36,4.36,0,0,0,2.81,3.69c2,.81,4,1.75,6,2.49a2.63,2.63,0,0,0,1.94-.2c2-1.11,3.82-2.4,5.76-3.55,2.3-1.37,2.66-1.38,4.65.42a70,70,0,0,1,5.31,5.31c1.57,1.75,1.6,3,.37,5-1.12,1.86-2.32,3.67-3.51,5.49a2.43,2.43,0,0,0-.25,2.45c.95,2.22,1.82,4.48,2.9,6.64a3.39,3.39,0,0,0,1.91,1.5c1.68.5,3.44.76,5.17,1.1,3.09.62,4.07,1.68,4.16,4.82.07,2.21.05,4.44,0,6.65-.08,2.44-.89,3.34-3.31,3.86-1.65.34-3.31.63-5,.93a4.69,4.69,0,0,0-3.76,2.83c-.88,2.07-1.76,4.15-2.48,6.28a2.87,2.87,0,0,0,.28,2.06c1.05,1.85,2.31,3.59,3.39,5.43,1.29,2.22,1.28,2.76-.45,4.68a72.26,72.26,0,0,1-5.4,5.39c-1.84,1.65-2.38,1.65-4.49.4q-2.37-1.41-4.64-3a4.53,4.53,0,0,0-4.85-.5c-1.45.67-2.93,1.28-4.38,2a5,5,0,0,0-2.9,3.87c-.18,1.05-.33,2.11-.52,3.16-.41,2.27-.81,4.55-3.92,4.46ZM276.16,244a14.41,14.41,0,0,0,8.32-1.74c9.75-5.68,12.64-16.87,7.93-25.66a18.9,18.9,0,0,0-30.52-4.35c-4.59,4.79-5.53,10.54-4.81,16.78a11,11,0,0,0,1,3.76C261.76,240,267.15,244.52,276.16,244Z" fill="#fff"/><path d="M279.52,271.89h-8.61c-2.85-.37-3.51-2.58-3.76-4.21a34.51,34.51,0,0,0-1.12-5.2,3.51,3.51,0,0,0-1.5-1.9,63.34,63.34,0,0,0-6.86-2.83,2.15,2.15,0,0,0-1.54.22c-1.11.63-2.22,1.36-3.28,2.06l-1.58,1c-2.91,1.85-4.35,1.72-6.71-.6-1.14-1.13-2.22-2.34-3.26-3.52-.68-.77-1.37-1.55-2.08-2.3a2.64,2.64,0,0,1-.3-3.51l.66-1.08a38.26,38.26,0,0,1,2.16-3.31,5.76,5.76,0,0,0,.67-6.47c-.27-.59-.51-1.13-.72-1.61-1.76-4-1.76-4-5.83-4.68l-1.63-.3c-4-.77-4.86-1.29-5-5.59-.1-2.45,0-5,.12-7.31a3.17,3.17,0,0,1,2.77-3.33c1.56-.37,3.16-.64,4.71-.9l.64-.11a4.74,4.74,0,0,0,3.81-2.94l.24-.55c.53-1.24,1.07-2.49,1.58-3.74a4.18,4.18,0,0,0-.4-4c-.68-1.09-1.34-2.2-2-3.31-.49-.83-1-1.67-1.49-2.49a2.66,2.66,0,0,1,.41-3.54c2.19-2.14,4.74-4.63,7.34-6.94a2.76,2.76,0,0,1,2.55-.26,16,16,0,0,1,2.64,1.51l.71.46c.46.29.9.6,1.35.9s.86.6,1.31.88a4.15,4.15,0,0,0,3.81.44c1.87-.7,3.7-1.49,5.86-2.46a3.34,3.34,0,0,0,1.9-2.7c.27-1.48.63-3,1-4.39.15-.62.3-1.24.44-1.86a2.38,2.38,0,0,1,2.41-2c2.48-.05,5-.07,7.44-.09l2.52,0a2.8,2.8,0,0,1,2.93,2.53c.11.48.22,1,.34,1.46.32,1.41.66,2.87.9,4.33a3.86,3.86,0,0,0,2.51,3.31c.82.33,1.64.69,2.46,1,1.15.49,2.35,1,3.54,1.44a2.11,2.11,0,0,0,1.53-.16c1.07-.61,2.14-1.29,3.17-2,.85-.54,1.7-1.09,2.57-1.6,2.53-1.5,3.12-1.44,5.25.48a74.85,74.85,0,0,1,5.34,5.35c1.69,1.88,1.8,3.35.43,5.62-1,1.65-2.06,3.28-3.1,4.86l-.42.65a1.93,1.93,0,0,0-.22,2c.29.67.57,1.33.84,2,.64,1.53,1.3,3.12,2,4.61a2.9,2.9,0,0,0,1.61,1.25,37.91,37.91,0,0,0,3.8.85l1.32.25c3.36.66,4.47,1.94,4.57,5.28.06,2.13.06,4.37,0,6.69-.09,2.67-1,3.76-3.71,4.32-1.46.31-3,.58-4.4.83l-.57.11a4.16,4.16,0,0,0-3.39,2.54c-.94,2.2-1.77,4.2-2.47,6.24a2.43,2.43,0,0,0,.24,1.66c.55,1,1.17,1.91,1.77,2.84s1.1,1.7,1.62,2.58c1.42,2.43,1.34,3.22-.51,5.27a73.2,73.2,0,0,1-5.44,5.42c-2,1.77-2.73,1.84-5.07.46-1.58-.94-3.15-2-4.68-3a4,4,0,0,0-4.35-.46c-.69.32-1.37.62-2.06.92s-1.55.68-2.32,1a4.44,4.44,0,0,0-2.62,3.51c-.09.52-.17,1-.26,1.57s-.17,1.06-.26,1.59C283.37,269.2,282.88,271.89,279.52,271.89Zm-8.51-1h8.34c2.55.09,3-1.49,3.43-4,.09-.53.18-1.06.26-1.58s.17-1.06.26-1.59a5.48,5.48,0,0,1,3.19-4.24c.77-.36,1.55-.7,2.33-1l2-.91a5,5,0,0,1,5.35.54c1.5,1.07,3.05,2.08,4.61,3,2,1.16,2.25,1.13,3.9-.35a73,73,0,0,0,5.36-5.34c1.56-1.73,1.59-2,.39-4.1-.5-.86-1.06-1.71-1.6-2.54s-1.23-1.9-1.79-2.89a3.32,3.32,0,0,1-.32-2.47c.7-2.08,1.54-4.09,2.49-6.31a5.15,5.15,0,0,1,4.13-3.13l.57-.11c1.44-.25,2.93-.51,4.38-.82,2.21-.47,2.84-1.2,2.91-3.39s.09-4.52,0-6.62c-.08-2.87-.86-3.76-3.76-4.34l-1.31-.24a36.61,36.61,0,0,1-3.91-.88,3.81,3.81,0,0,1-2.21-1.75c-.76-1.53-1.43-3.13-2.07-4.68l-.84-2a2.93,2.93,0,0,1,.29-2.92l.43-.66c1-1.57,2.09-3.19,3.08-4.82,1.15-1.9,1.07-2.89-.32-4.45a72.78,72.78,0,0,0-5.27-5.27c-1.8-1.63-1.92-1.64-4.07-.36-.86.51-1.7,1-2.54,1.58-1.05.67-2.13,1.35-3.22,2a3.15,3.15,0,0,1-2.36.23c-1.22-.44-2.43-1-3.59-1.47-.81-.35-1.62-.7-2.44-1a4.84,4.84,0,0,1-3.12-4.07c-.24-1.43-.57-2.88-.89-4.28-.12-.49-.23-1-.34-1.47-.27-1.2-.86-1.74-1.92-1.74h0l-2.52,0c-2.47,0-4.95,0-7.42.09a1.39,1.39,0,0,0-1.47,1.19c-.14.62-.29,1.24-.44,1.86-.34,1.42-.69,2.89-1,4.35a4.31,4.31,0,0,1-2.48,3.42c-2.18,1-4,1.77-5.92,2.48a5.13,5.13,0,0,1-4.69-.53c-.45-.29-.89-.59-1.33-.9s-.88-.6-1.33-.88l-.71-.47a16.73,16.73,0,0,0-2.48-1.43,1.92,1.92,0,0,0-1.5.09c-2.59,2.3-5.14,4.78-7.32,6.91a1.69,1.69,0,0,0-.25,2.31c.51.83,1,1.67,1.5,2.5.65,1.11,1.3,2.21,2,3.3a5.14,5.14,0,0,1,.48,4.91c-.51,1.26-1,2.51-1.59,3.76l-.24.55a5.72,5.72,0,0,1-4.56,3.53l-.63.11c-1.54.26-3.12.53-4.65.89a2.2,2.2,0,0,0-2,2.41c-.12,2.43-.22,4.81-.12,7.22.15,3.75.56,4,4.22,4.65l1.63.3c4.5.81,4.62.9,6.56,5.26l.72,1.6a6.73,6.73,0,0,1-.79,7.48c-.76,1-1.44,2.14-2.1,3.22l-.66,1.09A1.67,1.67,0,0,0,240,254c.71.76,1.41,1.54,2.1,2.32,1,1.16,2.09,2.37,3.21,3.47,2,2,3,2.08,5.48.47q.78-.49,1.56-1c1.08-.7,2.2-1.44,3.34-2.09a3.18,3.18,0,0,1,2.37-.29,67.11,67.11,0,0,1,7,2.88,4.46,4.46,0,0,1,2,2.48,35,35,0,0,1,1.15,5.36C268.46,269.69,269.3,270.67,271,270.9Zm6.4-26.33-1.25,0c-8.38.43-14.27-3.21-18.51-11.48a11.64,11.64,0,0,1-1.07-3.94c-.84-7.32.73-12.78,4.95-17.17a19.29,19.29,0,0,1,16.66-5.88,19.54,19.54,0,0,1,14.66,10.34c5,9.38,1.53,20.7-8.12,26.32A14.17,14.17,0,0,1,277.41,244.57Zm-1.25-1h0a13.8,13.8,0,0,0,8-1.67c9.18-5.35,12.51-16.09,7.75-25a18.55,18.55,0,0,0-13.92-9.82,18.29,18.29,0,0,0-15.81,5.58c-4,4.16-5.48,9.36-4.68,16.37a10.47,10.47,0,0,0,1,3.6c4,7.88,9.63,11.36,17.59,10.93Z" fill="#231f20"/><path d="M188.84,254.61a3.91,3.91,0,0,1,.3-.75,8.43,8.43,0,0,1,.94-1.2,4.34,4.34,0,0,0,.8-5.66,5.15,5.15,0,0,0-1.88-1.59,21.09,21.09,0,0,0-2.32-1,1.08,1.08,0,0,1-.72-1.22c.21-1.48.4-3,.69-4.44a1.33,1.33,0,0,1,.84-.78,9.11,9.11,0,0,1,2-.2,4.08,4.08,0,0,0,3.51-2c1.1-1.61,1.41-3,.33-4.82-1.3-2.22-1.09-2.44,1-4,.74-.58,1.53-1.08,2.28-1.64a.85.85,0,0,1,1.21.06c.8.68,1.62,1.34,2.42,2a2.51,2.51,0,0,0,2.22.59c.55-.11,1.1-.26,1.66-.38a3.41,3.41,0,0,0,2.76-2.66c.93-3.31,1.55-2.81,3.9-2.42.81.14,1.61.36,2.41.51a1.14,1.14,0,0,1,1.07,1.12c.09,1.07.26,2.14.32,3.21a1.63,1.63,0,0,0,.83,1.44c3.39,2.13,3,2.16,6.47.53,1.25-.58,1.65-.51,2.52.53s1.48,1.93,2.21,2.91a1.17,1.17,0,0,1,0,1.61c-.81,1-1.63,2-2.39,3a1.47,1.47,0,0,0-.25,1c.18.92.46,1.81.7,2.71a2.55,2.55,0,0,0,1.82,1.85,11.71,11.71,0,0,1,2.5,1,1.6,1.6,0,0,1,.7,1.21,41.07,41.07,0,0,1-.46,4.13,1.43,1.43,0,0,1-1.54,1.3,5.72,5.72,0,0,1-.59,0c-2.53-.19-4.09,1.12-5.15,3.27a2.83,2.83,0,0,0-.14,2.53c.33.76.65,1.51,1,2.26a1.47,1.47,0,0,1-.47,2q-1.58,1.15-3.12,2.34a1.17,1.17,0,0,1-1.68-.09c-.7-.62-1.43-1.21-2.12-1.85a2.25,2.25,0,0,0-2.11-.63,17.6,17.6,0,0,0-2.7.72,2.37,2.37,0,0,0-1.13,1.06,10.74,10.74,0,0,0-.79,2.23,1.89,1.89,0,0,1-2.07,1.61c-1.37-.15-2.73-.45-4.1-.68a1.16,1.16,0,0,1-1-1.19c-.06-.65-.09-1.3-.14-1.95a7.74,7.74,0,0,0-.12-1.18c-.52-2-4.05-3.64-5.91-2.72-.71.35-1.39.77-2.13,1.07a1.22,1.22,0,0,1-1-.07,11,11,0,0,1-3.19-4.24A3,3,0,0,1,188.84,254.61Zm19.23-1.52a8.93,8.93,0,0,0,8.82-8.86,9.08,9.08,0,0,0-9-9.18,9.21,9.21,0,0,0-9,9.21A9,9,0,0,0,208.07,253.09Z" fill="#d1d3d4"/><path d="M206.8,266.53h-.29c-1-.11-2-.29-2.91-.47l-1.22-.22A1.65,1.65,0,0,1,201,264.2c0-.39-.06-.78-.09-1.17l-.07-1.12a4.4,4.4,0,0,0-.09-.77,4.49,4.49,0,0,0-5.2-2.39l-.74.38a12.49,12.49,0,0,1-1.42.7,1.68,1.68,0,0,1-1.51-.14,11.37,11.37,0,0,1-3.34-4.43,2.8,2.8,0,0,1-.1-.37l0-.16a.51.51,0,0,1,0-.3c0-.06,0-.13.07-.2a2.55,2.55,0,0,1,.28-.65,9.23,9.23,0,0,1,1-1.27,3.83,3.83,0,0,0,.73-5.06,4.82,4.82,0,0,0-1.68-1.4,9.88,9.88,0,0,0-1.51-.7l-.79-.33a1.6,1.6,0,0,1-1-1.75l.12-.8c.16-1.21.34-2.45.58-3.67a1.78,1.78,0,0,1,1.21-1.16,9.35,9.35,0,0,1,2.13-.22,3.57,3.57,0,0,0,3.1-1.8c1.12-1.63,1.21-2.75.32-4.28-1.43-2.44-1.14-2.95,1.09-4.69.43-.34.87-.65,1.32-1l1-.7a1.36,1.36,0,0,1,1.84.09c.44.38.88.74,1.33,1.11l1.08.9a2,2,0,0,0,1.8.48l.85-.19c.27-.06.53-.13.8-.18a2.9,2.9,0,0,0,2.38-2.31c.9-3.16,1.67-3.3,3.83-2.89l.64.11c.48.08,1,.19,1.42.29s.67.16,1,.22a1.62,1.62,0,0,1,1.46,1.57c0,.45.09.89.15,1.34.07.63.14,1.25.18,1.88a1.13,1.13,0,0,0,.6,1l.58.36c2.44,1.55,2.44,1.55,5.06.31l.35-.17c1.45-.68,2.09-.55,3.11.65.57.67,1.09,1.38,1.59,2.06.21.3.42.59.64.88a1.66,1.66,0,0,1-.05,2.23l-.12.14c-.75.92-1.53,1.86-2.25,2.83a1,1,0,0,0-.16.64c.13.66.32,1.34.51,2l.19.68a2,2,0,0,0,1.49,1.5,12.56,12.56,0,0,1,2.59,1.1,2.12,2.12,0,0,1,1,1.66c-.06,1.36-.25,2.7-.46,4.19a1.92,1.92,0,0,1-2,1.72h-.2a3.2,3.2,0,0,1-.44,0c-2.11-.16-3.57.8-4.66,3a2.29,2.29,0,0,0-.13,2.1l.27.65c.24.53.47,1.07.71,1.61a2,2,0,0,1-.63,2.62q-1.58,1.16-3.12,2.34a1.66,1.66,0,0,1-2.31-.12l-.87-.75c-.43-.36-.85-.72-1.26-1.1a1.76,1.76,0,0,0-1.66-.51l-.43.09a14.55,14.55,0,0,0-2.2.6,1.91,1.91,0,0,0-.86.83,10.5,10.5,0,0,0-.76,2.13A2.39,2.39,0,0,1,206.8,266.53Zm-10.25-9a5.92,5.92,0,0,1,2.39.56,4.69,4.69,0,0,1,2.73,2.8,5.25,5.25,0,0,1,.12,1l.07,1.11c0,.38,0,.76.09,1.14s.27.68.6.74l1.23.22c.93.17,1.89.35,2.84.45s1.35-.62,1.52-1.24A11.71,11.71,0,0,1,209,262a2.86,2.86,0,0,1,1.39-1.3,14.12,14.12,0,0,1,2.35-.64l.43-.1a2.73,2.73,0,0,1,2.55.76l1.22,1.07c.3.25.6.5.89.76s.66.37,1,.08c1-.8,2.08-1.59,3.14-2.36a1,1,0,0,0,.31-1.4c-.25-.54-.48-1.08-.71-1.63l-.28-.64a3.35,3.35,0,0,1,.15-3c1.28-2.57,3.13-3.73,5.64-3.54a1.32,1.32,0,0,0,.28,0h.26a.94.94,0,0,0,1.06-.87c.21-1.45.39-2.77.45-4.08a1.13,1.13,0,0,0-.46-.76,11.87,11.87,0,0,0-2.39-1,3,3,0,0,1-2.15-2.18l-.19-.68c-.19-.67-.38-1.37-.52-2.08a1.92,1.92,0,0,1,.34-1.42c.73-1,1.52-1.94,2.28-2.86l.12-.15a.68.68,0,0,0,0-1c-.22-.29-.44-.59-.65-.89-.49-.67-1-1.36-1.54-2-.72-.85-.88-.89-1.92-.39l-.35.16c-3,1.44-3.2,1.43-6-.36l-.58-.37a2.11,2.11,0,0,1-1.06-1.82c0-.62-.11-1.22-.18-1.83,0-.46-.1-.92-.14-1.38s-.21-.58-.66-.67-.7-.14-1-.22-.9-.21-1.36-.28l-.66-.12c-1.74-.32-2-.36-2.68,2.18a3.91,3.91,0,0,1-3.14,3l-.78.18-.88.2a3,3,0,0,1-2.64-.69l-1.07-.9c-.46-.37-.91-.74-1.35-1.12-.26-.22-.37-.21-.59,0l-1,.71c-.43.3-.86.6-1.27.92-1.95,1.52-1.95,1.52-.85,3.41a4.47,4.47,0,0,1-.35,5.35,4.57,4.57,0,0,1-3.91,2.23,8,8,0,0,0-1.9.19.88.88,0,0,0-.48.39c-.24,1.18-.41,2.41-.57,3.6l-.11.81a.59.59,0,0,0,.42.7l.76.31a10.8,10.8,0,0,1,1.62.76,5.64,5.64,0,0,1,2.06,1.77,4.84,4.84,0,0,1-.88,6.25,8.75,8.75,0,0,0-.89,1.14,2,2,0,0,0-.16.4l0,.1v0a1.06,1.06,0,0,0,.06.19,10.43,10.43,0,0,0,3,4.05.82.82,0,0,0,.51,0,14.61,14.61,0,0,0,1.32-.65l.77-.4A3.33,3.33,0,0,1,196.55,257.54Zm11.55-4h0a9.52,9.52,0,0,1-.27-19h.09a9.62,9.62,0,0,1,9.51,9.68A9.39,9.39,0,0,1,208.1,253.59Zm-.31-18a8.52,8.52,0,1,0,.28,17h0a8.39,8.39,0,0,0,8.29-8.37,8.61,8.61,0,0,0-8.52-8.67Z" fill="#d1d3d4"/><path d="M280.46,176.61,294.36,189s19.69-19.22,18.31-21.46-15.5,6.54-15.5,6.54l-8.57-9.28" fill="#fff"/><path d="M294.36,189.45a.5.5,0,0,1-.34-.13L280.12,177a.5.5,0,1,1,.67-.75l13.55,12c9.19-9,18.32-19.05,17.9-20.54a.42.42,0,0,0-.19-.08c-2-.47-9.82,3.81-14.62,6.8a.49.49,0,0,1-.62-.08l-8.58-9.28a.51.51,0,0,1,0-.71.5.5,0,0,1,.7,0l8.3,9c2.27-1.4,12.22-7.37,15-6.71a1.25,1.25,0,0,1,.81.55c1.44,2.33-12.38,16.21-18.39,22.08A.49.49,0,0,1,294.36,189.45Z" fill="#231f20"/><path d="M260.63,135.31S283,157,293.09,166.15L279.86,179s-35.42-29.85-47-34.64Z" fill="#231f20"/><path d="M279.86,179.45a.46.46,0,0,1-.32-.11c-.36-.3-35.5-29.85-46.87-34.56a.49.49,0,0,1-.3-.48.5.5,0,0,1,.34-.45l27.76-9a.49.49,0,0,1,.5.12c.23.21,22.44,21.73,32.45,30.82a.49.49,0,0,1,.17.36.51.51,0,0,1-.15.36L280.2,179.31A.45.45,0,0,1,279.86,179.45Zm-45.62-35c12,5.8,41.83,30.73,45.59,33.89l12.53-12.13c-9.65-8.8-29.57-28.06-31.86-30.28Z" fill="#231f20"/><path d="M196.23,115.37c.28.8-1.65,28.56,11.57,32.42s37.8,0,37.8,0L241,171.28l16.06,2.42s15.71-39.37,11.81-42.61c-6.91-5.75-47.54-19.16-47.54-19.16Z" fill="#231f20"/><path d="M257.06,174.2H257l-16.05-2.42a.51.51,0,0,1-.34-.21.5.5,0,0,1-.08-.38l4.46-22.8c-4.12.59-25.4,3.36-37.31-.11-7.89-2.31-11.89-12.86-11.89-31.39,0-.65,0-1.26,0-1.39a.44.44,0,0,1,.05-.4.49.49,0,0,1,.37-.21l25.1-3.45a.42.42,0,0,1,.22,0c1.66.54,40.8,13.51,47.7,19.25,4.06,3.37-10.05,39.11-11.67,43.17A.49.49,0,0,1,257.06,174.2Zm-15.47-3.34,15.15,2.29c6-15.12,14.43-39.5,11.82-41.68-6.59-5.47-44.93-18.26-47.27-19l-24.53,3.36c0,.24,0,.58,0,1.08,0,18,3.75,28.27,11.17,30.43,12.95,3.78,37.34,0,37.58,0a.52.52,0,0,1,.44.14.51.51,0,0,1,.13.44Z" fill="#231f20"/><path d="M232.27,72.69l26,9.12,1.17-19.71s-2.28-3.89-2.43-4.9S259.49,55,259.49,55s.17-7.22,1-8.21,2.21-1.26,2.35,0,0,8.21,0,8.21,4.51.49,5.07,1.28.84,5.4,0,6.47,7.32,32.61,4.22,33.32-45.52-6.9-45.52-6.9" fill="#fff"/><path d="M271.53,96.53c-6.19,0-43.37-6.65-45-6.94a.46.46,0,0,1-.37-.53.45.45,0,0,1,.53-.37c11.78,2.11,42.9,7.46,45.34,6.9,1.54-.35-1.56-15.84-2.89-22.46-1.74-8.71-2-10.21-1.59-10.69.68-.87.45-5.27,0-5.93-.27-.34-2.44-.84-4.75-1.09a.46.46,0,0,1-.41-.46c0-.07.14-6.92,0-8.15,0-.36-.2-.4-.25-.42a1.5,1.5,0,0,0-1.3.66c-.44.54-.79,4.46-.87,7.93a.44.44,0,0,1-.26.4c-1.19.57-2.23,1.41-2.18,1.76a28.27,28.27,0,0,0,2.38,4.73.42.42,0,0,1,.06.25l-1.18,19.72a.46.46,0,0,1-.2.35.48.48,0,0,1-.4.06l-26.05-9.13a.46.46,0,0,1,.3-.86l25.48,8.92,1.13-19c-.44-.75-2.27-3.94-2.42-4.94s1.58-2.15,2.43-2.59c0-1.69.26-7.22,1.07-8.21a2.35,2.35,0,0,1,2.27-1,1.32,1.32,0,0,1,.9,1.2c.12,1.12,0,6.32,0,7.85,1.57.19,4.41.63,5,1.42.69,1,1,5.79,0,7-.12.54.84,5.32,1.77,9.94,3.18,15.9,4.25,23.06,2.19,23.53A2.87,2.87,0,0,1,271.53,96.53Z" fill="#231f20"/><path d="M227.47,44a9.73,9.73,0,0,0-4.1-3.62c-1.47-.57-2.46-.13-3.86.14-.56.11-.8.89-1.38.94s-1.56-.72-2.16-.87C203.3,37.37,199.75,53.7,192.26,60c-4.92,4.1-11.36,6.7-14.68,12.17A14.54,14.54,0,0,0,176,83.55a21.6,21.6,0,0,0,3.9,7.15,30.39,30.39,0,0,0,7.14,6.86c8.88,5.89,21.29,4.93,30.1-1C229.57,88.09,234,73,232.66,58.78A30,30,0,0,0,227.47,44Z" fill="#fff"/><path d="M200.86,102a25.34,25.34,0,0,1-14.05-4,30.76,30.76,0,0,1-7.26-7,21.67,21.67,0,0,1-4-7.32,15.14,15.14,0,0,1,1.59-11.83c2.26-3.72,5.95-6.16,9.51-8.52a60.09,60.09,0,0,0,5.28-3.77c2.37-2,4.32-5,6.39-8.15,4.35-6.67,8.86-13.56,17.76-11.27a4.45,4.45,0,0,1,1,.43,3,3,0,0,0,1,.42c.12,0,.26-.16.4-.31a1.73,1.73,0,0,1,.93-.61l.76-.17a5.16,5.16,0,0,1,3.38.05,10.3,10.3,0,0,1,4.32,3.79,30.46,30.46,0,0,1,5.29,15c1.49,16.23-4.38,30.5-15.7,38.19A29.76,29.76,0,0,1,200.86,102Zm12-61.3c-6.32,0-10,5.71-13.67,11.26-2.11,3.23-4.1,6.28-6.58,8.36a61,61,0,0,1-5.37,3.84c-3.63,2.41-7.06,4.68-9.21,8.21a14.16,14.16,0,0,0-1.49,11,21.19,21.19,0,0,0,3.82,7,29.79,29.79,0,0,0,7,6.75c8.33,5.53,20.48,5.1,29.54-1.05,11-7.48,16.72-21.42,15.27-37.28a29.52,29.52,0,0,0-5.11-14.49h0a9.46,9.46,0,0,0-3.87-3.45,4.27,4.27,0,0,0-2.8,0c-.25.06-.51.12-.79.17-.11,0-.25.17-.39.32a1.68,1.68,0,0,1-1,.63,3,3,0,0,1-1.6-.54,3.94,3.94,0,0,0-.74-.35A12.23,12.23,0,0,0,212.83,40.71Z" fill="#231f20"/><path d="M194,69.8c.54-.68,30.76-5.84,38.23,2.89s-4,43.09-4,43.09L188,113.36S179.25,88.23,194,69.8Z" fill="#70dba6"/><path d="M222.55,67.64l.55,7.07s-.66,3.3-5.48,2.57-5.8-3.92-5.8-3.92l-.55-13.22s7-4.57,5.37-12.08A9.72,9.72,0,0,0,227,52.29a83.53,83.53,0,0,1,.42,10.47C227.13,66.47,222.55,67.64,222.55,67.64Z" fill="#fff"/><path d="M218.93,77.89a10.32,10.32,0,0,1-1.39-.11c-5.07-.77-6.15-4.13-6.2-4.27a.59.59,0,0,1,0-.13l-.55-13.22a.49.49,0,0,1,.23-.44c.06,0,6.74-4.48,5.15-11.55a.5.5,0,0,1,.92-.37,9.11,9.11,0,0,0,9.78,4,.51.51,0,0,1,.4.08.49.49,0,0,1,.2.36,81.72,81.72,0,0,1,.43,10.56c-.23,3.38-3.61,4.8-4.8,5.2l.52,6.67a.66.66,0,0,1,0,.14S222.92,77.89,218.93,77.89Zm-6.61-4.62c.15.4,1.23,2.89,5.37,3.52s4.8-1.7,4.91-2.12l-.55-7a.5.5,0,0,1,.37-.52c.05,0,4.24-1.13,4.47-4.43a80,80,0,0,0-.38-9.85,10,10,0,0,1-9.13-3.09c.31,5.91-4.46,9.77-5.6,10.6Z" fill="#231f20"/><path d="M213.47,59.57A3.13,3.13,0,0,0,212.28,58a5.55,5.55,0,0,0-1.73-.69,2.31,2.31,0,0,0-1-.09,2,2,0,0,0-.65.3,2.4,2.4,0,0,0-1,1.3,2.81,2.81,0,0,0,0,1.35,5.82,5.82,0,0,0,.49,1.4,3.75,3.75,0,0,0,5.12,1.52" fill="#fff"/><path d="M211.7,64.07a4.11,4.11,0,0,1-1.2-.18A4.26,4.26,0,0,1,208,61.82a6.22,6.22,0,0,1-.53-1.53,3.27,3.27,0,0,1-.05-1.59,2.79,2.79,0,0,1,1.23-1.58,2.29,2.29,0,0,1,.83-.38,2.7,2.7,0,0,1,1.24.1,5.81,5.81,0,0,1,1.88.76,3.56,3.56,0,0,1,1.38,1.81.5.5,0,0,1-.31.63.51.51,0,0,1-.64-.31,2.57,2.57,0,0,0-1-1.3,5,5,0,0,0-1.57-.62,2,2,0,0,0-.79-.09,1.42,1.42,0,0,0-.47.23,1.92,1.92,0,0,0-.83,1,2.49,2.49,0,0,0,.06,1.11,5.41,5.41,0,0,0,.44,1.28,3.28,3.28,0,0,0,4.44,1.32.49.49,0,0,1,.68.19.51.51,0,0,1-.2.68A4.24,4.24,0,0,1,211.7,64.07Z" fill="#231f20"/><path d="M221.17,55.38s2.91,3.38,2.41,4.09-2.2.49-2.2.49" fill="#fff"/><path d="M222,60.5a4.12,4.12,0,0,1-.67,0,.5.5,0,0,1-.43-.56.51.51,0,0,1,.56-.43c.59.08,1.51,0,1.73-.28a13.72,13.72,0,0,0-2.38-3.47.51.51,0,0,1,.05-.71.52.52,0,0,1,.71.06c2.1,2.43,2.92,4,2.43,4.7A2.44,2.44,0,0,1,222,60.5Z" fill="#231f20"/><ellipse cx="218.87" cy="54.97" rx="0.61" ry="0.86" transform="translate(-5.89 75.19) rotate(-19.24)" fill="#231f20"/><ellipse cx="222.93" cy="54.49" rx="0.61" ry="0.86" transform="translate(-5.5 76.5) rotate(-19.24)" fill="#231f20"/><path d="M223.63,61.44l-4.6-.55s-.24,3.43,2.42,3.66C223.28,64.71,223.63,61.44,223.63,61.44Z" fill="#fff"/><path d="M221.59,65.06h-.18c-2.5-.22-3-2.84-2.88-4.2a.54.54,0,0,1,.18-.35.53.53,0,0,1,.38-.11l4.6.55a.5.5,0,0,1,.44.55C224,62.84,223.29,65.06,221.59,65.06Zm-2.06-3.61c.06.86.37,2.47,2,2.61,1,.07,1.39-1.39,1.55-2.19Z" fill="#231f20"/><path d="M222.55,67.64s-3.68.21-5.44-.7c0,0,1.65,4.12,5.7,5Z" fill="#231f20"/><path d="M222.81,72.4h-.1c-4.26-.89-6-5.09-6.06-5.27a.49.49,0,0,1,.12-.55.49.49,0,0,1,.56-.07c1.63.83,5.15.65,5.19.64a.53.53,0,0,1,.53.47l.26,4.26a.54.54,0,0,1-.17.41A.55.55,0,0,1,222.81,72.4Zm-4.67-4.58a7.93,7.93,0,0,0,4.13,3.42l-.19-3.08A17.31,17.31,0,0,1,218.14,67.82Z" fill="#231f20"/><path d="M255.56,173.7l-2.65,9.11s11.58,5.84,9.54,7.09-22.53-1-23.29-1.36,2.28-18,2.28-18" fill="#fff"/><path d="M258.77,190.76c-6.67,0-19.13-1.42-19.84-1.77-.38-.2-1.09-.56,2-18.57a.5.5,0,0,1,1,.17c-1.31,7.58-2.55,16.08-2.39,17.55,2.15.48,20.89,2.42,22.65,1.34,0-.77-4.37-3.64-9.5-6.22a.51.51,0,0,1-.26-.59l2.65-9.11a.5.5,0,1,1,1,.28l-2.53,8.72c2.68,1.36,9.61,5.08,9.68,6.91a.91.91,0,0,1-.47.85A10.51,10.51,0,0,1,258.77,190.76Z" fill="#231f20"/><path d="M229.65,125.79a.46.46,0,0,1-.25-.08l-10.9-7.42,1.53,6.55a.43.43,0,0,1-.32.53.44.44,0,0,1-.54-.33l-1.8-7.65a.45.45,0,0,1,.18-.47.45.45,0,0,1,.5,0L229.9,125a.45.45,0,0,1,.12.61A.45.45,0,0,1,229.65,125.79Z" fill="#fff"/><polygon points="237.2 128.66 221.34 117.42 252.41 110.11 272.98 122.72 237.2 128.66" fill="#fff"/><path d="M237.2,129.12a.43.43,0,0,1-.26-.09l-15.87-11.24a.46.46,0,0,1,.16-.82l31.07-7.31a.48.48,0,0,1,.35.06l20.57,12.61a.46.46,0,0,1-.17.84l-35.77,5.94Zm-14.77-11.49,14.88,10.55,34.39-5.71L252.33,110.6Z" fill="#231f20"/><path d="M199.75,73.53s-.43,32.5,1.92,33,30.86,2.7,32.48,3,5.8,2,6.78,3.29,2.88,6.67,1.56,6.6a47.31,47.31,0,0,1-5.75-.34c-1.1-.28-3.19-2.88-3.19-2.88s.83,2.8-.64,2.51-4.61-2.92-4.61-2.92-33.69,6.72-38.53.78-6.45-20.85-3.68-33.18S197.68,66.86,199.75,73.53Z" fill="#fff"/><path d="M242.51,119.87h0l-1.37-.05a28.52,28.52,0,0,1-4.47-.31,6.71,6.71,0,0,1-2.38-1.83,1.81,1.81,0,0,1-.35,1.17,1.11,1.11,0,0,1-1.07.3c-1.4-.28-3.92-2.29-4.64-2.88-3.15.61-34,6.48-38.76.58s-6.58-21.07-3.77-33.57c1.92-8.57,6.63-13.21,10.28-13.36,2-.06,3.55,1.19,4.26,3.47a.78.78,0,0,1,0,.14c-.2,15.25.34,31.59,1.6,32.55,1.24.25,10.81,1.07,19.25,1.79,6.68.57,12.44,1.06,13.17,1.2,1.73.33,6,2.09,7.06,3.45.83,1.06,2.61,5.61,2,6.89A.78.78,0,0,1,242.51,119.87Zm-9-4.14a.46.46,0,0,1,.35.17c.78,1,2.26,2.55,2.95,2.73a30.41,30.41,0,0,0,4.26.28l1.4,0c.31-.53-1-4.67-1.94-5.87s-4.84-2.8-6.51-3.12c-.68-.13-6.7-.64-13.08-1.19-8.47-.73-18.06-1.55-19.41-1.82-.63-.13-1.82-.37-2.2-17.11-.17-7.69-.08-15.42-.07-16.25-.6-1.85-1.76-2.84-3.33-2.77-3.23.14-7.63,4.61-9.43,12.65-2.75,12.26-1.14,27,3.59,32.79,1.3,1.61,6,3.2,20.67,1.67,8.91-.92,17.33-2.6,17.41-2.61a.46.46,0,0,1,.39.1c.84.71,3.28,2.6,4.39,2.82.08,0,.18,0,.22,0,.21-.23.11-1.19-.1-1.91a.45.45,0,0,1,.22-.53A.43.43,0,0,1,233.55,115.73Z" fill="#231f20"/><path d="M237.2,128.66c.79-2,10.26-31.2,10.26-31.2l37.3-5L273,122.72Z" fill="#fff"/><path d="M237.2,129.12a.46.46,0,0,1-.35-.17.48.48,0,0,1-.07-.46c.77-2,10.15-30.88,10.24-31.17a.45.45,0,0,1,.38-.31l37.3-5a.45.45,0,0,1,.42.17.43.43,0,0,1,.06.44L273.4,122.89a.46.46,0,0,1-.35.28l-35.77,5.94Zm10.6-31.24c-1,2.92-8.27,25.5-9.9,30.2l34.75-5.77L284.05,93Z" fill="#231f20"/><path d="M259.46,115.87a3.44,3.44,0,0,1-1.56-.34c-.65-.34-1.68-1.21-1.23-3.31h0a8.49,8.49,0,0,1,1.84-3.77,5.07,5.07,0,0,1,2.28-1.63,3,3,0,0,1,2.89.56,3.47,3.47,0,0,1,1,2.1,5.94,5.94,0,0,1-1.43,4.79A5.31,5.31,0,0,1,259.46,115.87Zm2.32-8.2a2.35,2.35,0,0,0-.69.1,4.14,4.14,0,0,0-1.82,1.33,7.56,7.56,0,0,0-1.63,3.32h0c-.23,1.11,0,1.85.71,2.22a4,4,0,0,0,4.12-1,4.91,4.91,0,0,0,1.18-4,2.44,2.44,0,0,0-.65-1.51A1.77,1.77,0,0,0,261.78,107.67Zm-4.63,4.65h0Z" fill="#d1d3d4"/><path d="M263.1,61.43a.45.45,0,0,1-.45-.45,2,2,0,0,0-1.8-1.93l-.32,0a.46.46,0,0,1-.36-.51.48.48,0,0,1,.49-.39,2.47,2.47,0,0,1,.36,0,3.29,3.29,0,0,0,2.82-1.23c.08-.09.16-.21.13-.29-.23-.54-2.52-1.06-4.51-1.2a.44.44,0,0,1-.42-.48.46.46,0,0,1,.49-.43c1.09.08,4.71.43,5.28,1.75a1.14,1.14,0,0,1-.27,1.24,4.19,4.19,0,0,1-2,1.35,2.63,2.63,0,0,1,1,2.13A.46.46,0,0,1,263.1,61.43Z" fill="#231f20"/><path d="M260.91,164a.41.41,0,0,1-.16,0,.44.44,0,0,1-.26-.57c1.47-3.94,6.92-21.08,7-21.26a.45.45,0,0,1,.85.27c-.06.17-5.51,17.34-7,21.3A.44.44,0,0,1,260.91,164Z" fill="#fff"/><path d="M310,80.09c-1.22-.26-2.44-.58-3.68-.78a3.45,3.45,0,0,1-3.2-3.59,20.3,20.3,0,0,0-2.49-8.58,16.7,16.7,0,0,1-1.06-12.65c2.73-8.68,11-12.51,19.91-9.67,13.14,4.2,14,18.92,4.85,27.06-2.46,2.2-4.82,4.34-6.32,7.34a3.28,3.28,0,0,1-4.14,1.72C312.57,80.62,311.27,80.37,310,80.09Z" fill="#fff"/><path d="M315.07,81.6a5.44,5.44,0,0,1-1.34-.18c-.88-.22-1.76-.4-2.64-.58l-1.21-.26h0l-1.13-.25c-.83-.19-1.69-.39-2.53-.53a4,4,0,0,1-3.62-4.06,20.33,20.33,0,0,0-2.43-8.38,17.24,17.24,0,0,1-1.09-13,15.17,15.17,0,0,1,7.48-9.25,17,17,0,0,1,13.05-.74c5.79,1.85,9.77,6,10.92,11.34a17.58,17.58,0,0,1-5.89,16.56c-2.32,2.07-4.71,4.21-6.2,7.2A3.6,3.6,0,0,1,315.07,81.6Zm-5-2,1.2.25c.9.18,1.8.37,2.68.6A2.81,2.81,0,0,0,317.55,79c1.57-3.15,4-5.36,6.42-7.5a16.57,16.57,0,0,0,5.58-15.61c-1.08-5.06-4.72-8.83-10.25-10.59A16,16,0,0,0,307,46a14.22,14.22,0,0,0-7,8.66,16.06,16.06,0,0,0,1,12.28,21,21,0,0,1,2.54,8.79,3,3,0,0,0,2.78,3.11c.87.14,1.75.34,2.59.53l1.12.26Z" fill="#231f20"/><rect x="302.83" y="80.06" width="13.45" height="3.82" rx="1.65" transform="translate(24.29 -63.52) rotate(12.19)" fill="#fff"/><path d="M314.46,85.45a2.49,2.49,0,0,1-.46,0h0l-9.92-2.14a2.15,2.15,0,0,1-1.65-2.55l.11-.52a2.16,2.16,0,0,1,2.56-1.65L315,80.69a2.15,2.15,0,0,1,1.65,2.55l-.11.52A2.16,2.16,0,0,1,314.46,85.45Zm-.25-1a1.16,1.16,0,0,0,1.37-.87l.11-.52a1.14,1.14,0,0,0-.88-1.36l-9.92-2.15a1.15,1.15,0,0,0-1.37.88l-.11.52a1.14,1.14,0,0,0,.88,1.36Z" fill="#231f20"/><rect x="302.02" y="83.8" width="13.45" height="3.82" rx="1.65" transform="matrix(0.98, 0.21, -0.21, 0.98, 25.06, -63.26)" fill="#fff"/><path d="M313.65,89.18a1.73,1.73,0,0,1-.45-.05L303.27,87a2.15,2.15,0,0,1-1.64-2.55l.11-.52a2.15,2.15,0,0,1,2.55-1.64l9.92,2.14A2.15,2.15,0,0,1,315.86,87l-.11.52A2.15,2.15,0,0,1,313.65,89.18Zm-9.81-6a1.14,1.14,0,0,0-1.12.9l-.11.52a1.14,1.14,0,0,0,.87,1.36l9.93,2.15h0a1.14,1.14,0,0,0,1.36-.88l.11-.52a1.09,1.09,0,0,0-.16-.86,1.13,1.13,0,0,0-.72-.5l-9.92-2.14A1,1,0,0,0,303.84,83.23Z" fill="#231f20"/><path d="M313.44,88.68c-.31,1.4-2.84,2-5.65,1.44s-4.85-2.24-4.55-3.65Z" fill="#fff"/><path d="M309.84,90.85a10.5,10.5,0,0,1-2.16-.24c-3.13-.68-5.29-2.54-4.93-4.24a.52.52,0,0,1,.22-.32.5.5,0,0,1,.38-.06l10.19,2.2a.49.49,0,0,1,.38.59C313.65,90.08,312,90.85,309.84,90.85Zm-6.06-3.75c.32.92,1.85,2,4.12,2.53s4.12.1,4.79-.6Z" fill="#231f20"/><path d="M313.52,79.29h0a.5.5,0,0,1-.47-.53,41.71,41.71,0,0,1,1.6-9.35,12.43,12.43,0,0,1-3.87-.53,48,48,0,0,1-2.07,8.63l-.11.36a.5.5,0,0,1-1-.3l.11-.36a46.34,46.34,0,0,0,2.06-8.67,11.69,11.69,0,0,1-4.6-3.22,6.46,6.46,0,0,1-1.62-3,3.66,3.66,0,0,1,1-3.42,3.46,3.46,0,0,1,5,.84,13.88,13.88,0,0,1,1.28,6c0,.72,0,1.45,0,2.17a11.38,11.38,0,0,0,4.1.53,1,1,0,0,1,.05-.16l.1-.3c.81-2.37,1.81-5.32,4-6.87a3.5,3.5,0,0,1,2.76-.71A1.76,1.76,0,0,1,323,61.61a5.18,5.18,0,0,1-1,4.62,8.21,8.21,0,0,1-3.87,2.57,11.28,11.28,0,0,1-2.42.54A39.73,39.73,0,0,0,314,78.83.5.5,0,0,1,313.52,79.29Zm7.72-18a3,3,0,0,0-1.57.63c-1.91,1.36-2.86,4.14-3.62,6.37v0a11.76,11.76,0,0,0,1.75-.43,7.19,7.19,0,0,0,3.4-2.25,4.17,4.17,0,0,0,.83-3.7c-.15-.49-.4-.58-.49-.6A.84.84,0,0,0,321.24,61.26Zm-14.58-2.12a2.15,2.15,0,0,0-1.41.48,2.69,2.69,0,0,0-.71,2.48,5.61,5.61,0,0,0,1.39,2.57,11,11,0,0,0,3.94,2.83c0-.59,0-1.17,0-1.76a13,13,0,0,0-1.15-5.54,2.25,2.25,0,0,0-1.61-1A2.56,2.56,0,0,0,306.66,59.14Z" fill="#231f20"/><path d="M281.64,77.89a.5.5,0,0,1-.49-.4.49.49,0,0,1,.39-.59L293,74.48a.51.51,0,0,1,.59.38.52.52,0,0,1-.39.6l-11.45,2.42Z" fill="#d1d3d4"/><path d="M298.35,41.65a.55.55,0,0,1-.34-.13L290.87,35a.5.5,0,0,1,.67-.74l7.15,6.51a.5.5,0,0,1-.34.87Z" fill="#d1d3d4"/><path d="M338.33,52.29a.5.5,0,0,1-.14-1l10.33-2.81a.5.5,0,1,1,.26,1l-10.32,2.82Z" fill="#d1d3d4"/><path d="M334.48,94.31a.48.48,0,0,1-.37-.17l-6.2-6.91a.5.5,0,0,1,.75-.67l6.19,6.91a.5.5,0,0,1,0,.71A.46.46,0,0,1,334.48,94.31Z" fill="#d1d3d4"/><path d="M319.37,37.17h-.08a.51.51,0,0,1-.42-.58l1.32-8.07a.5.5,0,1,1,1,.16l-1.31,8.07A.49.49,0,0,1,319.37,37.17Z" fill="#d1d3d4"/><path d="M288.4,59.14h-.11l-9.94-2.07a.5.5,0,1,1,.2-1l9.95,2.07a.51.51,0,0,1,.39.59A.5.5,0,0,1,288.4,59.14Z" fill="#d1d3d4"/><path d="M348,71.93h-.11l-9-2.12a.49.49,0,0,1-.37-.6.5.5,0,0,1,.6-.37l9,2.12a.5.5,0,0,1-.12,1Z" fill="#d1d3d4"/></svg>