<svg xmlns="http://www.w3.org/2000/svg" viewBox="0 0 400 300"><g id="_46_graphic_chart" data-name="#46_graphic_chart"><path d="M70.27,125.43h-1.5a.5.5,0,0,1-.5-.5.51.51,0,0,1,.5-.5h1.5a.5.5,0,0,1,.5.5A.5.5,0,0,1,70.27,125.43Z" fill="#d1d3d4"/><path d="M289.52,125.43h-3a.5.5,0,0,1-.5-.5.51.51,0,0,1,.5-.5h3a.51.51,0,0,1,.5.5A.5.5,0,0,1,289.52,125.43Zm-5.93,0h-3a.5.5,0,0,1-.5-.5.5.5,0,0,1,.5-.5h3a.5.5,0,0,1,.5.5A.5.5,0,0,1,283.59,125.43Zm-5.92,0h-3a.5.5,0,0,1-.5-.5.51.51,0,0,1,.5-.5h3a.51.51,0,0,1,.5.5A.5.5,0,0,1,277.67,125.43Zm-5.93,0h-3a.5.5,0,0,1-.5-.5.5.5,0,0,1,.5-.5h3a.5.5,0,0,1,.5.5A.5.5,0,0,1,271.74,125.43Zm-5.93,0h-3a.5.5,0,0,1-.5-.5.51.51,0,0,1,.5-.5h3a.5.5,0,0,1,.5.5A.5.5,0,0,1,265.81,125.43Zm-5.92,0h-3a.5.5,0,0,1-.5-.5.5.5,0,0,1,.5-.5h3a.5.5,0,0,1,.5.5A.5.5,0,0,1,259.89,125.43Zm-5.93,0h-3a.5.5,0,0,1-.5-.5.5.5,0,0,1,.5-.5h3a.5.5,0,0,1,.5.5A.5.5,0,0,1,254,125.43Zm-5.92,0h-3a.5.5,0,0,1-.5-.5.5.5,0,0,1,.5-.5h3a.51.51,0,0,1,.5.5A.5.5,0,0,1,248,125.43Zm-5.93,0h-3a.5.5,0,0,1-.5-.5.5.5,0,0,1,.5-.5h3a.5.5,0,0,1,.5.5A.5.5,0,0,1,242.11,125.43Zm-5.92,0h-3a.5.5,0,0,1-.5-.5.51.51,0,0,1,.5-.5h3a.51.51,0,0,1,.5.5A.5.5,0,0,1,236.19,125.43Zm-5.93,0h-3a.5.5,0,0,1-.5-.5.5.5,0,0,1,.5-.5h3a.5.5,0,0,1,.5.5A.5.5,0,0,1,230.26,125.43Zm-5.92,0h-3a.5.5,0,0,1-.5-.5.51.51,0,0,1,.5-.5h3a.51.51,0,0,1,.5.5A.5.5,0,0,1,224.34,125.43Zm-5.93,0h-3a.5.5,0,0,1-.5-.5.5.5,0,0,1,.5-.5h3a.5.5,0,0,1,.5.5A.5.5,0,0,1,218.41,125.43Zm-5.93,0h-3a.5.5,0,0,1-.5-.5.51.51,0,0,1,.5-.5h3a.5.5,0,0,1,.5.5A.5.5,0,0,1,212.48,125.43Zm-5.92,0h-3a.5.5,0,0,1-.5-.5.5.5,0,0,1,.5-.5h3a.5.5,0,0,1,.5.5A.5.5,0,0,1,206.56,125.43Zm-5.93,0h-3a.5.5,0,0,1-.5-.5.5.5,0,0,1,.5-.5h3a.5.5,0,0,1,.5.5A.5.5,0,0,1,200.63,125.43Zm-5.92,0h-3a.5.5,0,0,1-.5-.5.5.5,0,0,1,.5-.5h3a.51.51,0,0,1,.5.5A.5.5,0,0,1,194.71,125.43Zm-5.93,0h-3a.5.5,0,0,1-.5-.5.5.5,0,0,1,.5-.5h3a.5.5,0,0,1,.5.5A.5.5,0,0,1,188.78,125.43Zm-5.92,0h-3a.5.5,0,0,1-.5-.5.51.51,0,0,1,.5-.5h3a.51.51,0,0,1,.5.5A.5.5,0,0,1,182.86,125.43Zm-5.93,0h-3a.5.5,0,0,1-.5-.5.5.5,0,0,1,.5-.5h3a.5.5,0,0,1,.5.5A.5.5,0,0,1,176.93,125.43Zm-5.92,0h-3a.5.5,0,0,1-.5-.5.51.51,0,0,1,.5-.5h3a.51.51,0,0,1,.5.5A.5.5,0,0,1,171,125.43Zm-5.93,0h-3a.5.5,0,0,1-.5-.5.5.5,0,0,1,.5-.5h3a.5.5,0,0,1,.5.5A.5.5,0,0,1,165.08,125.43Zm-5.93,0h-3a.5.5,0,0,1-.5-.5.51.51,0,0,1,.5-.5h3a.5.5,0,0,1,.5.5A.5.5,0,0,1,159.15,125.43Zm-5.92,0h-3a.5.5,0,0,1-.5-.5.5.5,0,0,1,.5-.5h3a.5.5,0,0,1,.5.5A.5.5,0,0,1,153.23,125.43Zm-5.93,0h-3a.5.5,0,0,1-.5-.5.5.5,0,0,1,.5-.5h3a.5.5,0,0,1,.5.5A.5.5,0,0,1,147.3,125.43Zm-5.92,0h-3a.5.5,0,0,1-.5-.5.5.5,0,0,1,.5-.5h3a.51.51,0,0,1,.5.5A.5.5,0,0,1,141.38,125.43Zm-5.93,0h-3a.5.5,0,0,1-.5-.5.5.5,0,0,1,.5-.5h3a.5.5,0,0,1,.5.5A.5.5,0,0,1,135.45,125.43Zm-5.92,0h-3a.5.5,0,0,1-.5-.5.51.51,0,0,1,.5-.5h3a.51.51,0,0,1,.5.5A.5.5,0,0,1,129.53,125.43Zm-5.93,0h-3a.5.5,0,0,1-.5-.5.5.5,0,0,1,.5-.5h3a.5.5,0,0,1,.5.5A.5.5,0,0,1,123.6,125.43Zm-5.92,0h-3a.5.5,0,0,1-.5-.5.51.51,0,0,1,.5-.5h3a.51.51,0,0,1,.5.5A.5.5,0,0,1,117.68,125.43Zm-5.93,0h-3a.5.5,0,0,1-.5-.5.5.5,0,0,1,.5-.5h3a.5.5,0,0,1,.5.5A.5.5,0,0,1,111.75,125.43Zm-5.92,0h-3a.5.5,0,0,1-.5-.5.51.51,0,0,1,.5-.5h3a.51.51,0,0,1,.5.5A.5.5,0,0,1,105.83,125.43Zm-5.93,0h-3a.5.5,0,0,1-.5-.5.5.5,0,0,1,.5-.5h3a.5.5,0,0,1,.5.5A.5.5,0,0,1,99.9,125.43Zm-5.93,0H91a.5.5,0,0,1-.5-.5.5.5,0,0,1,.5-.5h3a.5.5,0,0,1,.5.5A.5.5,0,0,1,94,125.43Zm-5.92,0h-3a.5.5,0,0,1-.5-.5.5.5,0,0,1,.5-.5h3a.5.5,0,0,1,.5.5A.5.5,0,0,1,88.05,125.43Zm-5.93,0h-3a.5.5,0,0,1-.5-.5.5.5,0,0,1,.5-.5h3a.5.5,0,0,1,.5.5A.5.5,0,0,1,82.12,125.43Zm-5.92,0h-3a.5.5,0,0,1-.5-.5.51.51,0,0,1,.5-.5h3a.51.51,0,0,1,.5.5A.5.5,0,0,1,76.2,125.43Z" fill="#d1d3d4"/><path d="M294,125.43h-1.5a.5.5,0,0,1-.5-.5.5.5,0,0,1,.5-.5H294a.5.5,0,0,1,.5.5A.5.5,0,0,1,294,125.43Z" fill="#d1d3d4"/><path d="M302.82,44.36s10.23-3.58,9-4.94-5.29,0-5.29,0S312.9,35,312,32.94s-12.55,7-12.55,7" fill="#fff"/><path d="M302.82,44.86a.5.5,0,0,1-.17-1c4-1.39,8.39-3.38,8.78-4.19-.76-.74-3.27-.28-4.7.19a.49.49,0,0,1-.61-.25.5.5,0,0,1,.16-.63c2.42-1.69,5.75-4.73,5.22-5.86-.77-.46-6.18,2.8-11.79,7.18a.51.51,0,0,1-.7-.09.5.5,0,0,1,.09-.7c1.7-1.33,10.3-7.93,12.61-7.37a1,1,0,0,1,.7.56c.75,1.62-1.74,4.08-3.68,5.67,1.29-.17,2.77-.15,3.5.69a.86.86,0,0,1,.19.81c-.44,1.67-7.34,4.2-9.44,4.94A.44.44,0,0,1,302.82,44.86Z" fill="#231f20"/><path d="M203.75,87.82S197,92,196.84,91.13s2-3.31,2-3.31-8.19,1.54-9.22.77S191,85.52,192.75,85s11.89-3.07,11.89-3.07" fill="#fff"/><path d="M197,91.74a.7.7,0,0,1-.29-.06.66.66,0,0,1-.36-.48c-.09-.67.6-1.76,1.28-2.64-2.87.49-7.33,1.12-8.24.43a1.12,1.12,0,0,1-.43-1.17c.23-1.28,2.21-2.88,3.66-3.29,1.78-.51,11.5-3,11.91-3.08a.5.5,0,1,1,.25,1c-.1,0-10.12,2.56-11.89,3.07A5,5,0,0,0,189.93,88c0,.14,0,.17,0,.19.61.37,5.05-.15,8.82-.86a.51.51,0,0,1,.47.83,12.92,12.92,0,0,0-1.81,2.49,46.18,46.18,0,0,0,6-3.25.48.48,0,0,1,.68.16.49.49,0,0,1-.16.69C199.09,91.28,197.55,91.74,197,91.74Z" fill="#231f20"/><polygon points="68.77 256.06 140.29 187.36 191.21 191.86 224 166.68 202.85 142.11 301.59 126.53 258.78 213.31 240.51 191 191.58 221.53 139.91 214.61 68.77 256.06" fill="#cdcd32"/><path d="M269.19,96.53s20.05,15.54,20.61,20.37S287,145.16,287,145.16l-13.49,2.23s4.38-26.79,3.08-27.8-15.8-11-15.8-11-3.67,20.33-6,25.46C253.2,137.63,240,153.34,240,153.34l-12.24-1.86s11.33-19.89,12.64-24,2.21-26,2.21-26Z" fill="#231f20"/><path d="M240,153.84h-.07L227.63,152a.49.49,0,0,1-.37-.27.52.52,0,0,1,0-.47c.12-.2,11.33-19.89,12.6-23.88s2.18-25.68,2.19-25.89a.49.49,0,0,1,.41-.47L269.1,96a.51.51,0,0,1,.4.09c.82.64,20.22,15.73,20.79,20.71s-2.65,27.43-2.79,28.39a.49.49,0,0,1-.41.42l-13.49,2.23a.52.52,0,0,1-.43-.14.46.46,0,0,1-.14-.43c2-12.38,3.83-26.18,3.2-27.4-1.06-.81-12.27-8.58-15.08-10.53-.7,3.8-3.8,20.2-5.87,24.83-1.63,3.64-14.4,18.81-14.95,19.45A.49.49,0,0,1,240,153.84ZM228.5,151.1l11.25,1.71c1.59-1.89,13.15-15.72,14.62-19,2.25-5,5.9-25.15,5.94-25.35a.48.48,0,0,1,.3-.37.47.47,0,0,1,.47,0c.59.41,14.53,10.06,15.83,11.06s-1.13,17.41-2.79,27.6l12.45-2.06c.42-3,3.24-23.38,2.73-27.77-.43-3.76-14.58-15.5-20.24-19.9l-26,4.83c-.13,3.08-1,21.91-2.22,25.76S230.47,147.62,228.5,151.1Z" fill="#231f20"/><path d="M269.19,96.53l-26.63,5,6.62-39.34s13.4-.5,15.79.88S269.19,96.53,269.19,96.53Z" fill="#fff"/><path d="M242.56,102a.47.47,0,0,1-.35-.15.48.48,0,0,1-.14-.44l6.62-39.33a.51.51,0,0,1,.47-.42c1.39,0,13.61-.46,16.06,1,.61.35,2.76,3.84,4.47,33.91a.5.5,0,0,1-.41.52l-26.63,5Zm7.05-39.35-6.44,38.22,25.5-4.73c-.9-15.41-2.61-31.73-4-32.67C262.92,62.42,253.57,62.5,249.61,62.63Z" fill="#231f20"/><path d="M254.77,58.83c-.43.21,0,6,0,6.56,0,4.86.17,9.84,0,14.67-.36,9.57-7.24,18.88-12.39,26.48a5.38,5.38,0,0,1-2.62,2.44,4.86,4.86,0,0,1-2.59-.11,26.29,26.29,0,0,1-9.91-4.78,2.6,2.6,0,0,1-.95-1.11,2.8,2.8,0,0,1,.59-2.22,107.07,107.07,0,0,0,12-28C241,64.84,247.91,62.11,254.77,58.83Z" fill="#cdcd32"/><path d="M272.12,55.2c.16,0,.8,16.66.86,17.33.42,5-1.73,15.88-4.18,20.2.13-5.48-2.7-12.55-5.07-17.4-1.16-2.36-1.4-7.45-1.66-10.06,0-.25-.72-6-.85-6S267.88,54.39,272.12,55.2Z" fill="#cdcd32"/><path d="M260.93,57.71l1.06,5.2s-.19,2.52-3.84,2.42S253.48,63,253.48,63l-1.63-9.78s1.87-1.94-.08-7.37a29.28,29.28,0,0,0,10.73-1.25,84.83,84.83,0,0,1,1.58,9.08C264.23,56.41,260.93,57.71,260.93,57.71Z" fill="#fff"/><path d="M258.36,65.83h-.22c-3.92-.11-5.07-2.57-5.11-2.67a.5.5,0,0,1,0-.13l-1.63-9.78a.5.5,0,0,1,.13-.43s1.6-1.85-.19-6.85a.52.52,0,0,1,.07-.48.53.53,0,0,1,.44-.19,28.92,28.92,0,0,0,10.53-1.22.47.47,0,0,1,.4,0,.49.49,0,0,1,.25.33,83,83,0,0,1,1.59,9.17c.14,2.52-2.14,3.92-3.08,4.39l1,4.81a.33.33,0,0,1,0,.14S262.23,65.83,258.36,65.83Zm-4.4-3c.17.32,1.19,2,4.21,2,2.81.09,3.26-1.55,3.32-1.9l-1.05-5.12a.5.5,0,0,1,.31-.57s3-1.2,2.83-3.58a75,75,0,0,0-1.45-8.46,29.48,29.48,0,0,1-9.65,1.14c1.34,4.25.33,6.33-.1,7Z" fill="#231f20"/><path d="M253.43,52.54a2.3,2.3,0,0,0-1-1,4.21,4.21,0,0,0-1.35-.35,1.62,1.62,0,0,0-.76,0,1.3,1.3,0,0,0-.46.28,1.8,1.8,0,0,0-.65,1.06,2.16,2.16,0,0,0,.17,1,4.64,4.64,0,0,0,.49,1,2.83,2.83,0,0,0,4,.66" fill="#fff"/><path d="M252.14,56.2a4.55,4.55,0,0,1-.53,0,3.41,3.41,0,0,1-2.17-1.36,5,5,0,0,1-.55-1.12,2.52,2.52,0,0,1-.19-1.24,2.31,2.31,0,0,1,.81-1.37,2.22,2.22,0,0,1,.63-.38,2.19,2.19,0,0,1,1,0,4.41,4.41,0,0,1,1.51.4,2.82,2.82,0,0,1,1.25,1.28.5.5,0,0,1-.9.43,1.81,1.81,0,0,0-.8-.82,3.79,3.79,0,0,0-1.19-.3,1.18,1.18,0,0,0-.53,0,1.07,1.07,0,0,0-.29.19,1.3,1.3,0,0,0-.48.75,1.64,1.64,0,0,0,.14.76,3.8,3.8,0,0,0,.43.88,2.38,2.38,0,0,0,1.51,1,2.32,2.32,0,0,0,1.73-.41.51.51,0,0,1,.7.11.49.49,0,0,1-.11.7A3.31,3.31,0,0,1,252.14,56.2Z" fill="#231f20"/><path d="M258.86,49.17S261.33,51.41,261,52s-1.59.57-1.59.57" fill="#fff"/><path d="M259.45,53.05h0a.5.5,0,0,1-.5-.5.51.51,0,0,1,.51-.5h0a2.09,2.09,0,0,0,1.08-.25,10.14,10.14,0,0,0-2-2.26.5.5,0,0,1,0-.71.49.49,0,0,1,.7,0c2.77,2.5,2.41,3.17,2.27,3.42C261,53,259.75,53.05,259.45,53.05Zm1.1-1.17h0Z" fill="#231f20"/><path d="M260.93,57.71a10.56,10.56,0,0,1-4.11,0,6.51,6.51,0,0,0,4.7,3.16Z" fill="#231f20"/><path d="M261.52,61.35h0a7,7,0,0,1-5.1-3.42.5.5,0,0,1,.61-.71,9.75,9.75,0,0,0,3.85,0,.49.49,0,0,1,.58.4l.59,3.14a.51.51,0,0,1-.49.59Zm-3.56-3a5.82,5.82,0,0,0,2.94,1.85l-.37-2A13.8,13.8,0,0,1,258,58.4Z" fill="#231f20"/><path d="M248.17,51a.48.48,0,0,1-.46-.32,6.71,6.71,0,0,1,1.34-7l.08-.09a1.48,1.48,0,0,0,.31-.38,1.4,1.4,0,0,0,.11-.36l0-.13A6,6,0,0,1,252.73,39a12.6,12.6,0,0,1,4.56-1.19A10,10,0,0,1,261,38a4.37,4.37,0,0,1,3,2.48,3,3,0,0,1-1.25,3.72.5.5,0,0,1-.45-.9,2,2,0,0,0,.77-2.46,3.4,3.4,0,0,0-2.33-1.87,9,9,0,0,0-3.35-.1,12.19,12.19,0,0,0-4.21,1.08,5,5,0,0,0-2.64,3l0,.11a2.45,2.45,0,0,1-.19.58,2.62,2.62,0,0,1-.48.63l-.07.07a5.83,5.83,0,0,0-1.15,6,.49.49,0,0,1-.27.65A.72.72,0,0,1,248.17,51Z" fill="#231f20"/><path d="M255,48.82a1.26,1.26,0,0,1,2.15-.25" fill="#fff"/><path d="M255,49.32a.44.44,0,0,1-.22,0,.49.49,0,0,1-.22-.67,1.73,1.73,0,0,1,2.93-.4.5.5,0,0,1-.67.74c-.22-.19-.54-.42-.81-.36a1,1,0,0,0-.56.47A.5.5,0,0,1,255,49.32Z" fill="#231f20"/><path d="M260.05,48.63s.38-1.89,1.9-.69" fill="#fff"/><path d="M260.05,49.13H260a.49.49,0,0,1-.39-.58,2,2,0,0,1,1.05-1.42,1.67,1.67,0,0,1,1.65.43.49.49,0,0,1,.08.7.5.5,0,0,1-.7.08c-.29-.23-.54-.33-.68-.28s-.37.45-.42.68A.5.5,0,0,1,260.05,49.13Z" fill="#231f20"/><path d="M262.58,52.55s-3.51,5.69-6.35.38" fill="#fff"/><path d="M259,55.7h-.08c-1.21,0-2.26-.89-3.14-2.53a.51.51,0,0,1,.2-.68.5.5,0,0,1,.68.21c.7,1.3,1.47,2,2.29,2H259c1.36,0,2.73-1.73,3.15-2.41a.49.49,0,0,1,.68-.16.5.5,0,0,1,.17.69C262.93,52.94,261.2,55.7,259,55.7Z" fill="#231f20"/><polygon points="249.18 62.14 202.09 81.68 202.09 89.11 242.56 80.27 249.18 62.14" fill="#cdcd32"/><path d="M259.17,66.21l-2,2,1.64,1.13S257.06,82.16,251,84s-8.43,1.2-8.43,1.2l-3.35,4.34s5.21,1.49,5.58,1.61,11.4-2.44,13.14-9.28a71,71,0,0,0,2-12.28l1.1-1.38Z" fill="#231f20"/><path d="M252.44,79.43a.49.49,0,0,1-.4-.2l-5.13-7a.49.49,0,0,1,0-.64l2.92-3-3.62-.94a.51.51,0,0,1-.35-.35.5.5,0,0,1,.11-.48l4.7-5a.5.5,0,0,1,.71,0,.49.49,0,0,1,0,.7l-4.12,4.42,3.63.95a.5.5,0,0,1,.23.83L248,72l4.88,6.64a.5.5,0,0,1-.1.7A.55.55,0,0,1,252.44,79.43Z" fill="#231f20"/><path d="M233.88,100.92a.5.5,0,0,1-.13-1c3.18-.86,9-2.59,9-2.6a.5.5,0,1,1,.28,1c-.06,0-5.86,1.74-9.06,2.6Z" fill="#231f20"/><path d="M236.27,81.6l-.12,0a.5.5,0,0,1-.37-.6c0-.08,1.81-7.6,2.95-11.56a.51.51,0,0,1,.62-.34.49.49,0,0,1,.34.62c-1.13,3.94-2.92,11.44-2.94,11.51A.5.5,0,0,1,236.27,81.6Z" fill="#231f20"/><path d="M263.73,57.67l35.71-19.44,6.28,6.32L269.19,68.2Z" fill="#cdcd32"/><path d="M272.84,70.06h0a.52.52,0,0,1-.46-.54c0-.09.71-8.56-1.2-11.56a.5.5,0,1,1,.84-.54c2.09,3.28,1.39,11.82,1.36,12.18A.5.5,0,0,1,272.84,70.06Z" fill="#231f20"/><path d="M266.11,74.42a.47.47,0,0,1-.17,0,.49.49,0,0,1-.3-.64l2.89-8.06L265,64.84a.5.5,0,0,1-.31-.75L267,60.36l-3-.6a.5.5,0,1,1,.2-1l3.76.75a.49.49,0,0,1,.36.29.47.47,0,0,1,0,.46L265.91,64l3.4.82a.45.45,0,0,1,.32.25.47.47,0,0,1,0,.4l-3.08,8.59A.52.52,0,0,1,266.11,74.42Z" fill="#231f20"/><path d="M260,96h0a.5.5,0,0,1-.49-.51c0-.13.24-13.2.1-20.11a.5.5,0,0,1,1,0c.14,6.93-.09,20-.1,20.15A.49.49,0,0,1,260,96Z" fill="#d1d3d4"/><path d="M227.71,151.48l-3.88,7s23.2,5.8,22.69,2.9-6.57-8-6.57-8Z" fill="#fff"/><path d="M244.27,162.66c-5.46,0-17.7-3-20.56-3.69a.49.49,0,0,1-.33-.28.46.46,0,0,1,0-.44l3.87-7a.47.47,0,0,1,.51-.25L240,152.85a.47.47,0,0,1,.25.11c.25.21,6.2,5.3,6.73,8.34a.92.92,0,0,1-.29.87A4,4,0,0,1,244.27,162.66Zm-19.68-4.5c9.78,2.41,20.6,4.33,21.45,3.28-.39-2.15-4.58-6.15-6.3-7.63L228,152Z" fill="#231f20"/><path d="M273.52,147.39l-1.25,7.34s22.7-4.06,21.68-7.34-6.94-2.23-6.94-2.23" fill="#fff"/><path d="M272.27,155.23a.5.5,0,0,1-.35-.14.52.52,0,0,1-.15-.44l1.25-7.34a.5.5,0,0,1,.58-.41.49.49,0,0,1,.41.57l-1.13,6.65c7.82-1.45,19.26-4.21,20.52-6.3.1-.16.08-.25.07-.28-.88-2.82-6.32-1.9-6.37-1.89a.5.5,0,0,1-.58-.4.49.49,0,0,1,.4-.58c.26,0,6.36-1.09,7.5,2.57a1.29,1.29,0,0,1-.16,1.1c-2,3.23-19.87,6.52-21.91,6.89Z" fill="#231f20"/><path d="M140.1,256.62a.5.5,0,0,1-.5-.5v-3a.5.5,0,0,1,1,0v3A.5.5,0,0,1,140.1,256.62Zm0-6a.5.5,0,0,1-.5-.5v-3a.5.5,0,0,1,1,0v3A.5.5,0,0,1,140.1,250.62Zm0-6a.5.5,0,0,1-.5-.5v-3a.5.5,0,0,1,1,0v3A.5.5,0,0,1,140.1,244.62Zm0-6a.5.5,0,0,1-.5-.5v-3a.5.5,0,0,1,1,0v3A.5.5,0,0,1,140.1,238.62Zm0-6a.5.5,0,0,1-.5-.5v-3a.5.5,0,0,1,1,0v3A.5.5,0,0,1,140.1,232.62Z" fill="#d1d3d4"/><path d="M191.39,256.56a.5.5,0,0,1-.5-.5.52.52,0,0,1,.5-.51.49.49,0,0,1,.5.49v0A.5.5,0,0,1,191.39,256.56Zm0-3a.5.5,0,0,1-.5-.5v-3a.51.51,0,0,1,.5-.5.5.5,0,0,1,.5.5v3A.5.5,0,0,1,191.39,253.54Zm0-6a.5.5,0,0,1-.5-.5v-3a.51.51,0,0,1,.5-.5.5.5,0,0,1,.5.5v3A.5.5,0,0,1,191.39,247.54Zm0-6a.5.5,0,0,1-.5-.5v-3a.51.51,0,0,1,.5-.5.5.5,0,0,1,.5.5v3A.5.5,0,0,1,191.39,241.54Zm0-6a.5.5,0,0,1-.5-.5v-3a.51.51,0,0,1,.5-.5.5.5,0,0,1,.5.5v3A.5.5,0,0,1,191.39,235.54Z" fill="#d1d3d4"/><path d="M242.69,256.56a.5.5,0,0,1-.5-.5v-1a.5.5,0,0,1,.5-.5.51.51,0,0,1,.5.5v1A.5.5,0,0,1,242.69,256.56Zm0-4a.5.5,0,0,1-.5-.5v-3a.5.5,0,0,1,.5-.5.51.51,0,0,1,.5.5v3A.5.5,0,0,1,242.69,252.6Zm0-6a.5.5,0,0,1-.5-.5v-3a.5.5,0,0,1,.5-.5.51.51,0,0,1,.5.5v3A.5.5,0,0,1,242.69,246.6Zm0-6a.5.5,0,0,1-.5-.5v-3a.5.5,0,0,1,.5-.5.51.51,0,0,1,.5.5v3A.5.5,0,0,1,242.69,240.6Zm0-6a.5.5,0,0,1-.5-.5v-3a.5.5,0,0,1,.5-.5.51.51,0,0,1,.5.5v3A.5.5,0,0,1,242.69,234.6Zm0-6a.5.5,0,0,1-.5-.5v-3a.5.5,0,0,1,.5-.5.51.51,0,0,1,.5.5v3A.5.5,0,0,1,242.69,228.6Zm0-6a.5.5,0,0,1-.5-.5v-3a.5.5,0,0,1,.5-.5.51.51,0,0,1,.5.5v3A.5.5,0,0,1,242.69,222.6Zm0-6a.5.5,0,0,1-.5-.5v-3a.5.5,0,0,1,.5-.5.51.51,0,0,1,.5.5v3A.5.5,0,0,1,242.69,216.6Zm0-6a.5.5,0,0,1-.5-.5v-3a.5.5,0,0,1,.5-.5.51.51,0,0,1,.5.5v3A.5.5,0,0,1,242.69,210.6Zm0-6a.5.5,0,0,1-.5-.5v-3a.5.5,0,0,1,.5-.5.51.51,0,0,1,.5.5v3A.5.5,0,0,1,242.69,204.6Z" fill="#d1d3d4"/><path d="M294,256.56a.5.5,0,0,1-.5-.5v-1.6a.5.5,0,0,1,1,0v1.6A.5.5,0,0,1,294,256.56Zm0-4.6a.5.5,0,0,1-.5-.5v-3a.5.5,0,0,1,1,0v3A.5.5,0,0,1,294,252Zm0-6a.5.5,0,0,1-.5-.5v-3a.5.5,0,0,1,1,0v3A.5.5,0,0,1,294,246Zm0-6a.5.5,0,0,1-.5-.5v-3a.5.5,0,0,1,1,0v3A.5.5,0,0,1,294,240Zm0-6a.5.5,0,0,1-.5-.5v-3a.5.5,0,0,1,1,0v3A.5.5,0,0,1,294,234Zm0-6a.5.5,0,0,1-.5-.5v-3a.5.5,0,0,1,1,0v3A.5.5,0,0,1,294,228Zm0-6a.5.5,0,0,1-.5-.5v-3a.5.5,0,0,1,1,0v3A.5.5,0,0,1,294,222Zm0-6a.5.5,0,0,1-.5-.5v-3a.5.5,0,0,1,1,0v3A.5.5,0,0,1,294,216Zm0-6a.5.5,0,0,1-.5-.5v-3a.5.5,0,0,1,1,0v3A.5.5,0,0,1,294,210Zm0-6a.5.5,0,0,1-.5-.5v-3a.5.5,0,0,1,1,0v3A.5.5,0,0,1,294,204Zm0-6a.5.5,0,0,1-.5-.5v-3a.5.5,0,0,1,1,0v3A.5.5,0,0,1,294,198Zm0-6a.5.5,0,0,1-.5-.5v-3a.5.5,0,0,1,1,0v3A.5.5,0,0,1,294,192Zm0-6a.5.5,0,0,1-.5-.5v-3a.5.5,0,0,1,1,0v3A.5.5,0,0,1,294,186Zm0-6a.5.5,0,0,1-.5-.5v-3a.5.5,0,0,1,1,0v3A.5.5,0,0,1,294,180Zm0-6a.5.5,0,0,1-.5-.5v-3a.5.5,0,0,1,1,0v3A.5.5,0,0,1,294,174Zm0-6a.5.5,0,0,1-.5-.5v-3a.5.5,0,0,1,1,0v3A.5.5,0,0,1,294,168Z" fill="#d1d3d4"/><path d="M204,165h-3a.5.5,0,0,1-.5-.5.5.5,0,0,1,.5-.5h3a.5.5,0,0,1,.5.5A.5.5,0,0,1,204,165Zm-6,0h-3a.5.5,0,0,1-.5-.5.5.5,0,0,1,.5-.5h3a.5.5,0,0,1,.5.5A.5.5,0,0,1,198,165Zm-6,0h-3a.5.5,0,0,1-.5-.5.5.5,0,0,1,.5-.5h3a.5.5,0,0,1,.5.5A.5.5,0,0,1,192,165Zm-6,0h-3a.5.5,0,0,1-.5-.5.5.5,0,0,1,.5-.5h3a.5.5,0,0,1,.5.5A.5.5,0,0,1,186,165Zm-6,0h-3a.5.5,0,0,1-.5-.5.5.5,0,0,1,.5-.5h3a.5.5,0,0,1,.5.5A.5.5,0,0,1,180,165Zm-6,0h-3a.5.5,0,0,1-.5-.5.5.5,0,0,1,.5-.5h3a.5.5,0,0,1,.5.5A.5.5,0,0,1,174,165Zm-6,0h-3a.5.5,0,0,1-.5-.5.5.5,0,0,1,.5-.5h3a.5.5,0,0,1,.5.5A.5.5,0,0,1,168,165Zm-6,0h-3a.5.5,0,0,1-.5-.5.5.5,0,0,1,.5-.5h3a.5.5,0,0,1,.5.5A.5.5,0,0,1,162,165Zm-6,0h-3a.5.5,0,0,1-.5-.5.5.5,0,0,1,.5-.5h3a.5.5,0,0,1,.5.5A.5.5,0,0,1,156,165Zm-6,0h-3a.5.5,0,0,1-.5-.5.5.5,0,0,1,.5-.5h3a.5.5,0,0,1,.5.5A.5.5,0,0,1,150,165Zm-6,0h-3a.5.5,0,0,1-.5-.5.5.5,0,0,1,.5-.5h3a.5.5,0,0,1,.5.5A.5.5,0,0,1,144,165Zm-6,0h-3a.5.5,0,0,1-.5-.5.5.5,0,0,1,.5-.5h3a.5.5,0,0,1,.5.5A.5.5,0,0,1,138,165Zm-6,0h-3a.5.5,0,0,1-.5-.5.5.5,0,0,1,.5-.5h3a.5.5,0,0,1,.5.5A.5.5,0,0,1,132,165Zm-6,0h-3a.5.5,0,0,1-.5-.5.5.5,0,0,1,.5-.5h3a.5.5,0,0,1,.5.5A.5.5,0,0,1,126,165Zm-6,0h-3a.5.5,0,0,1-.5-.5.5.5,0,0,1,.5-.5h3a.5.5,0,0,1,.5.5A.5.5,0,0,1,120,165Zm-6,0h-3a.5.5,0,0,1-.5-.5.5.5,0,0,1,.5-.5h3a.5.5,0,0,1,.5.5A.5.5,0,0,1,114,165Zm-6,0h-3a.5.5,0,0,1-.5-.5.5.5,0,0,1,.5-.5h3a.5.5,0,0,1,.5.5A.5.5,0,0,1,108,165Zm-6,0H99a.5.5,0,0,1-.5-.5.5.5,0,0,1,.5-.5h3a.5.5,0,0,1,.5.5A.5.5,0,0,1,102,165Zm-6,0H93a.5.5,0,0,1-.5-.5.5.5,0,0,1,.5-.5h3a.5.5,0,0,1,.5.5A.5.5,0,0,1,96,165Zm-6,0H87a.5.5,0,0,1-.5-.5.5.5,0,0,1,.5-.5h3a.5.5,0,0,1,.5.5A.5.5,0,0,1,90,165Zm-6,0H81a.5.5,0,0,1-.5-.5.5.5,0,0,1,.5-.5h3a.5.5,0,0,1,.5.5A.5.5,0,0,1,84,165Zm-6,0H75a.5.5,0,0,1-.5-.5.5.5,0,0,1,.5-.5h3a.5.5,0,0,1,.5.5A.5.5,0,0,1,78,165Zm-6,0H69a.5.5,0,0,1-.5-.5.5.5,0,0,1,.5-.5h3a.5.5,0,0,1,.5.5A.5.5,0,0,1,72,165Z" fill="#d1d3d4"/><path d="M331.75,256.52h-263a.47.47,0,0,1-.46-.46V81.1a.46.46,0,0,1,.92,0V255.61H331.75a.46.46,0,0,1,.46.45A.47.47,0,0,1,331.75,256.52Z" fill="#231f20"/><path d="M318.85,208.38a7.75,7.75,0,0,0-.89-4.19,31.87,31.87,0,0,1-1.88-2.65c-.8-1.7-.24-3.71-.43-5.58a6.9,6.9,0,0,0-2-4.15c-1-1-2.23-1.67-3.17-2.7-1.53-1.69-2-4.07-2.84-6.18a15.41,15.41,0,0,0-6.12-7.2c1.67,3.36-2.13,7.63-.41,11,.55,1.06,1.59,1.82,2,2.94,1,2.71-2.25,5.63-1.22,8.31.51,1.34,1.94,2.11,2.61,3.38.9,1.72.19,3.79.27,5.72.1,2.67,1.72,5.05,3.65,6.9,1.2,1.15,2.53,2.14,3.83,3.18,1.55,1.24,2.2,2.55,3.57.55A17.15,17.15,0,0,0,318.85,208.38Z" fill="#231f20"/><path d="M320.58,209.91c-.5-2.06-.85-4.3,0-6.25.95-2.2,3.32-3.75,3.59-6.13.18-1.56-.61-3.14-.3-4.68s1.57-2.59,2.61-3.73a15.57,15.57,0,0,0,4-9.53,24,24,0,0,1,3.84,6.34,8.17,8.17,0,0,1-.56,7.16,6.17,6.17,0,0,0-1,1.58c-.47,1.52.83,2.94,1.5,4.38a5,5,0,0,1-.47,5.17c-1.36,1.69-4,2.36-4.66,4.43a10.16,10.16,0,0,0-.23,2.34,6.9,6.9,0,0,1-5,5.92c-1.61.39-1.58-.25-1.87-1.6C321.72,213.49,321,211.73,320.58,209.91Z" fill="#231f20"/><path d="M315.45,195.08c-1.14-4-1.6-8.1-2.81-12a65.23,65.23,0,0,0-3.75-9l4.92,2.07c1.57.66,3.28,1.45,4,3,1.29,2.68-1,6.11.33,8.76a21.5,21.5,0,0,0,1.94,2.45c1.45,2,1.23,4.82.43,7.18-.34,1-1.83,6.28-3.16,4.82-.53-.59-.58-2.77-.8-3.57C316.23,197.53,315.81,196.31,315.45,195.08Z" fill="#231f20"/><path d="M318.06,247.71c-1-6.47-4.05-29.29-4.08-29.52l1-.13c0,.23,3.1,23,4.08,29.51Z" fill="#231f20"/><path d="M319.36,253.82h-1c.06-7.69,3.28-37.11,5.13-39.14l.74.68C322.82,216.89,319.42,245.28,319.36,253.82Z" fill="#231f20"/><path d="M321,252.36l-1-.05c.73-16.57-2.78-51.37-2.82-51.72l1-.1C318.24,200.84,321.76,235.71,321,252.36Z" fill="#231f20"/><path d="M309.72,229.15H328l-1.28,20.77c-.22,3.6-2.89,6.39-6.1,6.39h-3.54c-3.21,0-5.87-2.79-6.09-6.39Z" fill="#fff"/><path d="M320.63,256.82h-3.54c-3.47,0-6.37-3-6.61-6.87l-1.28-20.77a.51.51,0,0,1,.52-.54H328a.47.47,0,0,1,.37.16.49.49,0,0,1,.14.38L327.24,250C327,253.81,324.1,256.82,320.63,256.82Zm-10.36-27.15,1.24,20.22c.21,3.31,2.66,5.9,5.58,5.9h3.54c2.93,0,5.38-2.59,5.58-5.9l1.25-20.22Z" fill="#231f20"/><path d="M115.82,198.56h-2.11a.5.5,0,0,1-.5-.5.51.51,0,0,1,.5-.5h2.11a.5.5,0,0,1,.5.5A.5.5,0,0,1,115.82,198.56Zm-5.11,0h-3a.5.5,0,0,1-.5-.5.51.51,0,0,1,.5-.5h3a.5.5,0,0,1,.5.5A.5.5,0,0,1,110.71,198.56Zm-6,0h-3a.5.5,0,0,1-.5-.5.51.51,0,0,1,.5-.5h3a.5.5,0,0,1,.5.5A.5.5,0,0,1,104.71,198.56Zm-6,0h-3a.5.5,0,0,1-.5-.5.51.51,0,0,1,.5-.5h3a.5.5,0,0,1,.5.5A.5.5,0,0,1,98.71,198.56Zm-6,0h-3a.5.5,0,0,1-.5-.5.51.51,0,0,1,.5-.5h3a.5.5,0,0,1,.5.5A.5.5,0,0,1,92.71,198.56Zm-6,0h-3a.5.5,0,0,1-.5-.5.51.51,0,0,1,.5-.5h3a.5.5,0,0,1,.5.5A.5.5,0,0,1,86.71,198.56Zm-6,0h-3a.5.5,0,0,1-.5-.5.51.51,0,0,1,.5-.5h3a.5.5,0,0,1,.5.5A.5.5,0,0,1,80.71,198.56Zm-6,0h-3a.5.5,0,0,1-.5-.5.51.51,0,0,1,.5-.5h3a.5.5,0,0,1,.5.5A.5.5,0,0,1,74.71,198.56Z" fill="#d1d3d4"/><path d="M192.88,150.21a.48.48,0,0,1-.34-.14,4.39,4.39,0,0,0-3.12-1.37.45.45,0,0,1-.35-.74l6.47-8a.46.46,0,0,1,.65-.07.44.44,0,0,1,.15.25,3.69,3.69,0,0,0,2.1.24.46.46,0,0,1,.46.2.47.47,0,0,1,0,.5L193.26,150a.43.43,0,0,1-.34.21Zm-2.57-2.34a5.43,5.43,0,0,1,2.48,1.17l4.87-7.69a4.8,4.8,0,0,1-1.75-.4Z" fill="#231f20"/><path d="M126.59,150.46a.5.5,0,0,1-.26-.08.46.46,0,0,1-.2-.38v-2.24a.46.46,0,0,1,.16-.35c2.9-2.51,8.48-2.85,8.72-2.87a.46.46,0,0,1,.34.13.44.44,0,0,1,.14.33v3.69a.46.46,0,0,1-.16.35.47.47,0,0,1-.36.11c-3.77-.54-8.17,1.25-8.21,1.27A.38.38,0,0,1,126.59,150.46ZM127,148v1.37a19.11,19.11,0,0,1,7.54-1.16V145.5C133.21,145.63,129.27,146.17,127,148Z" fill="#231f20"/><path d="M147.61,103l-.1,0c-4.31-1-6.61-6.42-6.71-6.65a.48.48,0,0,1,.11-.51l3-2.81a.48.48,0,0,1,.44-.11.45.45,0,0,1,.31.34c.7,2.94,4.46,5,5.21,5.32a.49.49,0,0,1,.23.28.45.45,0,0,1,0,.36L148,102.75A.45.45,0,0,1,147.61,103Zm-5.83-6.73c.5,1.06,2.47,4.81,5.61,5.74L149,99.14c-1.33-.73-4-2.46-5-5Z" fill="#231f20"/><path d="M102.74,189c-4.08,0-6.33-5.41-6.42-5.64a.43.43,0,0,1,.07-.46l2.06-2.53a.43.43,0,0,1,.48-.15.44.44,0,0,1,.33.38c.37,2.82,2.75,3.6,4.32,4.12.76.25,1.26.42,1.45.8a.46.46,0,0,1,0,.44l-1.69,2.81a.45.45,0,0,1-.37.22Zm-5.47-5.74c.47,1,2.42,4.77,5.4,4.83l1.35-2.25c-.2-.08-.48-.17-.72-.25-1.42-.47-3.92-1.29-4.74-3.91Zm7,2.7h0Z" fill="#231f20"/><path d="M163.62,181.41a.47.47,0,0,1-.35-.17l-1.53-1.91a.47.47,0,0,1-.07-.43c.6-1.81,4.15-4.33,4.55-4.61a.41.41,0,0,1,.39-.06.42.42,0,0,1,.29.26l.95,2.28a.45.45,0,0,1,0,.36.43.43,0,0,1-.26.25c-1.9.69-3.55,3.75-3.56,3.78a.47.47,0,0,1-.36.25Zm-1-2.44.94,1.17a9.85,9.85,0,0,1,3.28-3.43l-.56-1.34C165.14,176.23,163.18,177.84,162.62,179Z" fill="#231f20"/></g></svg>