<svg xmlns="http://www.w3.org/2000/svg" viewBox="0 0 400 300"><g id="_002" data-name="002"><path d="M271.31,177.22l-21.57,78.47s-17,4-16.67,5.06,26.84,4.66,26.84,4.66l26.88-81.32" fill="#fff"/><path d="M259.91,265.92h-.06c-26.79-3.62-27.13-4.63-27.26-5a.65.65,0,0,1,.06-.51c.7-1.26,11.67-3.95,16.68-5.12l21.5-78.18a.5.5,0,0,1,.61-.35.5.5,0,0,1,.35.62l-21.57,78.46a.5.5,0,0,1-.37.36c-6.75,1.57-14,3.54-15.92,4.46,2.89.93,16.67,3,25.64,4.22l26.74-80.93a.51.51,0,0,1,.63-.32.5.5,0,0,1,.32.64l-26.87,81.32A.5.5,0,0,1,259.91,265.92Zm-26.47-5.49Z" fill="#231f20"/><path d="M317.38,173.94,323,265.43s-26.61,5.77-26.71,5.08,14.34-10.95,14.34-10.95l-10.87-84.49" fill="#fff"/><path d="M296.45,271c-.34,0-.41,0-.46-.08a.6.6,0,0,1-.22-.36c-.06-.37-.15-1,14.29-11.26l-10.82-84.2a.5.5,0,0,1,1-.13l10.87,84.49a.52.52,0,0,1-.21.48c-4.44,3.15-11.24,8.12-13.47,10,3.75-.49,16.56-3.13,25-5L316.88,174a.5.5,0,0,1,.47-.53.51.51,0,0,1,.53.47l5.59,91.49a.49.49,0,0,1-.39.52C302.53,270.37,297.69,271,296.45,271Z" fill="#231f20"/><path d="M274.32,97.63c-1.36.43-2.73.84-4.11,1.2a119.62,119.62,0,0,1-33.61,4.28c-3.79-.1-8.85,0-12.32-1.62-2.7-1.28-5.24-3.52-7.73-5.17-.64-.42-1.67-.77-2-.1-.28.51.14,1.11.54,1.52a34.63,34.63,0,0,0,4.69,4,60.82,60.82,0,0,0-9.8-.88.67.67,0,0,0-.42.09c-.37.28.11.82.54,1a19.73,19.73,0,0,0,3.08,1,12,12,0,0,0-3-.52c-.46,0-1,0-1.21.45-.27.59.44,1.14,1.05,1.38a28.17,28.17,0,0,0,3,1,12.19,12.19,0,0,0-3.5.45.92.92,0,0,0-.52.28.8.8,0,0,0-.11.51,2.45,2.45,0,0,0,2,1.85,27.83,27.83,0,0,1,2.87.52c-.88.06-1.75-.26-2.62-.2s-1.85.77-1.66,1.63,1,1,1.8,1.22a165,165,0,0,0,44.86,3.78,168.91,168.91,0,0,0,22.42-2.67c6.69-1.26,13.54-2.34,18.07-7.93a15.27,15.27,0,0,0,1-1.31A6.94,6.94,0,0,0,299,98.32c-1.11-5.41-8.34-4.93-12.46-4.14A111.38,111.38,0,0,0,274.32,97.63Z" fill="#fff"/><path d="M247.36,116a163.77,163.77,0,0,1-36.24-4c-.83-.19-2-.56-2.18-1.61a1.54,1.54,0,0,1,.31-1.28,2.15,2.15,0,0,1,.65-.58,2.57,2.57,0,0,1-1.58-2,1.22,1.22,0,0,1,.2-.86,1.43,1.43,0,0,1,.79-.47c.36-.1.73-.18,1.1-.25l-.64-.25a2.45,2.45,0,0,1-1.34-1.15,1.13,1.13,0,0,1,0-.9,1.22,1.22,0,0,1,.81-.66,1.2,1.2,0,0,1-.36-.68.8.8,0,0,1,.32-.76,1.19,1.19,0,0,1,.72-.19,61.79,61.79,0,0,1,7.92.58,36,36,0,0,1-3.17-2.88c-.94-1-.86-1.68-.62-2.11a1.16,1.16,0,0,1,.77-.59,2.81,2.81,0,0,1,2,.51c.86.57,1.73,1.21,2.57,1.84a33.57,33.57,0,0,0,5.11,3.3c2.95,1.39,7.26,1.47,10.71,1.54l1.4,0a118.45,118.45,0,0,0,33.47-4.26c1.2-.32,2.46-.69,4.09-1.19l2.34-.74a84.4,84.4,0,0,1,9.92-2.73c3.51-.68,11.8-1.58,13,4.53.34,1.64-.17,3.48-1.51,5.46a16.55,16.55,0,0,1-1,1.34c-4.46,5.51-11.1,6.75-17.53,8l-.83.16a168.78,168.78,0,0,1-22.49,2.68Q251.73,116,247.36,116Zm-36.05-6.85h-.19a1.56,1.56,0,0,0-1.08.55.53.53,0,0,0-.12.47c.08.37.54.65,1.42.85a164.2,164.2,0,0,0,44.73,3.76,168.13,168.13,0,0,0,22.35-2.66l.84-.16c6.25-1.17,12.71-2.38,16.94-7.6.33-.4.64-.83.93-1.26a6.37,6.37,0,0,0,1.37-4.71c-1.07-5.23-8.67-4.37-11.88-3.75a83.44,83.44,0,0,0-9.8,2.7l-2.35.74h0c-1.64.51-2.92.88-4.13,1.2a119.08,119.08,0,0,1-33.75,4.3l-1.4,0c-3.55-.07-8-.15-11.12-1.64a32.56,32.56,0,0,1-5.27-3.4c-.87-.64-1.7-1.25-2.53-1.8a1.77,1.77,0,0,0-1.18-.38.21.21,0,0,0-.14.1c-.09.18.09.54.47.94a34.86,34.86,0,0,0,4.62,4,.5.5,0,0,1-.37.9,62,62,0,0,0-9.61-.87.82.82,0,0,0,.2.12,21.41,21.41,0,0,0,2,.71c.34.08.67.17,1,.27a.49.49,0,0,1,.34.6.51.51,0,0,1-.6.36c-.33-.08-.66-.16-1-.26a13,13,0,0,0-2-.26c-.4,0-.68,0-.74.17a.2.2,0,0,0,0,.11,1.54,1.54,0,0,0,.78.59,25.88,25.88,0,0,0,2.93,1,.51.51,0,0,1,.36.56.5.5,0,0,1-.5.42,11.46,11.46,0,0,0-3.35.43.72.72,0,0,0-.26.1h0a.34.34,0,0,0,0,.16c.07.72.88,1.23,1.64,1.41a10.4,10.4,0,0,0,1.16.19,8,8,0,0,1,1.77.35.51.51,0,0,1,.33.54.52.52,0,0,1-.47.43,7.37,7.37,0,0,1-1.42-.1A7.19,7.19,0,0,0,211.31,109.18Zm63-11.55h0Z" fill="#231f20"/><path d="M244.11,255.36l3.6,5.48,14,1.66-1.37,5.37s-30.88-3.86-31.59-6.69S244.11,255.36,244.11,255.36Z" fill="#231f20"/><path d="M281.88,89.48s-9.7,2.31-12.62,8.31.57,38.18.57,38.18l43,1.84s4.41-23.7,2.25-33.86S304.35,80.25,281.88,89.48Z" fill="#cdcd32"/><path d="M283.14,84l-2.76,9s.06,5.32,5.95,4.71a11.79,11.79,0,0,0,8.59-5.36l2.1-16.1a4.78,4.78,0,0,1-1.69-3,7.78,7.78,0,0,1,0-2.68c.06-.34.44-2.33.83-2.4A7,7,0,0,1,290,66.1a13,13,0,0,1-2-3.2,3.34,3.34,0,0,1-.51-2.39q-2.77,1.76-5.37,3.78a14.52,14.52,0,0,0-2.59,2.42c-1.25,1.62-1.59,3.85-1.88,5.82a38.15,38.15,0,0,0-.49,7.08C277.29,84.12,283.14,84,283.14,84Z" fill="#fff"/><path d="M285.41,98.27A5.37,5.37,0,0,1,281.68,97a5.76,5.76,0,0,1-1.75-3.94.34.34,0,0,1,0-.14l2.58-8.44c-2.27-.15-5.73-1.28-5.86-4.85a38.82,38.82,0,0,1,.5-7.16c.28-1.92.63-4.31,2-6a14.58,14.58,0,0,1,2.67-2.5c1.74-1.35,3.56-2.63,5.41-3.81a.47.47,0,0,1,.52,0,.46.46,0,0,1,.16.5,3,3,0,0,0,.48,2.06,12.5,12.5,0,0,0,2,3.09,6.63,6.63,0,0,0,5.75,1.95h0a.46.46,0,0,1,.53.38.47.47,0,0,1-.26.49,8.12,8.12,0,0,0-.57,2.06,7.35,7.35,0,0,0,0,2.52,4.43,4.43,0,0,0,1.5,2.75.45.45,0,0,1,.19.43l-2.09,16.1a.49.49,0,0,1-.06.17,12.13,12.13,0,0,1-8.95,5.58C286,98.25,285.72,98.27,285.41,98.27Zm-4.57-5.16a4.94,4.94,0,0,0,1.45,3.22,5,5,0,0,0,4,1,11.38,11.38,0,0,0,8.2-5l2-15.76a5.31,5.31,0,0,1-1.65-3.15,8.21,8.21,0,0,1,0-2.84,11.85,11.85,0,0,1,.42-1.78,7.49,7.49,0,0,1-5.64-2.31,13.52,13.52,0,0,1-2.11-3.31,5.49,5.49,0,0,1-.61-1.73q-2.35,1.54-4.58,3.27A13.87,13.87,0,0,0,279.86,67c-1.19,1.54-1.51,3.7-1.79,5.61a38.82,38.82,0,0,0-.49,7c.14,4,5.35,4,5.55,4a.45.45,0,0,1,.37.18.47.47,0,0,1,.08.41Zm15.4-24.46h0Z" fill="#231f20"/><path d="M293.85,75a3.26,3.26,0,0,1,1.34-1.59,5.48,5.48,0,0,1,1.86-.64,2.28,2.28,0,0,1,1.07,0,1.87,1.87,0,0,1,.67.35,2.53,2.53,0,0,1,1,1.42,3.17,3.17,0,0,1-.12,1.43,6.12,6.12,0,0,1-.59,1.46,4,4,0,0,1-5.49,1.35" fill="#fff"/><path d="M295.71,79.66a4.37,4.37,0,0,1-2.29-.64.41.41,0,0,1-.14-.55.39.39,0,0,1,.55-.13,3.58,3.58,0,0,0,4.94-1.22,5.73,5.73,0,0,0,.54-1.36,2.52,2.52,0,0,0,.12-1.24,2.15,2.15,0,0,0-.88-1.18,1.49,1.49,0,0,0-.53-.29,2.13,2.13,0,0,0-.89.06,5.28,5.28,0,0,0-1.74.59,2.9,2.9,0,0,0-1.17,1.39.39.39,0,0,1-.51.23.4.4,0,0,1-.23-.52A3.63,3.63,0,0,1,295,73a6.14,6.14,0,0,1,2-.69,2.63,2.63,0,0,1,1.25,0,2.45,2.45,0,0,1,.81.42,2.91,2.91,0,0,1,1.18,1.65,3.48,3.48,0,0,1-.13,1.62,6.39,6.39,0,0,1-.63,1.56,4.39,4.39,0,0,1-2.7,2A4.61,4.61,0,0,1,295.71,79.66Z" fill="#231f20"/><path d="M281.76,88.21a7.47,7.47,0,0,0,6.1-1.12,6.6,6.6,0,0,0,2.91-4.67s-4.46,2.83-8.1,1.57Z" fill="#231f20"/><path d="M283.62,88.88a7.5,7.5,0,0,1-2-.25.44.44,0,0,1-.3-.52l.91-4.21a.46.46,0,0,1,.22-.29.45.45,0,0,1,.36,0c3.39,1.17,7.67-1.5,7.71-1.53a.43.43,0,0,1,.45,0,.43.43,0,0,1,.23.39,7,7,0,0,1-3.09,5A7.5,7.5,0,0,1,283.62,88.88Zm-1.34-1a7,7,0,0,0,5.31-1.14,6.6,6.6,0,0,0,2.57-3.47c-1.42.74-4.41,2-7.16,1.29Z" fill="#231f20"/><path d="M286.73,68.58s-3.73,3.93-3.15,4.82,2.64.72,2.64.72" fill="#fff"/><path d="M285.79,74.58c-.72,0-2.06-.12-2.58-.94-.64-1,1.39-3.46,3.2-5.37a.44.44,0,0,1,.64.61c-1.74,1.84-3.19,3.85-3.09,4.31.31.47,1.63.54,2.22.49a.44.44,0,1,1,.07.88A3.51,3.51,0,0,1,285.79,74.58Z" fill="#231f20"/><ellipse cx="291.64" cy="69.65" rx="1.05" ry="0.75" transform="translate(118.14 314.2) rotate(-68.08)" fill="#231f20"/><ellipse cx="282.38" cy="69.13" rx="1.05" ry="0.75" transform="translate(112.82 305.29) rotate(-68.08)" fill="#231f20"/><path d="M281.1,76.45l7.38-.29s-.2,5-4.5,5.4S281.1,76.45,281.1,76.45Z" fill="#231f20"/><path d="M308.53,137.4s10.38,11.56,13.28,24.3c6.09,26.8,6.27,67.8,6.27,67.8l-78.84-5.63L268,135.27Z" fill="#231f20"/><path d="M323,131.35a14.22,14.22,0,0,1-4.63-.76.52.52,0,1,1,.34-1,14.85,14.85,0,0,0,15.91-4.78A17.19,17.19,0,0,0,336.88,108c-2.26-5.6-7.11-9.68-11.8-13.63-.82-.69-1.65-1.39-2.45-2.09-5.87-5.07-9-10.06-10.59-16.68-1.45-6.2-3.15-12.64-6.52-17.34-2.8-3.9-9.65-8.41-14.71-6.33a17,17,0,0,0-4.3,2.86.55.55,0,0,1-.41.11,25.53,25.53,0,0,0-8.29-.06A10.73,10.73,0,0,0,271,58.92a12.15,12.15,0,0,0-1.75,7.67c.05.78.32,1.72.92,1.79a.52.52,0,0,1,.45.57.51.51,0,0,1-.58.45c-1-.12-1.71-1.15-1.82-2.75a12.94,12.94,0,0,1,1.94-8.32,11.69,11.69,0,0,1,7.43-4.48,26,26,0,0,1,8.41,0,17.33,17.33,0,0,1,4.4-2.87c5.62-2.31,12.87,2.4,15.94,6.68,3.48,4.85,5.21,11.4,6.69,17.7s4.56,11.22,10.25,16.14c.8.7,1.62,1.39,2.45,2.08,4.78,4,9.73,8.2,12.09,14a18,18,0,0,1-2.42,17.85A16.21,16.21,0,0,1,323,131.35Z" fill="#231f20"/><path d="M325.45,266.67l-.81-5.52-16.25,4.48-3.16-4.17S293.33,270.09,295,272,314.18,270.42,325.45,266.67Z" fill="#231f20"/><path d="M248,177.89a.49.49,0,0,1-.41-.21L232.8,156.36a.51.51,0,0,1,.13-.7.49.49,0,0,1,.69.13l14.81,21.32a.49.49,0,0,1-.13.69A.47.47,0,0,1,248,177.89Z" fill="#d1d3d4"/><path d="M248.44,55.69a.49.49,0,0,1-.4-.8l16-20.73a.5.5,0,1,1,.79.61l-16,20.73A.51.51,0,0,1,248.44,55.69Z" fill="#d1d3d4"/><polygon points="124.83 148.96 150.46 257.33 128.2 262.66 103.71 175.11 96.6 264.94 73.5 263.75 72.71 138.3 124.83 148.96" fill="#231f20"/><path d="M117.87,93.19c-.15.59,45,7.1,45,7.1l-3.26,14.37s-29.61-3.26-45.3-5.78Z" fill="#fff"/><path d="M159.62,115.16h-.05c-.3,0-29.81-3.29-45.33-5.78a.48.48,0,0,1-.34-.21.52.52,0,0,1-.07-.39l3.55-15.69h0a.5.5,0,0,1,.6-.37.54.54,0,0,1,.2.1c1.84.66,27.65,4.53,44.76,7a.51.51,0,0,1,.34.21.49.49,0,0,1,.08.39l-3.26,14.37A.5.5,0,0,1,159.62,115.16Zm-44.7-6.69c14.57,2.31,40.6,5.23,44.31,5.64l3-13.4c-33.51-4.84-41.87-6.35-44-6.91Z" fill="#231f20"/><path d="M92,87.41c.18-.56,27.54,5.28,27.54,5.28l-1,20.53-18.75-6.71S90.78,91.16,92,87.41Z" fill="#cdcd32"/><path d="M110,99.7c-.41-1.11-5.59-12.57-20.69-12.94s-21.36-1-24.51,18c-3.35,20.09,7.1,55.27,7.1,55.27l57.58-13S114,110.49,110,99.7Z" fill="#cdcd32"/><path d="M200.6,72.15l21.21.93c-2.35,8-.52,14.6,5.23,18.92a18.39,18.39,0,0,0,20.52.83c6-3.76,8.35-10.23,6.74-18.33l17,.74-3.08,70.6-70.68-3.08c0-.55,0-1.11.08-1.66.29-6.85.61-13.7.86-20.55a7.79,7.79,0,0,0-.48-3.07,2.78,2.78,0,0,0-4-1.46A11.71,11.71,0,0,1,180,112.44a11.84,11.84,0,0,1,.12-14.65A11.27,11.27,0,0,1,194,94.63c3.32,1.63,5.59.34,5.79-3.38.31-6,.53-11.91.8-17.86C200.56,73,200.58,72.67,200.6,72.15Z" fill="#fff"/><path d="M268.2,146.34h0l-70.68-3.08a.53.53,0,0,1-.35-.17.5.5,0,0,1-.13-.36l.3-6.67c.22-5.17.45-10.35.64-15.53a7.25,7.25,0,0,0-.45-2.87,2.26,2.26,0,0,0-1.24-1.34,2.65,2.65,0,0,0-2.1.15,12.19,12.19,0,0,1-14.54-3.72,12.36,12.36,0,0,1,.13-15.27,11.77,11.77,0,0,1,14.42-3.3c1.48.72,2.73.84,3.61.32s1.37-1.64,1.46-3.28c.22-4.17.4-8.42.57-12.52.07-1.78.15-3.56.23-5.33l0-1.24a.52.52,0,0,1,.16-.35.53.53,0,0,1,.36-.13l21.21.93a.47.47,0,0,1,.39.21.5.5,0,0,1,.07.43C220,81,221.75,87.39,227.34,91.6a17.91,17.91,0,0,0,20,.8c5.76-3.63,8.07-10,6.51-17.81a.47.47,0,0,1,.11-.42.44.44,0,0,1,.4-.17l17,.74a.48.48,0,0,1,.35.16.49.49,0,0,1,.13.36l-3.08,70.6a.48.48,0,0,1-.16.35A.51.51,0,0,1,268.2,146.34ZM198,142.28l69.69,3,3-69.61L254.9,75c1.41,8-1.09,14.45-7.07,18.23a18.94,18.94,0,0,1-21.09-.85C220.93,88,219,81.52,221.16,73.55l-20.08-.88,0,.74c-.07,1.78-.15,3.55-.22,5.33-.17,4.11-.35,8.36-.57,12.53-.11,2-.78,3.41-2,4.1s-2.75.59-4.55-.3a10.77,10.77,0,0,0-13.2,3,11.34,11.34,0,0,0-.12,14,11.19,11.19,0,0,0,13.33,3.44,3.59,3.59,0,0,1,2.89-.18,3.21,3.21,0,0,1,1.8,1.91,8.3,8.3,0,0,1,.52,3.27c-.19,5.18-.42,10.36-.65,15.54Z" fill="#231f20"/><path d="M184.65,72.65,186.82,90c-8.18-1.1-14.75,1.91-18.14,8.29a18,18,0,0,0,2.37,20.21c5,5.57,12.14,7,19.82,4l2.61,20.89L116.2,153l-8.82-70.7,24.46-3a5.39,5.39,0,0,0,4.6-6.68,16.17,16.17,0,0,0-1.2-3.1A11.8,11.8,0,0,1,151,53.29a12,12,0,0,1,6.31,12.79c-.17,1-.4,2-.55,3-.52,3.35,2.44,7.19,6.5,6.35S180.47,73.17,184.65,72.65Z" fill="#fff"/><path d="M116.2,153.48a.45.45,0,0,1-.3-.1.47.47,0,0,1-.19-.34l-8.83-70.69a.5.5,0,0,1,.44-.56l1.71-.22,22.75-2.84a5,5,0,0,0,3.51-2.15,4.74,4.74,0,0,0,.66-3.9,15.19,15.19,0,0,0-1.16-3,12.3,12.3,0,0,1,16.43-16.83,12.52,12.52,0,0,1,6.57,13.32c-.07.44-.16.87-.24,1.3s-.22,1.1-.31,1.66a5.4,5.4,0,0,0,1.64,4.56,4.68,4.68,0,0,0,4.27,1.22c3-.62,11-1.54,16.85-2.21l4.59-.54a.51.51,0,0,1,.56.43l2.16,17.35a.49.49,0,0,1-.56.56c-7.93-1.06-14.35,1.86-17.62,8a17.59,17.59,0,0,0,2.29,19.65c4.81,5.38,11.84,6.77,19.27,3.81a.49.49,0,0,1,.68.4l2.6,20.9a.5.5,0,0,1-.1.37.48.48,0,0,1-.33.18l-77.28,9.65Zm-8.26-70.76,8.7,69.7,76.28-9.52-2.47-19.76c-7.62,2.82-14.8,1.27-19.78-4.31a18.61,18.61,0,0,1-2.43-20.78c3.39-6.39,9.93-9.51,18-8.63l-2-16.22-4.1.48c-5.51.63-13.84,1.59-16.76,2.2a5.67,5.67,0,0,1-5.17-1.47A6.33,6.33,0,0,1,156.25,69c.09-.57.2-1.14.32-1.71l.24-1.27a11.53,11.53,0,0,0-6.05-12.26,11.3,11.3,0,0,0-15.08,15.49,16,16,0,0,1,1.24,3.2,5.77,5.77,0,0,1-.8,4.72,6,6,0,0,1-4.21,2.58l-22.75,2.85Z" fill="#231f20"/><path d="M96.39,94.5V87.77s9.72,2,8.48-9-5.42-15.43-6.14-15.21L85.12,67.63,83.81,93.37S90.56,103.89,96.39,94.5Z" fill="#fff"/><path d="M91,98.9c-4.15,0-7.43-5.05-7.57-5.26a.47.47,0,0,1-.08-.3L84.62,67.6a.5.5,0,0,1,.36-.45l13.6-4.07a1,1,0,0,1,.84.2c1.75,1.16,4.92,6.38,6,15.44.4,3.6-.3,6.26-2.09,7.9-2.12,1.95-5.12,1.87-6.39,1.73V94.5a.5.5,0,0,1-.07.27c-1.69,2.72-3.65,4.11-5.82,4.13Zm-6.64-5.68C84.85,94,87.7,97.9,91,97.9h0c1.78,0,3.42-1.21,4.9-3.54V87.77a.47.47,0,0,1,.19-.38.51.51,0,0,1,.41-.11s3.81.73,6.12-1.4c1.54-1.42,2.13-3.79,1.76-7-1.12-9.91-4.67-14.4-5.59-14.77L85.6,68ZM96.39,94.5h0Z" fill="#231f20"/><path d="M85.69,74.81c-.46-2.08-3.56-2.81-5.09-1.33a3.92,3.92,0,0,0,.48,5.63,5.11,5.11,0,0,0,6,0" fill="#fff"/><path d="M83.92,80.55a5,5,0,0,1-3.15-1,4.58,4.58,0,0,1-1.65-3.33,4,4,0,0,1,1.13-3,3.68,3.68,0,0,1,3.6-.74,3.21,3.21,0,0,1,2.32,2.32.5.5,0,1,1-1,.22,2.27,2.27,0,0,0-1.64-1.59,2.68,2.68,0,0,0-2.61.51,2.92,2.92,0,0,0-.83,2.28,3.54,3.54,0,0,0,1.27,2.59,4.61,4.61,0,0,0,5.36-.06.5.5,0,1,1,.57.81A5.92,5.92,0,0,1,83.92,80.55Z" fill="#231f20"/><path d="M94.72,72.28A39.26,39.26,0,0,1,97,75.54a2.12,2.12,0,0,1,.46,1.76,1.73,1.73,0,0,1-1.3.93,1.14,1.14,0,0,1-1.26-.34" fill="#fff"/><path d="M95.78,78.72a1.36,1.36,0,0,1-1.22-.6.45.45,0,0,1,.16-.61.45.45,0,0,1,.61.16c.1.18.48.19.78.12s.81-.22,1-.64-.13-.92-.41-1.37a38.56,38.56,0,0,0-2.3-3.23.44.44,0,1,1,.69-.55,38.13,38.13,0,0,1,2.35,3.31,2.45,2.45,0,0,1,.5,2.15,2.11,2.11,0,0,1-1.61,1.2A2.44,2.44,0,0,1,95.78,78.72Z" fill="#231f20"/><ellipse cx="91.75" cy="71.56" rx="0.58" ry="0.82" transform="translate(-0.08 0.1) rotate(-0.06)" fill="#231f20"/><ellipse cx="98.23" cy="70.98" rx="0.58" ry="0.82" transform="translate(-5.9 8.98) rotate(-5.08)" fill="#231f20"/><path d="M77.56,76.24c-.68,0-1.58-.4-2.47-2a15.05,15.05,0,0,1-2.06-5A6.21,6.21,0,0,1,74.44,64a4.26,4.26,0,0,1,4.43-1.07,9.72,9.72,0,0,1,2.32-6.79,20.44,20.44,0,0,1,6.55-4.86,52.3,52.3,0,0,1,9.18-3.66,11.1,11.1,0,0,1,6.29-.44c3.54,1.06,5.35,5,5.53,8.11a13.26,13.26,0,0,1-6,11.79.52.52,0,0,1-.71-.16.51.51,0,0,1,.16-.71,12.39,12.39,0,0,0,5.55-10.86c-.16-2.82-1.73-6.27-4.79-7.18a10.22,10.22,0,0,0-5.71.44,50.93,50.93,0,0,0-9,3.59A19.53,19.53,0,0,0,82,56.75a8.29,8.29,0,0,0-1.94,7,.5.5,0,0,1-.23.56.51.51,0,0,1-.61,0,3.09,3.09,0,0,0-4,.42,5.14,5.14,0,0,0-1.13,4.44A14.34,14.34,0,0,0,76,73.77c.42.73,1.07,1.57,1.75,1.42a.52.52,0,0,1,.62.39.51.51,0,0,1-.4.61A1.6,1.6,0,0,1,77.56,76.24Z" fill="#231f20"/><path d="M96.39,87.77a28.34,28.34,0,0,1-6.86-2.71s-.13,4.5,6.78,6.65Z" fill="#231f20"/><path d="M96.31,92.15l-.13,0c-7.15-2.22-7.09-6.88-7.09-7.08a.44.44,0,0,1,.24-.37.43.43,0,0,1,.44,0,28.31,28.31,0,0,0,6.73,2.66.43.43,0,0,1,.33.43l-.08,3.94a.44.44,0,0,1-.19.34A.38.38,0,0,1,96.31,92.15ZM90.09,85.9c.31,1.26,1.47,3.7,5.79,5.2l.06-3A29.5,29.5,0,0,1,90.09,85.9Z" fill="#231f20"/><path d="M78.44,120.53s23.88,27.44,38.69,20.63,36.72-33.76,36.72-33.76,6.91-7.21,5.53-7.6-5.93,4-5.93,4,5.14-6.12,3.16-6.12-5.72,4.54-5.72,4.54,6.12-6.91,3.55-6.52-5.72,4.15-5.72,4.15,6.12-5.92,3.75-5.72-8.69,6.11-8.69,6.11,2.57-5.92.59-5.72S142,100,139,102.76s-22.11,21.12-25.66,20.93S94,106.51,94,106.51" fill="#fff"/><path d="M111.89,142.76c-5.51,0-12.19-3-20-9a108.11,108.11,0,0,1-13.87-12.93.51.51,0,0,1,0-.71.49.49,0,0,1,.7,0c.24.27,23.81,27.08,38.11,20.5,14.53-6.68,36.32-33.35,36.54-33.62,2.5-2.6,5.15-5.75,5.55-6.8-.92.18-3.31,2-5.21,3.83a.5.5,0,0,1-.73-.68c1.89-2.26,3.42-4.59,3.5-5.29-1.13.09-3.12,1.92-4.54,3.48l-.77.88a.5.5,0,0,1-.7,0,.51.51,0,0,1-.06-.7c.09-.11.33-.4.68-.78,1.7-2,3.27-4.2,3.39-4.93h0a8.09,8.09,0,0,0-3.6,2.12c-.6.65-1.24,1.29-1.86,1.89a.5.5,0,0,1-.73-.68,25,25,0,0,1,1.77-1.82,14.09,14.09,0,0,0,2.38-3.08c-1.82.19-6.64,4.37-8.36,6a.5.5,0,0,1-.8-.56c.88-2,1.57-4.52,1.21-5,0,0,0,0-.11,0-.7.07-1.29,1.46-1.91,2.94a14.78,14.78,0,0,1-3.13,5.22l-1,1c-14.69,13.85-22.6,20.24-25,20.11-3.65-.21-18-15.58-19.68-17.34a.49.49,0,0,1,0-.7.5.5,0,0,1,.71,0c6.29,6.77,16.55,16.88,19,17,1.41.07,6.73-3.31,24.28-19.84l1-.95a13.77,13.77,0,0,0,2.89-4.88c.8-1.91,1.44-3.42,2.73-3.55a1.09,1.09,0,0,1,1,.42c.56.77.15,2.56-.35,4,2.09-1.82,5.65-4.7,7.44-4.85a.9.9,0,0,1,1,.47c.16.35,0,.89-.39,1.53a5.18,5.18,0,0,1,1.32-.42.93.93,0,0,1,1.09.42c.24.44,0,1.22-.55,2.15a3.57,3.57,0,0,1,1.7-.6.9.9,0,0,1,.87.49c.27.59-.24,1.72-1,2.94,1.17-.83,2.34-1.44,3-1.24a.72.72,0,0,1,.52.52c.34,1.25-3.5,5.49-5.82,7.91-.87,1.07-22.13,27.08-36.87,33.86A12.8,12.8,0,0,1,111.89,142.76Z" fill="#231f20"/><path d="M99.34,82.64a2.61,2.61,0,0,1-.33.45c-2.74,3.21-5.92.23-7.72-2.16.18.25,3.85-.82,4.22-.89l4.52-1A4.58,4.58,0,0,1,99.34,82.64Z" fill="#231f20"/><path d="M128.2,261.78l.74,8.39s38.94-5.48,37.31-7.11-15.79-5.73-15.79-5.73" fill="#fff"/><path d="M128.94,270.67a.51.51,0,0,1-.31-.11.53.53,0,0,1-.19-.35l-.74-8.39a.5.5,0,0,1,1-.09l.69,7.87c13-1.84,33.16-5.05,36.16-6.45-2-1.26-10-3.82-15.23-5.34a.49.49,0,0,1-.34-.61.51.51,0,0,1,.62-.35c1.46.43,14.33,4.18,16,5.86a.63.63,0,0,1,.16.66c-.61,1.81-23.92,5.34-37.76,7.29Z" fill="#231f20"/><path d="M96.6,264.94v6.81L61.36,272s6.22-5.92,12.14-8.29" fill="#fff"/><path d="M61.36,272.54a.5.5,0,0,1-.34-.86c.25-.24,6.35-6,12.3-8.39a.5.5,0,0,1,.65.28.51.51,0,0,1-.28.65c-4.41,1.76-9.06,5.59-11,7.31l33.43-.28v-6.31a.5.5,0,0,1,1,0v6.81a.51.51,0,0,1-.5.5l-35.23.29Z" fill="#231f20"/><path d="M99.35,174.52c-2.64,0-4.33-.09-4.36-.09a.52.52,0,0,1-.47-.53.5.5,0,0,1,.53-.47,103.54,103.54,0,0,0,14.53-.39.48.48,0,0,1,.54.44.5.5,0,0,1-.44.55C105.72,174.42,102,174.52,99.35,174.52Z" fill="#fff"/><path d="M149.25,176.55a.47.47,0,0,1-.31-.11.51.51,0,0,1-.09-.7l10.07-13a.52.52,0,0,1,.7-.09.51.51,0,0,1,.09.71l-10.06,13A.51.51,0,0,1,149.25,176.55Z" fill="#d1d3d4"/><path d="M202.41,217.62a.49.49,0,0,1-.49-.47l-3-52.71a.51.51,0,0,1,.48-.53.49.49,0,0,1,.52.47l3,52.71a.5.5,0,0,1-.47.53Z" fill="#d1d3d4"/><path d="M296.94,96.11a27.2,27.2,0,0,0-1.56,3C291,108.32,285.33,119.66,274,121.3c-7.95,1.15-16.13-.39-23.63-3a25.22,25.22,0,0,1-6.55-3.31c-2.38-1.81-4.39-4.53-6.49-6.67-.53-.55-1.46-1.1-2-.52s-.1,1.11.21,1.6a35,35,0,0,0,3.74,4.92c-1.69-.68-3.42-1.28-5.17-1.81a30.42,30.42,0,0,0-4.66-1.29,1.41,1.41,0,0,0-.82.27.64.64,0,0,0-.17.79.93.93,0,0,0,.31.28,13.67,13.67,0,0,0,3.85,1.75,9.7,9.7,0,0,0-3.77-1c-.57,0-1.28.08-1.47.62s.37,1.11.89,1.43a16.07,16.07,0,0,0,3.73,1.69,23.12,23.12,0,0,0-3.18-1.31c-.68-.22-1.56-.36-2,.22a1.18,1.18,0,0,0,0,1.29,3,3,0,0,0,1,.9,14.74,14.74,0,0,0,3.35,1.54L228,118.59a1.61,1.61,0,0,0-1.47,0c-.51.41-.31,1.25.08,1.79a7.6,7.6,0,0,0,2.94,1.94,47,47,0,0,0,4.51,1.87c10.21,4,19.12,9.67,30.32,10.6,12.37,1,26.25-2.32,35.47-11,5.58-5.25,11.35-14.3,10.35-22.41-.33-2.65-.74-6.31-3.07-8-2.49-1.85-7-.94-9,1.17A10.25,10.25,0,0,0,296.94,96.11Z" fill="#fff"/><path d="M268.91,135.5c-1.5,0-3-.06-4.55-.19-8.07-.68-14.82-3.73-22-7-2.75-1.25-5.6-2.54-8.51-3.67l-1-.36a37.47,37.47,0,0,1-3.59-1.52l-.59-.29a6.27,6.27,0,0,1-2.52-1.81,1.82,1.82,0,0,1,0-2.47,1.4,1.4,0,0,1,.64-.28,2.22,2.22,0,0,1-.39-.47,1.66,1.66,0,0,1,0-1.85,1.47,1.47,0,0,1,.78-.54,1.39,1.39,0,0,1-.31-1.35,1.51,1.51,0,0,1,1.36-.94,1.09,1.09,0,0,1,0-1.71,1.81,1.81,0,0,1,1.12-.38,16.43,16.43,0,0,1,4,1l.83.26c1.13.34,2.25.71,3.37,1.12a34,34,0,0,1-2.5-3.48c-.72-1.14-.49-1.82-.17-2.19a1.14,1.14,0,0,1,.88-.42,2.72,2.72,0,0,1,1.82.91c.72.73,1.44,1.55,2.13,2.33a32.34,32.34,0,0,0,4.3,4.3,24.93,24.93,0,0,0,6.41,3.23c8.54,3,16.41,4,23.4,3,11.4-1.65,17.17-13.86,21-21.94a25.91,25.91,0,0,1,1.59-3h0a10.65,10.65,0,0,1,1.27-1.66c2.12-2.23,6.91-3.27,9.67-1.23,2.46,1.83,2.92,5.53,3.25,8.24l0,.15c1,8-4.56,17.25-10.51,22.84C292.54,131.41,281.08,135.5,268.91,135.5Zm-41.74-16.58a.56.56,0,0,0-.3.08c-.23.19-.09.73.18,1.1a5.17,5.17,0,0,0,2.15,1.49l.61.31a37.21,37.21,0,0,0,3.49,1.47l1,.37c2.93,1.14,5.79,2.44,8.55,3.69,7.06,3.2,13.72,6.22,21.63,6.88,13.54,1.13,26.66-2.92,35.09-10.85,5.76-5.42,11.14-14.32,10.19-22v-.15c-.32-2.52-.74-6-2.86-7.55-2.3-1.71-6.51-.82-8.35,1.11a10.35,10.35,0,0,0-1.15,1.5h0a26.21,26.21,0,0,0-1.53,2.92c-3.91,8.27-9.82,20.77-21.75,22.5-7.15,1-15.18,0-23.87-3.06a26.81,26.81,0,0,1-6.69-3.38,33.1,33.1,0,0,1-4.44-4.42c-.72-.82-1.4-1.58-2.1-2.3a1.86,1.86,0,0,0-1.07-.61.2.2,0,0,0-.16.07c-.13.15,0,.54.27,1A35.27,35.27,0,0,0,239.7,114a.5.5,0,0,1,.05.62.5.5,0,0,1-.6.18c-1.68-.67-3.41-1.27-5.14-1.79l-.85-.27a22.48,22.48,0,0,0-3.63-1,1,1,0,0,0-.52.15.19.19,0,0,0-.07.16.65.65,0,0,0,.15.11,12.13,12.13,0,0,0,1.69.94,10.59,10.59,0,0,1,2.12.79.49.49,0,0,1,.24.62.52.52,0,0,1-.6.31,13.75,13.75,0,0,1-2.09-.77,9.41,9.41,0,0,0-1.58-.23c-.42,0-.88.06-1,.28s.28.6.68.85c.23.15.48.29.72.42a24.83,24.83,0,0,1,3,1.24.51.51,0,0,1,.24.63.52.52,0,0,1-.61.3,16.81,16.81,0,0,1-3-1.25l-.2-.07c-.34-.11-1.15-.32-1.42,0a.69.69,0,0,0,.06.73,2.44,2.44,0,0,0,.85.74,14.35,14.35,0,0,0,3.1,1.45l.14.05a.5.5,0,0,1-.3.95l-.15,0-3.12-1A2.67,2.67,0,0,0,227.17,118.92Zm69.77-22.81h0Z" fill="#231f20"/><path d="M194.62,59a.5.5,0,0,1-.5-.5v-31a.5.5,0,0,1,.5-.5.5.5,0,0,1,.5.5v31A.5.5,0,0,1,194.62,59Z" fill="#d1d3d4"/><path d="M133.8,53.93a.51.51,0,0,1-.4-.2l-9-12.39a.5.5,0,0,1,.81-.59l9,12.39a.51.51,0,0,1-.11.7A.53.53,0,0,1,133.8,53.93Z" fill="#d1d3d4"/><path d="M76,118.44a.51.51,0,0,1-.4-.2c-3.83-5.09-6.9-9.87-6.93-9.92a.5.5,0,0,1,.16-.69.49.49,0,0,1,.69.16s3.07,4.79,6.88,9.85a.5.5,0,0,1-.1.7A.47.47,0,0,1,76,118.44Z" fill="#231f20"/><path d="M319.82,211.23a.51.51,0,0,1-.5-.44c0-.37-4.52-36.87-6.37-45.76a.5.5,0,1,1,1-.2c1.86,8.93,6.35,45.47,6.39,45.84a.49.49,0,0,1-.43.55Z" fill="#fff"/></g></svg>