<svg xmlns="http://www.w3.org/2000/svg" viewBox="0 0 400 300"><g id="_242_reminder_note_flatline" data-name="#242_reminder_note_flatline"><path d="M153.22,127.51s11.92,13.33,17.19,25.33l16.31-7.39-15.84-32.3Z" fill="#fff"/><path d="M170.41,153.34a.57.57,0,0,1-.18,0A.5.5,0,0,1,170,153c-5.18-11.79-17-25.07-17.1-25.2a.47.47,0,0,1-.13-.37.5.5,0,0,1,.18-.35l17.66-14.36a.53.53,0,0,1,.42-.1.53.53,0,0,1,.35.27l15.84,32.3a.53.53,0,0,1,0,.39.47.47,0,0,1-.27.28l-16.3,7.4A.78.78,0,0,1,170.41,153.34Zm-16.47-25.77c2,2.27,11.9,13.94,16.72,24.61l15.38-7L170.7,113.94Z" fill="#231f20"/><path d="M163.22,138.35l-7.83-4.29L178.71,93a3.91,3.91,0,0,1,6.57,3.59Z" fill="#231f20"/><path d="M163.22,138.85a.53.53,0,0,1-.24-.06l-7.83-4.29a.52.52,0,0,1-.24-.3.5.5,0,0,1,.05-.38l23.32-41.1.06-.09a4.41,4.41,0,0,1,7.42,4.06.42.42,0,0,1,0,.1l-22.06,41.79a.51.51,0,0,1-.29.25Zm-7.14-5,6.94,3.8,21.79-41.29a3.41,3.41,0,0,0-5.69-3.11Z" fill="#231f20"/><path d="M155.39,134.06l-.31,9.87,8.14-5.58S161.58,132.48,155.39,134.06Z" fill="#fff"/><path d="M155.08,144.43a.53.53,0,0,1-.24-.06.49.49,0,0,1-.26-.46l.32-9.86a.48.48,0,0,1,.37-.47c6.58-1.68,8.42,4.57,8.43,4.63a.49.49,0,0,1-.2.55l-8.14,5.58A.47.47,0,0,1,155.08,144.43Zm.8-10-.27,8.5,7-4.81A5.6,5.6,0,0,0,155.88,134.46Z" fill="#231f20"/><polygon points="156.85 142.72 155.15 141.78 154.07 145.06 154.73 145.42 156.85 142.72" fill="#fff"/><path d="M154.73,145.92a.53.53,0,0,1-.24-.06l-.66-.36a.5.5,0,0,1-.23-.6l1.07-3.27a.52.52,0,0,1,.29-.31.5.5,0,0,1,.43,0l1.7.94a.5.5,0,0,1,.16.74l-2.12,2.71A.53.53,0,0,1,154.73,145.92Zm.71-3.41-.68,2.06,1.33-1.7Z" fill="#231f20"/><path d="M179.15,108.62a.45.45,0,0,1-.44-.36,4.87,4.87,0,0,0-2.08-3.23,5.93,5.93,0,0,0-4.07-.59.46.46,0,0,1-.21-.89,6.82,6.82,0,0,1,4.75.7,5.68,5.68,0,0,1,2.5,3.81.47.47,0,0,1-.35.55Z" fill="#231f20"/><path d="M180.6,106a.46.46,0,0,1-.44-.36,4.89,4.89,0,0,0-2.08-3.24,6,6,0,0,0-4.07-.58.46.46,0,1,1-.21-.89,6.79,6.79,0,0,1,4.75.69,5.73,5.73,0,0,1,2.5,3.82.47.47,0,0,1-.35.55Z" fill="#fff"/><path d="M177.67,118.2a.46.46,0,0,1-.4-.23c-.1-.15-.55-1.06.33-3.48.42-1.18,2.52-4,4.74-7s4.67-6.3,4.93-7.31a1,1,0,0,0-.12-.89,2.88,2.88,0,0,0-1.94-.67.46.46,0,0,1-.45-.46.45.45,0,0,1,.46-.45h0a3.69,3.69,0,0,1,2.65,1,1.86,1.86,0,0,1,.28,1.67c-.3,1.19-2.62,4.32-5.08,7.63-2.08,2.81-4.23,5.71-4.62,6.76-.72,2-.4,2.7-.4,2.71a.44.44,0,0,1-.15.62A.48.48,0,0,1,177.67,118.2Z" fill="#231f20"/><path d="M153,114.64a11.09,11.09,0,0,0-1.66,2.31,8.66,8.66,0,0,0-.85,3.92,10.14,10.14,0,0,0,2.34,6.73,7.68,7.68,0,0,0,6.47,2.68,9.07,9.07,0,0,0,6.42-4.64,26.69,26.69,0,0,0,2.66-7.74c.72-3.08,4-13-2.36-12.08C161.21,106.54,156.08,111.17,153,114.64Z" fill="#fff"/><path d="M158.58,130.82a8.3,8.3,0,0,1-6.13-2.89,10.68,10.68,0,0,1-2.47-7.07,9.31,9.31,0,0,1,.91-4.14,12.23,12.23,0,0,1,1.74-2.41h0c2.15-2.42,7.74-8.15,13.31-9a3.56,3.56,0,0,1,3.37.93c2,2.23.65,7.5-.16,10.65-.11.43-.21.81-.28,1.12a26.92,26.92,0,0,1-2.72,7.88,9.54,9.54,0,0,1-6.8,4.88C159.1,130.8,158.84,130.82,158.58,130.82ZM153.38,115a11.15,11.15,0,0,0-1.59,2.21,8.13,8.13,0,0,0-.81,3.69,9.78,9.78,0,0,0,2.22,6.4,7.14,7.14,0,0,0,6,2.51,8.51,8.51,0,0,0,6-4.4,26.16,26.16,0,0,0,2.61-7.59c.07-.31.17-.7.28-1.14.71-2.76,2-7.9.39-9.73a2.62,2.62,0,0,0-2.48-.61c-5.25.79-10.64,6.32-12.71,8.66Z" fill="#231f20"/><path d="M166.76,135.87c-1.66-4.63,7.64-11.09,7.64-11.09s-11.34-.07-12-4.72,17.13-3.36,17.13-3.36,6.32,14.53,1.79,20.91" fill="#fff"/><path d="M181.31,138.11A.52.52,0,0,1,181,138a.51.51,0,0,1-.11-.7c4-5.61-.9-18.11-1.73-20.14-4-.26-13.88-.4-16,1.83a1.1,1.1,0,0,0-.33,1c.49,3.46,8.48,4.27,11.52,4.29a.49.49,0,0,1,.47.35.5.5,0,0,1-.19.56c-2.5,1.74-8.71,7-7.46,10.51a.5.5,0,0,1-.94.34c-1.41-3.94,4.17-8.86,6.68-10.81-3.17-.2-10.5-1.09-11.07-5.1a2.11,2.11,0,0,1,.58-1.8c2.86-3.06,15.63-2.23,17.07-2.13a.53.53,0,0,1,.43.3c.26.61,6.37,14.86,1.74,21.4A.49.49,0,0,1,181.31,138.11Z" fill="#231f20"/><path d="M187.28,140.45l-24.72,9.76s9.62,79.72,20.61,92.42,25.51-8.55,25-37.5S187.28,140.45,187.28,140.45Z" fill="#cdcd32"/><path d="M219.11,34.87c7.68-7.4,30.7-19.19,39-6.28A4.62,4.62,0,0,0,259.29,30a4.6,4.6,0,0,0,3,.32c12.68-.87,21.83,19,24.13,28.88,2.82,12.16,5.59,23.19,12.28,33.92,4,6.44,10,12.15,12.79,19.3a55.13,55.13,0,0,1,3.67,21.88,49,49,0,0,1-3.87,18.13c-5.32,11.87-16.76,20.28-29.2,24.11s-25.81,3.54-38.67,1.6c-12.19-1.84-24.45-5.25-34.44-12.46s-17.44-18.78-17.28-31.11c.16-12.12,7-22.71,11.09-33.77s4.29-22.17,3.26-33.57C204.86,54.54,210,43.68,219.11,34.87Z" fill="#fff"/><path d="M260.65,180.07a116.73,116.73,0,0,1-17.34-1.4c-14.89-2.24-25.91-6.23-34.66-12.55-10.93-7.9-17.62-20-17.47-31.51.11-8.73,3.68-16.72,7.13-24.45,1.38-3.1,2.81-6.31,4-9.49,3.47-9.44,4.47-19.73,3.23-33.36-1.11-12.23,3.35-23.26,13.25-32.8l.34.36-.34-.36c6-5.81,19.81-13.24,30-12a12.79,12.79,0,0,1,9.79,5.86l.16.25a3.42,3.42,0,0,0,.86,1.06,3.52,3.52,0,0,0,2.25.26l.42,0c13.14-.9,22.43,19.72,24.64,29.27,3,12.79,5.76,23.4,12.23,33.76,1.47,2.36,3.25,4.68,5,6.92,3,3.88,6.07,7.9,7.86,12.47a56,56,0,0,1,3.7,22.08,49.23,49.23,0,0,1-3.92,18.31c-5,11.28-15.81,20.16-29.5,24.39A72.62,72.62,0,0,1,260.65,180.07ZM246.92,23.36c-6.86,0-19,3.76-27.46,11.87h0c-9.67,9.32-14,20.08-13,32,1.25,13.78.24,24.21-3.29,33.8-1.18,3.21-2.61,6.43-4,9.54-3.41,7.64-6.94,15.54-7.05,24.06-.14,11.22,6.4,23,17.07,30.69,8.61,6.22,19.49,10.16,34.22,12.38,15.07,2.27,27.65,1.75,38.45-1.58,13.23-4.08,24-13,28.9-23.85a48.49,48.49,0,0,0,3.83-17.94A55.05,55.05,0,0,0,311,112.64c-1.73-4.44-4.78-8.4-7.72-12.22-1.73-2.26-3.53-4.6-5-7-6.55-10.49-9.36-21.18-12.35-34.07-2.15-9.28-11.07-29.34-23.6-28.5l-.4,0a4.29,4.29,0,0,1-2.89-.43,4.22,4.22,0,0,1-1.16-1.35l-.14-.24a11.88,11.88,0,0,0-9.07-5.41A15.29,15.29,0,0,0,246.92,23.36Z" fill="#231f20"/><path d="M125.58,144.32a129.14,129.14,0,0,1,3.27,60.75l41.66,14.87s11.2-45.2-11.08-76.11C159.43,143.83,134.39,143.22,125.58,144.32Z" fill="#cdcd32"/><path d="M170.51,220.44a.47.47,0,0,1-.17,0l-41.65-14.87a.51.51,0,0,1-.33-.57c6.32-32.2-3.15-60.2-3.25-60.48a.5.5,0,0,1,0-.43.49.49,0,0,1,.36-.23c8.75-1.09,33.67-.5,33.92-.5a.55.55,0,0,1,.4.21C182,174.28,171.1,219.61,171,220.06a.47.47,0,0,1-.25.32A.46.46,0,0,1,170.51,220.44Zm-41.08-15.7,40.71,14.54c1.16-5.19,9.42-46.41-11-74.95-2.57-.06-24.27-.51-32.92.42C127.57,149,135.13,175,129.43,204.74Z" fill="#231f20"/><path d="M186.72,254.94s22.84,15.48,41.7,13.51c0,0,46.55-145.38,40.73-150.41s-48,1.19-48,1.19S187,228.47,186.72,254.94Z" fill="#231f20"/><path d="M225,269.12c-18.07,0-38.39-13.62-38.6-13.77a.5.5,0,0,1-.22-.42c.25-26.23,34.06-134.76,34.4-135.85a.51.51,0,0,1,.41-.35c1.73-.25,42.53-6.2,48.45-1.07,1,.83,3.87,3.36-18,77.61-10.78,36.56-22.43,73-22.54,73.33a.52.52,0,0,1-.43.35A32.42,32.42,0,0,1,225,269.12Zm-37.82-14.45c2.39,1.57,23.4,15,40.82,13.32,18.67-58.32,44.86-146,40.78-149.58-4.43-3.83-32.71-.87-47.34,1.26C219.51,126,187.68,228.8,187.22,254.67Z" fill="#231f20"/><path d="M293.61,200.25c-8.42,41.07-13.68,69.31-13.68,69.31s-30.75,13.32-61.32,4.72l-.89-.26c3-15.29,9.51-46.28,18.45-81.5,11.12-43.81,25.41-68.21,25.41-68.21l-33.41-2.12s-5.44,10.53-20,58.47c-8.86,29.07-16.5,63.94-20.26,82.12-13-5.87-22.27-11.18-22.27-11.18s34-134.24,46.31-139.93,82.41-2.54,92.76,22.29C307.5,140.75,308.11,170.11,293.61,200.25Z" fill="#cdcd32"/><path d="M182.62,197.19h-.07a.51.51,0,0,1-.42-.57c4.06-26.85,20.72-71.14,20.89-71.59a.51.51,0,0,1,.65-.29.5.5,0,0,1,.29.65c-.17.44-16.8,44.63-20.84,71.38A.51.51,0,0,1,182.62,197.19Z" fill="#231f20"/><path d="M233.1,101.82l-4.93,20.37s.4,9.95,14.8,10.08,18.76-8.73,18.76-8.73l7.81-38.34s-18.46-16.65-10-37.77c0,0-12.55,15.14-32.1,7.51,0,0-5.17,19.44-6.17,30.38S233.1,101.82,233.1,101.82Z" fill="#fff"/><path d="M243.27,132.77H243c-14.71-.13-15.29-10.45-15.3-10.56a.59.59,0,0,1,0-.13l4.82-20a27.45,27.45,0,0,1-6-4.06c-4.16-3.72-6.13-8.14-5.7-12.77,1-10.85,6.12-30.27,6.17-30.46a.52.52,0,0,1,.26-.32.53.53,0,0,1,.41,0c19,7.41,31.41-7.21,31.53-7.36a.5.5,0,0,1,.85.5c-8.22,20.57,9.7,37.06,9.89,37.22a.49.49,0,0,1,.15.47l-7.81,38.34a.56.56,0,0,1,0,.12C262,124.13,257.59,132.77,243.27,132.77Zm-14.59-10.53c.06.91,1,9.41,14.3,9.53s17.89-7.69,18.27-8.4l7.75-38c-2-1.9-16.78-17-10.71-36-4,3.71-15.15,11.92-30.52,6.2-.84,3.21-5.12,20-6,29.76-.95,10.45,11.41,15.94,11.53,16a.48.48,0,0,1,.29.57Z" fill="#231f20"/><path d="M263.38,82.51c2.21-4.17,8.42-6.48,12.81-4.64,5.68,2.38,4,9,1,12.89a11.09,11.09,0,0,1-15.65,2" fill="#fff"/><path d="M268.42,95.65a11.69,11.69,0,0,1-7.15-2.46.5.5,0,0,1-.09-.7.49.49,0,0,1,.7-.08,10.59,10.59,0,0,0,14.95-2c1.74-2.29,3.15-5.85,2.4-8.64A5.19,5.19,0,0,0,276,78.33c-4.14-1.73-10.05.41-12.17,4.41a.5.5,0,0,1-.89-.46c2.34-4.42,8.87-6.79,13.44-4.87a6.14,6.14,0,0,1,3.82,4.15c.89,3.34-.83,7.2-2.57,9.5a11.64,11.64,0,0,1-7.74,4.49A12.1,12.1,0,0,1,268.42,95.65Z" fill="#231f20"/><path d="M241.59,70.6s-10.09,8.49-8.94,10.8,6.19,2.46,6.19,2.46" fill="#fff"/><path d="M238.84,84.36h0c-.22,0-5.35-.19-6.62-2.74s6.63-9.35,9.07-11.4a.5.5,0,0,1,.64.76c-4.7,4-9.41,9-8.81,10.2.83,1.67,4.43,2.14,5.75,2.18a.5.5,0,0,1,0,1Z" fill="#231f20"/><ellipse cx="232.76" cy="67.07" rx="3.96" ry="1.72" transform="translate(137.19 289.65) rotate(-82.84)" fill="#231f20"/><ellipse cx="250.38" cy="69.29" rx="3.96" ry="1.72" transform="translate(150.43 309.08) rotate(-82.84)" fill="#231f20"/><path d="M233.1,101.82s7.39,3.31,18.08-.46c0,0-6.93,13.49-20.75,11.48Z" fill="#231f20"/><path d="M233.18,113.54a19.69,19.69,0,0,1-2.82-.2.49.49,0,0,1-.34-.22.45.45,0,0,1-.07-.39l2.66-11a.46.46,0,0,1,.26-.33.5.5,0,0,1,.43,0c.07,0,7.36,3.18,17.72-.47a.5.5,0,0,1,.54.14.52.52,0,0,1,.07.56C251.56,101.72,245.33,113.54,233.18,113.54Zm-2.13-1.12c10.62,1.23,17-7.07,19-10.16-8.56,2.65-14.78.89-16.62.23Z" fill="#231f20"/><path d="M238.7,99.08a4.36,4.36,0,0,1-2.09-.53c-2.46-1.32-4.12-5.25-4.55-10.77a.49.49,0,0,1,.42-.53l14.92-2.54a.5.5,0,0,1,.41.12.49.49,0,0,1,.17.39c0,.4-.36,9.76-6.17,13A6.45,6.45,0,0,1,238.7,99.08Zm-5.6-10.92c.45,4.93,1.9,8.38,4,9.51,1.19.65,2.62.52,4.24-.37,4.5-2.48,5.43-9.39,5.61-11.49Z" fill="#231f20"/><path d="M178,218.43s6.13-44.19-13.95-77.11l-4.59,2.51s18.92,39.21,11.08,76.11Z" fill="#fff"/><path d="M170.51,220.44a.49.49,0,0,1-.36-.15.47.47,0,0,1-.13-.45c7.71-36.31-10.85-75.4-11-75.79a.5.5,0,0,1,.21-.65l4.59-2.52a.5.5,0,0,1,.67.18c19.94,32.69,14.07,77,14,77.44a.5.5,0,0,1-.4.42l-7.46,1.51Zm-10.43-76.39c2,4.36,18,40.89,11.07,75.25l6.36-1.29c.51-4.21,4.86-45.22-13.67-76ZM178,218.43h0Z" fill="#231f20"/><path d="M195.14,191.74c-.79-1-7.3-4.86-7.3-4.86s-9.91-26.59-12.78-25.81,1.57,20.08,1.57,20.08a17.22,17.22,0,0,1-5.48.78c-2.08-.26-15.9-12.51-16.94-9.13s-2.87,16.95,0,21.38S181.06,209,187.84,209" fill="#fff"/><path d="M187.84,209.54h0c-6.62,0-30.9-10.23-34-15.09-3-4.57-1.18-18.13-.06-21.79a1.24,1.24,0,0,1,.83-.86c1.78-.6,5.83,2.17,11.34,6.16,2.21,1.59,4.7,3.39,5.32,3.47a14.93,14.93,0,0,0,4.82-.64c-1.16-5.1-4.1-19.38-1.11-20.2s10.25,17.74,13.31,25.95c1.14.69,6.51,4,7.28,4.88a.49.49,0,0,1-.07.7.49.49,0,0,1-.7-.06c-.53-.65-4.68-3.26-7.17-4.75a.49.49,0,0,1-.21-.26c-5.89-15.79-10.88-25.49-12.16-25.49h0c-1.43.39-.16,10.38,1.93,19.47a.5.5,0,0,1-.35.59,16.93,16.93,0,0,1-5.68.8c-.82-.1-2.64-1.39-5.77-3.65-3.59-2.59-9-6.51-10.45-6a.28.28,0,0,0-.18.21c-1.06,3.44-2.81,16.71-.06,21s26.3,14.58,33.21,14.63a.5.5,0,0,1,.5.5A.51.51,0,0,1,187.84,209.54Z" fill="#231f20"/><path d="M277.17,132.71c-1.61.43-32.33,67.07-35.33,70.85s-46.26-16.31-46.26-16.31L183,214.13s48.42,42.28,73.29,31.71,32.42-45.3,35.44-62.67S299.38,126.88,277.17,132.71Z" fill="#cdcd32"/><path d="M159.43,143.83s-20.16-1-33.85.49l1.85-4.23s27-.86,36.59,1.23Z" fill="#fff"/><path d="M125.58,144.82a.48.48,0,0,1-.4-.2.5.5,0,0,1-.06-.5l1.85-4.23a.5.5,0,0,1,.44-.3c1.11,0,27.14-.84,36.72,1.24a.51.51,0,0,1,.39.42.49.49,0,0,1-.26.51l-4.59,2.51a.4.4,0,0,1-.26.06c-.2,0-20.29-.94-33.78.49Zm2.18-4.24-1.38,3.16c12.93-1.25,31.15-.49,32.93-.41l3.25-1.78C152.78,139.94,130.67,140.5,127.76,140.58Z" fill="#231f20"/><path d="M158.24,148.63s5.6,49.19-2.21,71.31l-39.51-16.63s7.8-19.68,6-56Z" fill="#fff"/><path d="M156,220.44a.43.43,0,0,1-.19,0l-39.51-16.63a.51.51,0,0,1-.27-.65c.07-.19,7.74-20,6-55.77a.54.54,0,0,1,.15-.38.43.43,0,0,1,.37-.14l35.67,1.3a.5.5,0,0,1,.48.44c.06.5,5.53,49.56-2.22,71.54a.55.55,0,0,1-.27.29A.52.52,0,0,1,156,220.44ZM117.16,203l38.58,16.24c7-20.89,2.56-65.31,2-70.16l-34.7-1.27C124.59,180.51,118.28,199.87,117.16,203Z" fill="#231f20"/><path d="M158.24,147.32s-3,59-10.76,74.36l-35.74-16.11s9.82-36.95,9.82-59c0,0,10.62-.14,18.46.16C146.65,147,158.24,147.32,158.24,147.32Z" fill="#fff"/><path d="M147.48,222.18a.54.54,0,0,1-.21-.05L111.53,206a.5.5,0,0,1-.27-.59c.09-.37,9.8-37.14,9.8-58.86a.5.5,0,0,1,.49-.5c.11,0,10.72-.14,18.49.16,6.55.26,18.1.58,18.21.58a.51.51,0,0,1,.35.17.48.48,0,0,1,.14.36c-.12,2.41-3.06,59.28-10.82,74.55A.48.48,0,0,1,147.48,222.18Zm-35.15-16.89L147.24,221c7.13-14.93,10.16-67.44,10.47-73.21-2.32-.07-11.94-.35-17.71-.57-6.78-.26-15.77-.19-18-.17C121.92,167.72,113.39,201.2,112.33,205.29Z" fill="#231f20"/><path d="M153.91,150.84a.5.5,0,0,1-.31-.1c-.17-.14-4.22-3.41-4.34-7.44a6.61,6.61,0,0,1,2.47-5.19,4,4,0,0,1,3.47-1.2c2.45.42,4,3.32,4.09,3.44a.49.49,0,0,1-.2.67.51.51,0,0,1-.68-.2s-1.41-2.59-3.38-2.93a3.1,3.1,0,0,0-2.63,1,5.67,5.67,0,0,0-2.14,4.42c.11,3.56,3.93,6.65,4,6.68a.5.5,0,0,1-.31.89Z" fill="#231f20"/><path d="M145.36,150.84a.48.48,0,0,1-.26-.07c-.17-.1-4.17-2.53-5.1-6.27a6.52,6.52,0,0,1,.87-5.09c1-1.67,2.24-2.56,3.64-2.64,2.56-.12,4.67,2.56,4.76,2.67a.51.51,0,0,1-.1.7.5.5,0,0,1-.7-.09s-1.9-2.39-3.91-2.28a3.78,3.78,0,0,0-2.83,2.16,5.56,5.56,0,0,0-.76,4.33c.82,3.33,4.61,5.63,4.64,5.66a.49.49,0,0,1-.25.92Z" fill="#231f20"/><path d="M137.9,150.84a.46.46,0,0,1-.28-.08c-.26-.18-6.22-4.33-4.25-9.8.82-2.28,1.91-3.54,3.26-3.75,2-.3,3.58,1.78,3.65,1.87a.51.51,0,0,1-.1.7.52.52,0,0,1-.7-.09s-1.33-1.71-2.7-1.49c-.94.15-1.79,1.22-2.47,3.1-1.71,4.75,3.81,8.59,3.87,8.63a.5.5,0,0,1,.13.7A.49.49,0,0,1,137.9,150.84Z" fill="#231f20"/><path d="M128.47,149.93a.47.47,0,0,1-.35-.15c-.18-.19-4.37-4.54-4-7.78.34-2.78,2.43-4.77,4.86-4.58,3,.2,3.62,2,3.64,2.06a.5.5,0,1,1-.94.33c0-.06-.51-1.24-2.77-1.4-1.89-.12-3.52,1.47-3.8,3.72-.34,2.76,3.65,6.91,3.69,7a.5.5,0,0,1,0,.71A.52.52,0,0,1,128.47,149.93Z" fill="#231f20"/><path d="M248.55,209.54a.65.65,0,0,1-.19,0l-53-21.79a.5.5,0,0,1,.38-.93l52.5,21.6c1.85-4.67,16.89-42.48,26.74-60.71a.51.51,0,0,1,.68-.2.5.5,0,0,1,.2.68c-10.43,19.29-26.71,60.65-26.87,61.07a.53.53,0,0,1-.27.28A.65.65,0,0,1,248.55,209.54Z" fill="#231f20"/><path d="M251.15,250.37c-9.91,0-24.09-5.47-42.17-16.24a287.68,287.68,0,0,1-24.24-16.21.51.51,0,0,1-.1-.7.5.5,0,0,1,.7-.09c.43.32,42.58,32.24,65.81,32.24h0c20.19,0,42.67-41.49,51.92-79.91a.5.5,0,0,1,.6-.36.49.49,0,0,1,.37.6c-4.74,19.68-12.71,39.57-21.86,54.57-13.16,21.56-24.14,26.09-31,26.1Z" fill="#231f20"/><path d="M180.44,85.8A54.39,54.39,0,0,1,167,80.57a39.54,39.54,0,1,0-2.37,6.08A26.38,26.38,0,0,0,180.44,85.8Z" fill="#fff"/><path d="M129.08,109.34a40.05,40.05,0,1,1,38.5-29,54.83,54.83,0,0,0,13,5,.48.48,0,0,1,.39.45.51.51,0,0,1-.33.51,26.85,26.85,0,0,1-15.72,1A39.8,39.8,0,0,1,129.08,109.34Zm0-79.1a39.05,39.05,0,1,0,35.09,56.19.51.51,0,0,1,.58-.27,25.43,25.43,0,0,0,13.91-.31A55.06,55.06,0,0,1,166.75,81a.5.5,0,0,1-.24-.58,39,39,0,0,0-37.43-50.18Z" fill="#d1d3d4"/><polyline points="126.63 43.07 126.63 75.17 149.75 58.25" fill="#fff"/><path d="M126.63,75.67a.59.59,0,0,1-.23,0,.5.5,0,0,1-.27-.45V43.07a.5.5,0,0,1,.5-.5.5.5,0,0,1,.5.5V74.19l22.33-16.34a.5.5,0,1,1,.59.81L126.92,75.57A.46.46,0,0,1,126.63,75.67Z" fill="#d1d3d4"/><rect x="84.83" y="87.42" width="53.83" height="32.85" rx="4.23" fill="#fff"/><path d="M134.42,120.77H89.06A4.73,4.73,0,0,1,84.33,116V91.65a4.73,4.73,0,0,1,4.73-4.73h45.36a4.73,4.73,0,0,1,4.73,4.73V116A4.73,4.73,0,0,1,134.42,120.77ZM89.06,87.92a3.73,3.73,0,0,0-3.73,3.73V116a3.74,3.74,0,0,0,3.73,3.73h45.36a3.74,3.74,0,0,0,3.73-3.73V91.65a3.73,3.73,0,0,0-3.73-3.73Z" fill="#d1d3d4"/><path d="M131.1,97H92.38a.5.5,0,0,1-.5-.5.5.5,0,0,1,.5-.5H131.1a.5.5,0,0,1,.5.5A.5.5,0,0,1,131.1,97Z" fill="#d1d3d4"/><path d="M131.1,104.34H92.38a.5.5,0,0,1-.5-.5.5.5,0,0,1,.5-.5H131.1a.5.5,0,0,1,.5.5A.5.5,0,0,1,131.1,104.34Z" fill="#d1d3d4"/><path d="M125.55,111.68H92.38a.5.5,0,0,1,0-1h33.17a.5.5,0,1,1,0,1Z" fill="#d1d3d4"/></g></svg>