<svg xmlns="http://www.w3.org/2000/svg" viewBox="0 0 400 300"><g id="_121_team_presentation_flatline" data-name="#121_team_presentation_flatline"><rect x="105.33" y="44.51" width="189.33" height="90.8" fill="#fff"/><path d="M294.67,135.81H105.33a.5.5,0,0,1-.5-.5V44.51a.5.5,0,0,1,.5-.5H294.67a.5.5,0,0,1,.5.5v90.8A.5.5,0,0,1,294.67,135.81Zm-188.84-1H294.17V45H105.83Z" fill="#d1d3d4"/><path d="M200,128.12H114.59a.51.51,0,0,1-.51-.51V54a.51.51,0,0,1,.51-.51H200a.51.51,0,0,1,.51.51v73.64A.51.51,0,0,1,200,128.12Zm-84.89-1h84.38V54.48H115.11Z" fill="#d1d3d4"/><path d="M275.91,57.72H215a.52.52,0,1,1,0-1h60.9a.52.52,0,1,1,0,1Z" fill="#d1d3d4"/><path d="M275.91,68.71H215a.52.52,0,0,1-.52-.52.52.52,0,0,1,.52-.52h60.9a.52.52,0,0,1,.52.52A.52.52,0,0,1,275.91,68.71Z" fill="#d1d3d4"/><path d="M275.91,79.69H215a.52.52,0,1,1,0-1h60.9a.52.52,0,0,1,0,1Z" fill="#d1d3d4"/><path d="M270.25,90.68H215a.53.53,0,0,1,0-1.05h55.24a.53.53,0,0,1,0,1.05Z" fill="#d1d3d4"/><path d="M235.31,125.79H215a.5.5,0,0,1-.5-.5v-9.84a.5.5,0,0,1,.5-.5h20.3a.5.5,0,0,1,.5.5v9.84A.5.5,0,0,1,235.31,125.79Zm-19.8-1h19.3V116h-19.3Z" fill="#d1d3d4"/><path d="M314.22,226.89H85.78a.48.48,0,1,1,0-.95H314.22a.48.48,0,1,1,0,.95Z" fill="#d1d3d4"/><path d="M252.43,111.31,244,117.2l-2.62-27s3.74-3.91,2.61-4.75-3.23,1.88-3.23,1.88-2.26-10-3.38-10.19-1.55,1.11-1.41,2,1,5.08,1,5.08-4.37,2.62-5.07,4.48,2.25,4.74,2.25,4.74-1.55,36.67,3.1,40.19S257,124,257,124" fill="#fff"/><path d="M239.31,134.65A3.74,3.74,0,0,1,237,134c-.76-.58-3.08-2.34-3.47-21.78-.18-8.73.13-17.2.19-18.6-.67-.68-2.94-3.2-2.22-5.08s3.94-3.89,5-4.54c-.2-1-.81-4.06-.93-4.78a2.48,2.48,0,0,1,.56-2,1.52,1.52,0,0,1,1.35-.46c.92.11,2.12,3.36,3.57,9.66.82-.88,2.22-2.06,3.27-1.27a1,1,0,0,1,.39.73c.11,1.32-2.07,3.77-2.8,4.55l2.52,26,7.76-5.44a.45.45,0,1,1,.52.74l-8.4,5.89a.43.43,0,0,1-.45,0,.42.42,0,0,1-.26-.37l-2.62-27a.42.42,0,0,1,.12-.36c1.16-1.21,2.76-3.26,2.7-4-.53-.46-1.86.73-2.63,1.72a.46.46,0,0,1-.46.17.46.46,0,0,1-.35-.35c-1-4.41-2.44-9.43-3.07-9.86a.71.71,0,0,0-.5.21,1.57,1.57,0,0,0-.32,1.25c.14.83,1,5,1,5.06a.44.44,0,0,1-.21.48c-1.18.71-4.34,2.85-4.87,4.25s1.38,3.51,2.14,4.25a.5.5,0,0,1,.14.35c-.43,10.13-.74,37,2.91,39.81s15-6,19.14-9.56a.46.46,0,0,1,.64,0,.45.45,0,0,1,0,.64,83.61,83.61,0,0,1-8.17,6.15C244.89,133.26,241.61,134.65,239.31,134.65Z" fill="#231f20"/><path d="M266.42,229.61c.12.81-.68,10.15-.68,10.15s-11.44,2-11.5,1.22-3.46-4.25-3.46-4.25l4.61-2.15.4-11.28Z" fill="#fff"/><path d="M255.18,241.58a2.31,2.31,0,0,1-1.18-.18.6.6,0,0,1-.21-.38,23.3,23.3,0,0,0-3.34-4,.46.46,0,0,1,.13-.73l4.36-2,.4-11a.43.43,0,0,1,.23-.38.47.47,0,0,1,.46,0l10.62,6.32a.45.45,0,0,1,.22.32c.13.82-.54,8.69-.68,10.26a.44.44,0,0,1-.37.41A85.43,85.43,0,0,1,255.18,241.58Zm-.56-.9c1,.16,6-.52,10.69-1.31.29-3.34.68-8.34.67-9.49l-9.76-5.8-.37,10.52a.46.46,0,0,1-.27.4l-4,1.88A19,19,0,0,1,254.62,240.68Z" fill="#231f20"/><polygon points="301.08 230.42 302.75 241.97 295.17 241.97 290.73 229.61 301.08 230.42" fill="#fff"/><path d="M302.75,242.43h-7.58a.45.45,0,0,1-.43-.3l-4.44-12.36a.49.49,0,0,1,.07-.44.43.43,0,0,1,.4-.17l10.35.8a.46.46,0,0,1,.41.39l1.67,11.56a.44.44,0,0,1-.11.36A.43.43,0,0,1,302.75,242.43Zm-7.26-.91h6.73l-1.54-10.67-9.28-.73Z" fill="#231f20"/><path d="M275.75,73.72a7,7,0,0,1,.78,0,17.65,17.65,0,0,1,3.53,1.18c1.83-1.28,4.34-1,6.45-.29s5,2.36,6.18,4.47c2.19,3.86,2.64,8.73,5.71,11.93,1.46,1.53,3.39,2.52,5,3.9a13.09,13.09,0,0,1,4.35,8.23,8.27,8.27,0,0,1-.52,4.38,9.78,9.78,0,0,1-3.08,3.54c-5.34,4.13-12.15,5.74-18.73,7.25a21.1,21.1,0,0,1-8,.79,15,15,0,0,1-5.2-2,13.88,13.88,0,0,1-5-4.58c-2.44-4-1.13-10.42-.68-14.88.57-5.54.42-11.47,2.8-16.63A24.14,24.14,0,0,1,273,74.89,4.7,4.7,0,0,1,275.75,73.72Z" fill="#fff"/><path d="M279.28,119.66a12.45,12.45,0,0,1-1.93-.15,15.55,15.55,0,0,1-5.36-2.08,14.12,14.12,0,0,1-5.17-4.73c-2.15-3.56-1.51-8.81-1-13,.09-.75.18-1.46.25-2.13.12-1.24.21-2.49.31-3.74.31-4.4.64-9,2.53-13a23,23,0,0,1,3.74-6.19,5.24,5.24,0,0,1,3-1.3h0a7.86,7.86,0,0,1,.83,0A20.35,20.35,0,0,1,280,74.33c2.28-1.41,5.12-.73,6.64-.19,2.29.82,5.19,2.48,6.43,4.67a30.12,30.12,0,0,1,2.07,5c.92,2.59,1.78,5,3.57,6.9a18.55,18.55,0,0,0,2.78,2.22c.73.52,1.49,1.05,2.18,1.65a13.52,13.52,0,0,1,4.5,8.51,8.7,8.7,0,0,1-.55,4.62,10.27,10.27,0,0,1-3.22,3.72c-5.52,4.27-12.63,5.9-18.91,7.34A27.86,27.86,0,0,1,279.28,119.66ZM275.8,74.18a4.3,4.3,0,0,0-2.49,1,22.42,22.42,0,0,0-3.56,5.93c-1.82,3.94-2.14,8.4-2.45,12.72-.09,1.27-.19,2.53-.31,3.77-.07.68-.16,1.4-.25,2.15-.5,4.08-1.13,9.16.86,12.45a13.33,13.33,0,0,0,4.85,4.41,14.51,14.51,0,0,0,5,2c2.61.41,5.38-.22,7.82-.78,6.18-1.42,13.19-3,18.55-7.17a9.49,9.49,0,0,0,2.94-3.37,7.84,7.84,0,0,0,.49-4.14,12.66,12.66,0,0,0-4.2-7.93A25.3,25.3,0,0,0,301,93.63a19.5,19.5,0,0,1-2.91-2.34c-1.93-2-2.86-4.66-3.77-7.23a29.84,29.84,0,0,0-2-4.8c-1.11-2-3.8-3.49-5.94-4.26-1.4-.5-4.06-1.14-6,.23a.46.46,0,0,1-.59-.06,24.69,24.69,0,0,0-3.21-1c-.22,0-.47,0-.72.05Z" fill="#231f20"/><polygon points="260.9 144.52 268.61 104.05 290.81 105.82 290.73 140.51 260.9 144.52" fill="#fff"/><path d="M260.9,145a.47.47,0,0,1-.33-.14.45.45,0,0,1-.12-.4L268.16,104a.47.47,0,0,1,.49-.37l22.2,1.77a.47.47,0,0,1,.42.46l-.08,34.7a.46.46,0,0,1-.4.45L261,145ZM269,104.54,261.47,144l28.81-3.87.07-33.87Z" fill="#231f20"/><path d="M293.9,138.88s6.15,67.4,8.85,92.13l-11.94,1.87s-6.15-29.37-13.86-51.62l-7.39,51.62-15.32-1.72,4.12-90.65Z" fill="#231f20"/><path d="M309.47,124.77s-.93-4.72-6.69-12.5-19.36-8.86-19.68-8.86c.32,0,5.9.55-10.16-.93-9.44-.87-23.24,8.87-23.24,8.87L254.91,127l4.12-3-2.95,24.89,41.19,2.67-1.35-22.88ZM278.07,127c-4.75-16.77-5.13-19.42-5.13-19.63l12.62.5Z" fill="#cdcd32"/><path d="M274.74,100.23s-1.45,7.84-1.45,7.84-.08,4.56,5,4.18a10.09,10.09,0,0,0,7.48-4.36q.81-4.86,1.6-9.7c.6-3.6,1.58-7.37,1.77-11-3.79,1.21-8.46-3.57-9.65-6.68a5.84,5.84,0,0,0,1.21,5.62,7.21,7.21,0,0,1-4.48-4.64,27.54,27.54,0,0,0-3.13,2.82,13.8,13.8,0,0,0-1.9,3.87c-.73,2.42-1.36,6-.14,8.41C272.62,99.65,274.74,100.23,274.74,100.23Z" fill="#fff"/><path d="M277.68,112.73a4.77,4.77,0,0,1-3.42-1.2,5,5,0,0,1-1.42-3.47c.92-5,1.26-6.87,1.38-7.54a7.89,7.89,0,0,1-3.6-3.72c-1.46-2.8-.41-7,.11-8.75a14,14,0,0,1,2-4s3-3.09,3.57-3a.48.48,0,0,1,.37.33A6.79,6.79,0,0,0,279.35,85a6.29,6.29,0,0,1-.32-4.61.46.46,0,0,1,.42-.32.45.45,0,0,1,.44.3c1.11,2.91,5.6,7.52,9.08,6.4a.46.46,0,0,1,.42.08.43.43,0,0,1,.17.38,53.38,53.38,0,0,1-1.12,7.6c-.23,1.16-.46,2.31-.65,3.45l-1.6,9.7a.49.49,0,0,1-.06.17,10.44,10.44,0,0,1-7.84,4.57Zm-3.94-4.58a4.26,4.26,0,0,0,1.15,2.72,4.18,4.18,0,0,0,3.33.92,9.73,9.73,0,0,0,7.09-4.07l1.58-9.61c.19-1.14.42-2.3.65-3.47a60.63,60.63,0,0,0,1.07-6.86c-3.48.59-7.26-2.9-9-5.83A5.43,5.43,0,0,0,281,85.83a.45.45,0,0,1-.49.73A7.68,7.68,0,0,1,276,82.21c-.78.66-2.34,2.13-2.53,2.37a12.9,12.9,0,0,0-1.83,3.74c-.48,1.59-1.47,5.56-.17,8.06,1.49,2.85,3.41,3.4,3.43,3.41a.46.46,0,0,1,.33.53c0,.11-1.43,7.72-1.45,7.83Z" fill="#231f20"/><path d="M287,92.58a2.81,2.81,0,0,1,1.18-1.32,5,5,0,0,1,1.61-.51,2,2,0,0,1,.92,0,1.57,1.57,0,0,1,.56.32,2.17,2.17,0,0,1,.85,1.23,2.54,2.54,0,0,1-.15,1.22,5,5,0,0,1-.53,1.24,3.42,3.42,0,0,1-4.73,1" fill="#fff"/><path d="M288.6,96.68a3.82,3.82,0,0,1-2.07-.61.37.37,0,0,1-.1-.5.36.36,0,0,1,.5-.11,3,3,0,0,0,4.22-.91,4.64,4.64,0,0,0,.5-1.15,2.35,2.35,0,0,0,.13-1,1.83,1.83,0,0,0-.71-1,1.19,1.19,0,0,0-.44-.25,1.64,1.64,0,0,0-.76,0,4.67,4.67,0,0,0-1.49.46,2.43,2.43,0,0,0-1,1.15.36.36,0,0,1-.67-.28,3.18,3.18,0,0,1,1.33-1.5,5.16,5.16,0,0,1,1.73-.54,2.31,2.31,0,0,1,1.08,0,2.14,2.14,0,0,1,.69.38,2.45,2.45,0,0,1,1,1.46,2.79,2.79,0,0,1-.15,1.39,5.11,5.11,0,0,1-.58,1.32,3.77,3.77,0,0,1-2.38,1.66A4,4,0,0,1,288.6,96.68Z" fill="#231f20"/><path d="M274.3,103.35s3.05,1.52,5.53-.19a5.61,5.61,0,0,0,2.61-3.92s-4.63,2.31-7.71,1.15Z" fill="#231f20"/><path d="M277.1,104.42a7.11,7.11,0,0,1-3-.68.43.43,0,0,1-.24-.45l.42-3a.43.43,0,0,1,.22-.32.42.42,0,0,1,.38,0c2.86,1.08,7.3-1.11,7.35-1.13a.44.44,0,0,1,.64.42,6,6,0,0,1-2.8,4.25A5.16,5.16,0,0,1,277.1,104.42Zm-2.31-1.34a5.3,5.3,0,0,0,4.79-.28,5.66,5.66,0,0,0,2.23-2.8c-1.4.58-4.34,1.58-6.72,1Z" fill="#231f20"/><path d="M275.85,87.7s-3.29,3.27-2.82,4,2.24.68,2.24.68" fill="#fff"/><path d="M275.06,92.83c-.56,0-1.89-.08-2.37-.88S274,89,275.56,87.41a.41.41,0,0,1,.57,0,.4.4,0,0,1,0,.57c-1.52,1.51-2.8,3.18-2.74,3.58.24.4,1.36.48,1.86.45a.41.41,0,0,1,.42.38.4.4,0,0,1-.38.43Z" fill="#231f20"/><ellipse cx="280.02" cy="88.74" rx="0.9" ry="0.64" transform="translate(86.61 309.83) rotate(-66.41)" fill="#231f20"/><ellipse cx="273.06" cy="87.5" rx="0.9" ry="0.64" transform="translate(83.58 302.71) rotate(-66.41)" fill="#231f20"/><path d="M271.84,93.71s1.59,3.81,6.23,1.38" fill="#fff"/><path d="M275.22,96.31a4,4,0,0,1-1.39-.24,4.22,4.22,0,0,1-2.36-2.21.39.39,0,0,1,.21-.52.4.4,0,0,1,.53.21,3.54,3.54,0,0,0,1.9,1.76,4.72,4.72,0,0,0,3.77-.57.4.4,0,0,1,.55.17.41.41,0,0,1-.17.54A6.65,6.65,0,0,1,275.22,96.31Z" fill="#231f20"/><line x1="297.27" y1="151.59" x2="295.52" y2="113.87" fill="#fff"/><path d="M297.27,152.05a.46.46,0,0,1-.45-.44l-1.75-37.72a.46.46,0,0,1,.43-.48.5.5,0,0,1,.48.44l1.75,37.72a.47.47,0,0,1-.44.48Z" fill="#231f20"/><path d="M293.79,237s6.8-3.76,9.67,0a17.51,17.51,0,0,1,3.13,8.57s-14.3,2.39-14.41,0S293.79,237,293.79,237Z" fill="#231f20"/><path d="M253,233.67l3,5.05,12-1-.2,6.14s-25.44,2.26-26.14-.59S253,233.67,253,233.67Z" fill="#231f20"/><polygon points="280.32 130.44 259.84 134.19 265.05 158.74 286.63 157.61 280.32 130.44" fill="#fff"/><path d="M265.05,159.2a.46.46,0,0,1-.45-.37l-5.21-24.54a.48.48,0,0,1,.07-.35.52.52,0,0,1,.3-.2L280.24,130a.47.47,0,0,1,.53.35l6.31,27.17a.47.47,0,0,1-.08.38.46.46,0,0,1-.34.18l-21.59,1.13Zm-4.67-24.64,5,23.7,20.66-1.07L280,131Z" fill="#231f20"/><path d="M297.58,128.22s3.41,13.44,2.66,14.19-14.68-1.2-14.68-1.2-2.16-5.18-3.12-4.62,0,4.13,0,4.13-6.2-2.77-6.59-1a23.08,23.08,0,0,0,0,7.2c.37,1.13,30.73,9.86,34.67,4.68s-2.7-26.34-2.7-26.34" fill="#fff"/><path d="M304.44,153.68a54.84,54.84,0,0,1-8.86-.9c-7.82-1.31-19.78-4.56-20.17-5.72a23.2,23.2,0,0,1,0-7.45,1.08,1.08,0,0,1,.6-.75c1.22-.62,4.21.45,5.77,1.08-.26-1.27-.48-3.21.43-3.74a.74.74,0,0,1,.66-.06c1.08.36,2.47,3.39,3,4.65,6.18.86,12.91,1.55,14,1.28.18-1.12-1.23-7.75-2.76-13.73a.46.46,0,0,1,.89-.23c2.31,9.08,3.17,14,2.55,14.62s-8.61-.16-15.07-1.07a.45.45,0,0,1-.36-.28c-.93-2.22-2.13-4.27-2.56-4.38-.25.18-.15,1.94.3,3.6a.47.47,0,0,1-.15.47.46.46,0,0,1-.48.07c-1.92-.86-5-1.89-5.83-1.47-.09.05-.11.09-.12.14a23,23,0,0,0,0,6.88c1.42,1,21,6.78,30.07,6,2-.17,3.26-.64,3.83-1.38,3.75-4.93-2.71-25.71-2.78-25.92a.46.46,0,0,1,.88-.28c.27.88,6.66,21.45,2.62,26.76C310,153.07,307.81,153.68,304.44,153.68Z" fill="#231f20"/><rect x="285.04" y="176.53" width="8.63" height="73.68" fill="#fff"/><path d="M293.67,250.67H285a.46.46,0,0,1-.46-.45V176.53a.46.46,0,0,1,.46-.45h8.63a.45.45,0,0,1,.46.45v73.69A.45.45,0,0,1,293.67,250.67Zm-8.17-.91h7.72V177H285.5Z" fill="#231f20"/><rect x="93.58" y="176.53" width="65.14" height="73.68" fill="#fff"/><path d="M158.72,250.67H93.58a.46.46,0,0,1-.46-.45V176.53a.46.46,0,0,1,.46-.45h65.14a.46.46,0,0,1,.46.45v73.69A.46.46,0,0,1,158.72,250.67ZM94,249.76h64.22V177H94Z" fill="#231f20"/><path d="M153.07,200.76H99.59a.5.5,0,0,1-.5-.5V183a.5.5,0,0,1,.5-.5h53.48a.5.5,0,0,1,.5.5v17.31A.5.5,0,0,1,153.07,200.76Zm-53-1h52.48V183.45H100.09Z" fill="#d1d3d4"/><path d="M153.07,222.53H99.59a.5.5,0,0,1-.5-.5V204.72a.5.5,0,0,1,.5-.5h53.48a.5.5,0,0,1,.5.5V222A.5.5,0,0,1,153.07,222.53Zm-53-1h52.48V205.22H100.09Z" fill="#d1d3d4"/><path d="M153.07,244.29H99.59a.5.5,0,0,1-.5-.5v-17.3a.5.5,0,0,1,.5-.5h53.48a.5.5,0,0,1,.5.5v17.3A.5.5,0,0,1,153.07,244.29Zm-53-1h52.48V227H100.09Z" fill="#d1d3d4"/><rect x="88.23" y="168.03" width="217.93" height="8.5" fill="#fff"/><path d="M306.16,177H88.23a.47.47,0,0,1-.46-.46V168a.47.47,0,0,1,.46-.46H306.16a.46.46,0,0,1,.45.46v8.5A.46.46,0,0,1,306.16,177Zm-217.47-.91h217v-7.59h-217Z" fill="#231f20"/><path d="M218.81,135.42c-1.55-1-7.18,5.35-7.74,5.19s1.83-3.5.56-4.21-6.76,8.45-6.76,8.45l-19.52,15.77-8.07-8.52-12.21,9.31s13.76,18.27,18,17.6c5.34-.84,27.42-28.81,27.42-28.81s8.72-7.6,9.43-10.12S220.36,136.4,218.81,135.42Z" fill="#fff"/><path d="M182.88,179.48c-4.63,0-16.78-15.94-18.18-17.79a.46.46,0,0,1,.09-.64L177,151.73a.46.46,0,0,1,.61.05l7.78,8.22,19.13-15.46c2.61-4.33,6-9.29,7.33-8.54,1.14.63.44,2.29-.07,3.5,0,0,0,.07,0,.11l1-.94c2.81-2.53,5.06-4.41,6.27-3.64h0c1.73,1.11,2.08,2.46,1.32,5.17s-8.67,9.56-9.57,10.34c-.85,1.09-22.19,28.06-27.65,28.92A1.32,1.32,0,0,1,182.88,179.48Zm-17.18-18c5.5,7.24,14.46,17.52,17.31,17.06,4.25-.67,21-20.9,27.14-28.64,2.45-2.16,8.8-8,9.35-10,.72-2.57.27-3.39-.93-4.16h0c-.73-.45-3.84,2.35-5.17,3.55-1.63,1.47-2,1.82-2.46,1.7a.74.74,0,0,1-.35-.3c-.17-.36,0-.8.35-1.61s.89-2.11.47-2.34c-.75.09-3.79,4.36-6.14,8.28a.43.43,0,0,1-.11.12L185.64,161a.46.46,0,0,1-.62,0l-7.79-8.22Z" fill="#231f20"/><path d="M157.85,116.16s5.71,3.56,5.29,4.63-3.14,1-3.14,1" fill="#fff"/><path d="M160.21,122.23H160a.45.45,0,0,1-.43-.46.44.44,0,0,1,.45-.43c1,0,2.52-.18,2.72-.71,0-.5-2.38-2.39-5.11-4.1a.44.44,0,0,1,.46-.75c2.75,1.71,5.93,4,5.48,5.17S161,122.23,160.21,122.23Z" fill="#231f20"/><path d="M155,107.47s6.54,10.92,6,17.21-8.27,5.79-8.27,5.79l1.07,7.77s-10.25.42-10.25,0-3.81-19.68-3.56-25S152,106,155,107.47Z" fill="#fff"/><path d="M146.58,138.89c-3,0-3.22-.19-3.33-.29a.53.53,0,0,1-.15-.36c0-.1-.18-1-.38-2.15-1-5.56-3.38-18.56-3.18-22.85.08-1.67,1.2-3.18,3.23-4.37,3.9-2.29,10.19-2.91,12.41-1.8a.42.42,0,0,1,.18.17c.27.45,6.61,11.12,6.1,17.47-.44,5.64-6.34,6.19-8.2,6.22l1,7.25a.47.47,0,0,1-.11.36.5.5,0,0,1-.33.16C150.43,138.84,148.13,138.89,146.58,138.89Zm-2.61-1c1.05.14,5.34.06,9.32-.09l-1-7.28a.45.45,0,0,1,.11-.37.51.51,0,0,1,.37-.15c.3,0,7.33.39,7.78-5.37s-5.2-15.61-5.9-16.81c-1.91-.81-7.73-.33-11.42,1.83-1.22.72-2.69,1.93-2.77,3.63-.2,4.18,2.24,17.59,3.16,22.63C143.82,137,143.92,137.61,144,137.9Z" fill="#231f20"/><path d="M133.28,113.86c0-.19,0-.38,0-.57a4.78,4.78,0,0,1,1.49-3.34c.45-.51,2.52-2.71,3.3-2.46a7.55,7.55,0,0,0-5.71.48,4.26,4.26,0,0,1,2.06-2.19,17.9,17.9,0,0,1,9.07-2.62,15,15,0,0,0-3.79-.86c3.41-2.81,16.49-3.91,16.91,2.78.18,2.76-2.89,3.77-4.93,4.79-2.31,1.16-1.73,4.63-.58,11.25s-1.83,9-1.83,9c-1,.78-4,.86-5.21,1.07-1.62.29-5.49.53-6.46-1.09-.8-1.32.7-2.39.6-3.66s-1.57-2.9-2.15-4A22,22,0,0,1,133.28,113.86Z" fill="#fff"/><path d="M141.54,131.87c-1.65,0-3.61-.28-4.35-1.52a2.5,2.5,0,0,1,.16-2.58,2.62,2.62,0,0,0,.37-1.28,6.63,6.63,0,0,0-1.29-2.56,14.69,14.69,0,0,1-.81-1.3,23,23,0,0,1-2.8-8.75h0c0-.19,0-.39,0-.59a5.29,5.29,0,0,1,1.6-3.64,13.34,13.34,0,0,1,2.13-2,7,7,0,0,0-4,.74.46.46,0,0,1-.5-.06.47.47,0,0,1-.15-.48,4.73,4.73,0,0,1,2.26-2.45,18.31,18.31,0,0,1,6.72-2.47c-.41-.07-.83-.13-1.24-.17a.45.45,0,0,1-.4-.32.44.44,0,0,1,.15-.48c2.61-2.15,10-3.19,14.23-1.35a5.13,5.13,0,0,1,3.43,4.45c.17,2.71-2.34,3.89-4.36,4.84l-.82.39c-2,1-1.52,4-.34,10.76s-1.86,9.34-2,9.45c-.83.66-2.69.86-4.19,1-.49.05-.92.1-1.23.15A15.88,15.88,0,0,1,141.54,131.87Zm-7.81-18a22.06,22.06,0,0,0,2.7,8.38,12.6,12.6,0,0,0,.76,1.21,7.24,7.24,0,0,1,1.45,3,3.48,3.48,0,0,1-.47,1.74c-.33.72-.52,1.19-.2,1.72.73,1.22,3.94,1.25,6,.89.33-.06.78-.11,1.29-.17,1.24-.13,3.1-.33,3.71-.82.11-.09,2.76-2.35,1.67-8.58-1.17-6.71-1.82-10.41.83-11.74l.85-.4c1.85-.87,4-1.86,3.83-4a4.23,4.23,0,0,0-2.88-3.67c-3.67-1.59-9.45-.82-12.27.57a15.2,15.2,0,0,1,2.64.73.45.45,0,0,1-.16.88,17.32,17.32,0,0,0-8.83,2.55,6.43,6.43,0,0,0-1.15.85,7.93,7.93,0,0,1,4.7,0h0a.46.46,0,0,1-.28.87c-.35-.05-1.76,1.1-2.82,2.32a4.37,4.37,0,0,0-1.38,3c0,.19,0,.37,0,.55Z" fill="#231f20"/><path d="M152.94,119.37a7.19,7.19,0,0,0-3.49-2.2c-1.37-.25-3,.66-3,2a3,3,0,0,0,.31,1.2,9.1,9.1,0,0,0,6.36,5.19" fill="#fff"/><path d="M153.07,126.07H153a9.55,9.55,0,0,1-6.69-5.46,3.46,3.46,0,0,1-.35-1.38,2.35,2.35,0,0,1,.89-1.78,3.37,3.37,0,0,1,2.7-.72,7.6,7.6,0,0,1,3.72,2.32.45.45,0,0,1,0,.65.46.46,0,0,1-.64,0,7,7,0,0,0-3.26-2.09,2.46,2.46,0,0,0-2,.52,1.43,1.43,0,0,0-.56,1.09,2.74,2.74,0,0,0,.26,1,8.61,8.61,0,0,0,6,4.92.46.46,0,0,1-.1.91Z" fill="#231f20"/><path d="M156.84,251.5a6.61,6.61,0,0,0,.9,4.15c1.24,1.83.95,7.19.95,7.19h-11.3s-.31-6.5.4-7.42,1-.15,1.21-1.29a13.09,13.09,0,0,0-.58-3.91Z" fill="#231f20"/><path d="M158.69,263.28h-11.3a.44.44,0,0,1-.44-.42c-.08-1.56-.26-6.73.49-7.71a1.79,1.79,0,0,1,.95-.7c.07,0,.12-.09.18-.4a12.4,12.4,0,0,0-.57-3.71.44.44,0,0,1,.49-.56l8.42,1.28a.45.45,0,0,1,.37.5,6.13,6.13,0,0,0,.83,3.84c1.3,1.94,1,7.24,1,7.46A.44.44,0,0,1,158.69,263.28Zm-10.88-.88h10.46c0-1.7,0-5.22-.89-6.5a6.9,6.9,0,0,1-1-4L149,250.75a10.75,10.75,0,0,1,.42,3.47c-.15.74-.38.94-.78,1.07a.92.92,0,0,0-.52.4C147.78,256.16,147.69,259.45,147.81,262.4Z" fill="#231f20"/><path d="M190,250.64s.53,3.57,1.69,4.28,6.85,1.28,7.28,2.56a13.58,13.58,0,0,1,0,4.28H181.56V249.54Z" fill="#231f20"/><path d="M198.94,262.2H181.56a.44.44,0,0,1-.44-.44V249.54a.43.43,0,0,1,.5-.43l8.4,1.1a.43.43,0,0,1,.38.37c.2,1.3.78,3.52,1.49,4a12.69,12.69,0,0,0,2.62.75c2.72.62,4.53,1.1,4.85,2a13.59,13.59,0,0,1,0,4.48A.44.44,0,0,1,198.94,262.2ZM182,261.32h16.55a11.17,11.17,0,0,0,0-3.7c-.18-.56-2.8-1.15-4.2-1.47a12.66,12.66,0,0,1-2.89-.86c-1.11-.68-1.67-3.28-1.85-4.25l-7.58-1Z" fill="#231f20"/><polygon points="157.74 253 147.39 253 133.81 204.39 155.08 199.83 157.74 253" fill="#fff"/><path d="M157.74,253.46H147.39a.45.45,0,0,1-.44-.33l-13.58-48.62a.45.45,0,0,1,0-.36.49.49,0,0,1,.3-.21L155,199.38a.42.42,0,0,1,.37.09.44.44,0,0,1,.18.33L158.2,253a.48.48,0,0,1-.13.34A.44.44,0,0,1,157.74,253.46Zm-10-.91h9.53l-2.61-52.16-20.27,4.34Z" fill="#231f20"/><path d="M157.17,191.09s21,4.75,28,9.69c3,2.11,5.54,51.66,5.54,51.66l-9.25,1.13s-8.35-40.44-11.58-41.77-20.33-.76-20.33-.76S144.06,196.24,157.17,191.09Z" fill="#fff"/><path d="M181.48,254a.45.45,0,0,1-.44-.36c-3.21-15.55-9.13-40.54-11.31-41.44-3.11-1.28-20-.73-20.14-.73a.48.48,0,0,1-.45-.3c0-.15-5.51-15.27,7.86-20.53a.5.5,0,0,1,.27,0c.86.2,21.13,4.83,28.18,9.76.57.4,2.07,1.45,4.1,27,1,12.51,1.63,24.92,1.64,25a.46.46,0,0,1-.4.47L181.54,254Zm-24.06-43.56c5,0,10.84.17,12.65.91,3.23,1.33,10.19,34,11.78,41.69l8.4-1c-1-19.1-3.27-49.45-5.32-50.89-6.61-4.62-25.9-9.16-27.72-9.58a12.33,12.33,0,0,0-8.3,11.45,21.74,21.74,0,0,0,1,7.55C150.92,210.54,154,210.46,157.42,210.46Z" fill="#231f20"/><path d="M131.62,134.1s25.65-3.42,32.48,0,21.09,24.83,21.09,24.83l-17.95,7.62,2.84,38S169,211,148.05,211s-21-2.57-21-2.57-4.84-29.63-3.13-45.59l-10-3.13S119.37,140.08,131.62,134.1Z" fill="#cdcd32"/><rect x="122.79" y="210.28" width="49.2" height="7.98" rx="3.43" transform="translate(294.78 428.53) rotate(-180)" fill="#231f20"/><path d="M168.56,218.7H126.21a3.87,3.87,0,0,1-3.86-3.87V213.7a3.87,3.87,0,0,1,3.86-3.87h42.35a3.88,3.88,0,0,1,3.87,3.87v1.13A3.88,3.88,0,0,1,168.56,218.7Zm-42.35-8a3,3,0,0,0-3,3v1.13a3,3,0,0,0,3,3h42.35a3,3,0,0,0,3-3V213.7a3,3,0,0,0-3-3Z" fill="#231f20"/><polygon points="167.24 215.88 171.99 268.31 168.38 268.31 161.54 214.26 167.24 215.88" fill="#231f20"/><path d="M172,268.75h-3.61a.44.44,0,0,1-.44-.38l-6.84-54.05a.44.44,0,0,1,.15-.39.44.44,0,0,1,.41-.09l5.7,1.62a.44.44,0,0,1,.32.38l4.75,52.43a.45.45,0,0,1-.44.48Zm-3.22-.88h2.74l-4.68-51.65-4.77-1.35Z" fill="#231f20"/><polygon points="128.11 215.88 123.36 268.31 126.97 268.31 133.81 214.26 128.11 215.88" fill="#231f20"/><path d="M127,268.75h-3.61a.45.45,0,0,1-.33-.14.47.47,0,0,1-.11-.34l4.75-52.43a.42.42,0,0,1,.32-.38l5.69-1.62a.43.43,0,0,1,.41.09.44.44,0,0,1,.15.39l-6.84,54.05A.42.42,0,0,1,127,268.75Zm-3.13-.88h2.74l6.7-53-4.76,1.35Z" fill="#231f20"/><path d="M161,124.68a2.32,2.32,0,0,1-3.66-.42" fill="#fff"/><path d="M159.25,125.86l-.22,0a2.82,2.82,0,0,1-2-1.32.45.45,0,0,1,.11-.62.44.44,0,0,1,.61.11,2,2,0,0,0,1.4.95,2.36,2.36,0,0,0,1.59-.6.45.45,0,0,1,.63,0,.44.44,0,0,1,0,.63A3.24,3.24,0,0,1,159.25,125.86Z" fill="#231f20"/><ellipse cx="155.29" cy="113.93" rx="0.58" ry="1.32" transform="translate(-24.2 44.08) rotate(-15)" fill="#231f20"/><path d="M161.54,214.26s1.67-60.59-6.25-64.53-48.19-5.07-50.72,0,8.8,50.72,18.22,64Z" fill="#231f20"/><path d="M161.54,214.71h0l-38.75-.57a.44.44,0,0,1-.35-.18c-9.69-13.64-20.86-59.21-18.26-64.43,1.81-3.61,18.63-3.69,23.74-3.62,10.22.13,23.21,1.25,27.57,3.42,3.44,1.72,5.58,13.2,6.34,34.13.57,15.48.17,30.67.16,30.82A.44.44,0,0,1,161.54,214.71ZM123,213.27l38.09.55c.45-17.09.22-60.59-6-63.7-7.61-3.78-47.76-4.94-50.13-.19S113.65,199.81,123,213.27Z" fill="#231f20"/></g></svg>