<svg xmlns="http://www.w3.org/2000/svg" viewBox="0 0 400 300"><g id="_126_team_presentation_flatline" data-name="#126_team_presentation_flatline"><path d="M307.66,116.25l2.1-11.66c2.28-12.61,5.71-25.7,19-30.44,3.95-1.4,8.07-1.22,11,2.24,2.6-2.48,7-1.53,9.95.47,4.13,2.76,7,7.06,9,11.59,3.56,8,4.69,16.81,8.67,24.8-16.47,13.91-41.09,17.34-60.74,8.46Z" fill="#fff"/><path d="M330,127.11a57.14,57.14,0,0,1-23.52-5,.46.46,0,0,1-.26-.5l3.09-17.12c2.24-12.37,5.76-26,19.33-30.79,4.53-1.61,8.47-.89,11.16,2,2.82-2.28,7.19-1.26,10.17.73,3.72,2.49,6.81,6.45,9.19,11.79a91,91,0,0,1,3.93,11.52A77.63,77.63,0,0,0,367.82,113a.46.46,0,0,1-.11.56A58.7,58.7,0,0,1,330,127.11Zm-22.82-5.67a58.07,58.07,0,0,0,59.67-8.31,80.05,80.05,0,0,1-4.64-13.08,90.73,90.73,0,0,0-3.88-11.41c-2.31-5.17-5.29-9-8.87-11.4-2.81-1.88-6.95-2.84-9.39-.52a.39.39,0,0,1-.34.13.49.49,0,0,1-.32-.16c-3.11-3.71-7.41-3.2-10.47-2.11-13.1,4.67-16.44,17.42-18.73,30.09l-2.1,11.66h0Zm.48-5.19h0Z" fill="#231f20"/><path d="M320.41,120.88s-27,22.73-51.63,15.53l-2.66,16.7s34.29,13.34,48.81,2.5S320.41,120.88,320.41,120.88Z" fill="#cdcd32"/><polygon points="301.27 194.75 294.48 219.53 362.82 219.53 365.62 197.67 301.27 194.75" fill="#231f20"/><path d="M110.6,115.59s-43.14-2.42-61.74,10.25c-27.49,18.72-15.49,38-15.49,38l5.25,9.83L43.24,217H119l-6.34-56.75s11.51,24.2,19.91,24,20.9-13.56,10.35-30.51S110.6,115.59,110.6,115.59Z" fill="#cdcd32"/><path d="M67.22,129.28c1,2.35,3.51,88.29,4.28,87.75H97.55l-6.65-87Z" fill="#231f20"/><path d="M63.33,76.13a5.62,5.62,0,0,1,6,2,5.25,5.25,0,0,1,2.24-4.82,13.16,13.16,0,0,1,5.14-2.06,21.51,21.51,0,0,1,7.73-.65c6.69.92,11.61,6.83,14.49,12.93,1.54,3.25,3,7.83,1.43,11.34-1.5,3.25-6.76,6.12-9.72,8-4.24,2.69-8.94,4.88-13.94,5.3C63.46,109.26,54.67,96.85,57,84.4c.54-2.92,1.89-5.87,4.4-7.46A6.2,6.2,0,0,1,63.33,76.13Z" fill="#fff"/><path d="M75.06,108.71a18,18,0,0,1-13.59-6,21.6,21.6,0,0,1-5-18.37c.65-3.55,2.3-6.32,4.62-7.79a6.59,6.59,0,0,1,2.11-.88h0a6.48,6.48,0,0,1,5.62,1.16,6.17,6.17,0,0,1,2.43-3.92,13.92,13.92,0,0,1,5.34-2.15,22.2,22.2,0,0,1,7.91-.66c5.86.81,11.29,5.63,14.88,13.22,1.58,3.34,3.11,8.1,1.42,11.76-1.36,3-5.53,5.52-8.58,7.39l-1.32.82c-5.11,3.25-9.75,5-14.17,5.38C76.18,108.69,75.62,108.71,75.06,108.71ZM63.45,76.61a6,6,0,0,0-1.8.75c-2.82,1.79-3.83,5.24-4.18,7.13A20.61,20.61,0,0,0,62.21,102a17.16,17.16,0,0,0,14.45,5.63c4.26-.36,8.75-2.06,13.72-5.22l1.33-.83c2.94-1.81,7-4.29,8.2-7,1.53-3.31.07-7.76-1.42-10.92-1.63-3.44-6.26-11.56-14.11-12.65a21.26,21.26,0,0,0-7.55.65,12.75,12.75,0,0,0-5,2,4.72,4.72,0,0,0-2,4.34.51.51,0,0,1-.3.55.5.5,0,0,1-.6-.19c-1.22-1.82-3.63-2.2-5.48-1.77Z" fill="#231f20"/><path d="M89.65,118.26l1.25,11.8s-4,10.86-13.1,8.54-10.58-9.32-10.58-9.32l-1.29-26.89s6.83-3.54,5-18.29a45.31,45.31,0,0,0,23.74,3.59s4,16,2.77,23.1A8.69,8.69,0,0,1,89.65,118.26Z" fill="#fff"/><path d="M80.29,139.43a10.76,10.76,0,0,1-2.61-.34c-9.32-2.38-10.89-9.41-11-9.71l-1.3-27a.51.51,0,0,1,.27-.47c.06,0,6.49-3.61,4.75-17.78a.46.46,0,0,1,.21-.47.49.49,0,0,1,.51,0,45.27,45.27,0,0,0,23.45,3.54.5.5,0,0,1,.54.38c.17.66,4,16.21,2.78,23.31a9.16,9.16,0,0,1-7.74,7.81L91.4,130a.53.53,0,0,1,0,.22C91.33,130.34,87.91,139.43,80.29,139.43ZM66.44,102.66l1.28,26.59c0,.2,1.51,6.66,10.2,8.87,8.12,2.06,12-7,12.47-8.13l-1.24-11.68a.5.5,0,0,1,.12-.37.48.48,0,0,1,.35-.18A8.12,8.12,0,0,0,97,110.71c1.06-6.25-2-19.89-2.65-22.47a47.24,47.24,0,0,1-22.76-3.32C72.85,97.61,67.74,101.81,66.44,102.66Z" fill="#231f20"/><path d="M70.73,108.81a7.36,7.36,0,0,1-5.59,0,7.84,7.84,0,0,1-4.59-6.16,6.67,6.67,0,0,1,.05-3,3.45,3.45,0,0,1,1.81-2.25,5.58,5.58,0,0,1,3.52,0c1.73.4,2,1.27,3.18,2.35-.13-.1-.28-.42-.41-.51" fill="#fff"/><path d="M67.87,109.89a7.75,7.75,0,0,1-2.92-.57,8.3,8.3,0,0,1-4.89-6.53,7,7,0,0,1,.06-3.18A4,4,0,0,1,62.2,97,6.14,6.14,0,0,1,66,97a4.39,4.39,0,0,1,2.57,1.62,2.13,2.13,0,0,0,.21.22L69,99a1.89,1.89,0,0,1,.32.37.71.71,0,0,0,.1.14l0,0a.5.5,0,0,1-.63.78l-.09-.08c-.34-.31-.61-.61-.85-.87A3.38,3.38,0,0,0,65.82,98a5.1,5.1,0,0,0-3.2-.07,3,3,0,0,0-1.54,1.93,6.21,6.21,0,0,0,0,2.74,7.33,7.33,0,0,0,4.29,5.77,6.88,6.88,0,0,0,5.2,0,.5.5,0,0,1,.4.92A7.86,7.86,0,0,1,67.87,109.89Z" fill="#231f20"/><path d="M90,125.67a9.87,9.87,0,0,1-8.78-2.75c-4-3.94-3.63-7.2-3.63-7.2s6,3.67,12,2.54Z" fill="#231f20"/><path d="M88.29,126.34a10.34,10.34,0,0,1-7.38-3.07c-4.11-4.06-3.79-7.46-3.78-7.6a.48.48,0,0,1,.28-.39.47.47,0,0,1,.47,0c.06,0,5.93,3.55,11.68,2.47a.53.53,0,0,1,.4.1.52.52,0,0,1,.19.36l.39,7.42a.51.51,0,0,1-.38.51A8.6,8.6,0,0,1,88.29,126.34Zm-10.12-9.75a10.83,10.83,0,0,0,3.44,6,9.46,9.46,0,0,0,7.91,2.7l-.34-6.42C84.48,119.5,80,117.52,78.17,116.59Z" fill="#231f20"/><path d="M84.14,96.54s5,7,3.85,8.32-4.32.52-4.32.52" fill="#fff"/><path d="M85.63,106.1a10.18,10.18,0,0,1-2.07-.23.5.5,0,0,1,.23-1c.75.18,3.08.49,3.82-.36.45-.51-1.4-4.18-3.88-7.7a.5.5,0,0,1,.12-.7.51.51,0,0,1,.7.13c1.56,2.21,5,7.51,3.82,8.93A3.63,3.63,0,0,1,85.63,106.1Z" fill="#231f20"/><ellipse cx="78.36" cy="96.17" rx="1.67" ry="1.18" transform="translate(-22.47 168.44) rotate(-86.46)" fill="#231f20"/><ellipse cx="89.57" cy="95.97" rx="1.18" ry="1.67" transform="translate(-20.04 23.73) rotate(-13.59)" fill="#231f20"/><path d="M86.69,115.79h-.15A6.78,6.78,0,0,1,81.33,113a10.64,10.64,0,0,1-1.85-4.57h0a.52.52,0,0,1,.11-.4c.18-.22.27-.32,11.1-.7a.51.51,0,0,1,.5.39c0,.18.9,4.28-1.14,6.74A4.34,4.34,0,0,1,86.69,115.79Zm-6.13-7.07a9.46,9.46,0,0,0,1.57,3.63,5.79,5.79,0,0,0,4.43,2.43,3.41,3.41,0,0,0,2.71-1c1.4-1.69,1.16-4.46,1-5.49C86.93,108.4,82.09,108.6,80.56,108.72Z" fill="#231f20"/><path d="M81.73,112.65c2.46,3.27,6.48,3.18,7.92,1.45a4.94,4.94,0,0,0-3.36-2.74A6.94,6.94,0,0,0,81.73,112.65Z" fill="#231f20"/><path d="M86.69,115.78h-.15a6.75,6.75,0,0,1-5.2-2.83.5.5,0,0,1-.1-.39.53.53,0,0,1,.22-.33,7.57,7.57,0,0,1,4.89-1.36c1.42.17,2.68,1.17,3.73,3a.48.48,0,0,1,0,.57A4.31,4.31,0,0,1,86.69,115.78Zm-4.21-3a5.67,5.67,0,0,0,4.08,2A3.66,3.66,0,0,0,89,114a4.06,4.06,0,0,0-2.79-2.17A6.19,6.19,0,0,0,82.48,112.77Z" fill="#231f20"/><path d="M114.11,188.86a.51.51,0,0,1-.51-.48l-3.44-52.11a.53.53,0,0,1,.49-.55.5.5,0,0,1,.54.48l3.44,52.11a.52.52,0,0,1-.48.55Z" fill="#231f20"/><rect x="102.13" y="69.61" width="199.55" height="160.78" fill="#fff"/><path d="M301.68,230.85H102.13a.46.46,0,0,1-.45-.46V69.61a.46.46,0,0,1,.45-.46H301.68a.46.46,0,0,1,.46.46V230.39A.46.46,0,0,1,301.68,230.85Zm-199.09-.92H301.23V70.07H102.59Z" fill="#231f20"/><path d="M148.16,205.47H131.31a.47.47,0,0,1-.48-.48V124.66a.47.47,0,0,1,.48-.48h16.85a.48.48,0,0,1,.48.48V205A.48.48,0,0,1,148.16,205.47Zm-16.37-1h15.89V125.14H131.79Z" fill="#d1d3d4"/><path d="M179.25,205.47H162.4a.47.47,0,0,1-.48-.48V157.88a.48.48,0,0,1,.48-.48h16.85a.48.48,0,0,1,.47.48V205A.47.47,0,0,1,179.25,205.47Zm-16.38-1h15.9V158.36h-15.9Z" fill="#d1d3d4"/><path d="M210.33,205.47H193.48A.48.48,0,0,1,193,205V136.24a.48.48,0,0,1,.48-.48h16.85a.47.47,0,0,1,.48.48V205A.47.47,0,0,1,210.33,205.47Zm-16.37-1h15.89v-67.8H194Z" fill="#d1d3d4"/><path d="M241.42,205.47H224.57a.47.47,0,0,1-.48-.48V175.5a.48.48,0,0,1,.48-.48h16.85a.49.49,0,0,1,.48.48V205A.48.48,0,0,1,241.42,205.47Zm-16.37-1h15.89V176H225.05Z" fill="#d1d3d4"/><path d="M272.51,205.47H255.66a.47.47,0,0,1-.48-.48V136.24a.47.47,0,0,1,.48-.48h16.85a.48.48,0,0,1,.48.48V205A.48.48,0,0,1,272.51,205.47Zm-16.38-1H272v-67.8h-15.9Z" fill="#d1d3d4"/><path d="M38.62,173.66s34.47,39.59,55.83,29.76c.53-.24,1-.49,1.56-.75,12.73-6.5,34.5-30.85,38.62-35.59,3.63-4.16,9.29-8,9.2-14a11,11,0,0,0-4.82-8.81c1.14-1.65,5.33-7.93,5.59-9.09.31-1.42-.76-1.82-2.22-1.48-1.78.43-11.91,14.6-14.43,17.5.45-1.07,1.13-9.52-1.54-9.22-2.83.31-2.43,10.79-6.69,14.77S94.17,178.5,89,178.21s-27.92-24.78-27.92-24.78" fill="#fff"/><path d="M86.89,205.51c-7.9,0-17.5-4.31-28.67-12.89a156.21,156.21,0,0,1-20-18.64.49.49,0,0,1,0-.7.51.51,0,0,1,.71.05c.34.39,34.46,39.2,55.24,29.64.52-.24,1-.49,1.54-.75,13.58-6.93,37.47-34.3,38.48-35.47.84-1,1.81-1.94,2.75-2.88,3.14-3.13,6.38-6.38,6.32-10.78a10.37,10.37,0,0,0-4.6-8.4.5.5,0,0,1-.13-.7c1.81-2.63,5.31-8,5.51-8.92a.91.91,0,0,0-.1-.78,1.78,1.78,0,0,0-1.51-.1c-1.09.31-6.67,7.62-10,12-1.8,2.37-3.37,4.42-4.17,5.35a.5.5,0,0,1-.84-.52c.35-.83.81-6.6-.39-8.21a.66.66,0,0,0-.63-.33c-1,.11-1.66,2.71-2.28,5.23-.85,3.39-1.8,7.24-4.13,9.42-4,3.7-25.27,21.6-30.91,21.6H89c-5.27-.29-27.32-23.93-28.25-24.94a.49.49,0,0,1,0-.7.5.5,0,0,1,.71,0c6.3,6.77,23.54,24.4,27.58,24.63,4.77.26,25.7-17,30.31-21.34,2.11-2,3-5.66,3.84-8.92s1.43-5.8,3.14-6a1.62,1.62,0,0,1,1.54.72c1.06,1.43,1.1,4.91.87,7.2.8-1,1.82-2.36,2.94-3.82,6.21-8.15,9.37-12.08,10.56-12.36a2.57,2.57,0,0,1,2.44.36,1.72,1.72,0,0,1,.37,1.7c-.27,1.28-4.28,7.24-5.38,8.87a11.42,11.42,0,0,1,4.63,8.93c.07,4.82-3.33,8.22-6.61,11.5-1,1-1.89,1.88-2.71,2.83-1,1.17-25,28.69-38.77,35.7-.52.27-1,.52-1.58.77A18.37,18.37,0,0,1,86.89,205.51Z" fill="#231f20"/><path d="M320.41,120.88s-7.2,6.55-10.22,23c-1.92,10.43-8.92,50.9-8.92,50.9l64.34,2.92s6-37.66,2.57-53.8S356.11,106.21,320.41,120.88Z" fill="#cdcd32"/><path d="M343.62,116.91l.88,12.23s-3.32,5.4-10.9,3.8-7.93-6.6-7.93-6.6l-.55-21.24a38,38,0,0,0,.48-11.44c9-.74,15.71-8,15.71-8s3.41,4.46,4.86,5.85a18.79,18.79,0,0,1,3,3.51c1.41,2.27,1.55,5.21,1.66,7.82a50.36,50.36,0,0,1-.31,9.27C349.74,117.93,343.62,116.91,343.62,116.91Z" fill="#fff"/><path d="M336.29,133.69a13.46,13.46,0,0,1-2.78-.3c-7.83-1.65-8.28-6.8-8.29-7-.55-21.26-.55-21.26-.55-21.27a5.3,5.3,0,0,1,.14-1,35.24,35.24,0,0,0,.34-10.35.48.48,0,0,1,.11-.34.45.45,0,0,1,.31-.16c8.74-.71,15.33-7.81,15.4-7.88a.41.41,0,0,1,.36-.15.5.5,0,0,1,.34.18c0,.05,3.41,4.45,4.81,5.8a19.15,19.15,0,0,1,3.12,3.6c1.48,2.4,1.62,5.53,1.73,8a50.82,50.82,0,0,1-.32,9.36,5.84,5.84,0,0,1-2.24,4.08,7.32,7.32,0,0,1-4.65,1.19L345,129.1a.47.47,0,0,1-.07.28A10.37,10.37,0,0,1,336.29,133.69ZM326.1,94.07a35.68,35.68,0,0,1-.39,10.15,7,7,0,0,0-.13.87c0,.11.55,21.24.55,21.24,0,.17.45,4.67,7.57,6.16,6.56,1.39,9.81-2.73,10.34-3.48l-.87-12.07a.43.43,0,0,1,.15-.37.41.41,0,0,1,.38-.11,6.8,6.8,0,0,0,4.53-1A4.91,4.91,0,0,0,350.1,112a50.65,50.65,0,0,0,.32-9.19c-.11-2.53-.24-5.41-1.6-7.6a18.44,18.44,0,0,0-3-3.42c-1.2-1.16-3.69-4.33-4.58-5.48C339.75,87.85,333.87,93.25,326.1,94.07Z" fill="#231f20"/><path d="M344,122.92s-4.95.54-8.36-2.56a8.57,8.57,0,0,1-3.16-6.46s5.61,3.25,11.19,3Z" fill="#231f20"/><path d="M343,123.4a11.68,11.68,0,0,1-7.74-2.71c-3.53-3.2-3.31-6.68-3.3-6.82a.44.44,0,0,1,.66-.35c.06,0,5.55,3.19,11,2.94a.45.45,0,0,1,.45.42l.33,6a.45.45,0,0,1-.39.46C343.94,123.36,343.59,123.4,343,123.4Zm-10.12-8.74a8.78,8.78,0,0,0,3,5.38c2.66,2.42,6.37,2.51,7.61,2.47l-.28-5.15A23.62,23.62,0,0,1,332.91,114.66Z" fill="#231f20"/><path d="M338.14,99.61s4.32,5.62,3.45,6.7-3.53.58-3.53.58" fill="#fff"/><path d="M339.41,107.46a8.65,8.65,0,0,1-1.43-.13.46.46,0,0,1-.36-.52.45.45,0,0,1,.52-.35c.63.12,2.53.29,3.11-.42.3-.49-1.31-3.36-3.46-6.16a.44.44,0,0,1,.08-.62.44.44,0,0,1,.62.08c1.36,1.77,4.43,6,3.45,7.25A3.24,3.24,0,0,1,339.41,107.46Z" fill="#231f20"/><ellipse cx="342.71" cy="98.26" rx="1.27" ry="0.68" transform="translate(224.15 434.49) rotate(-86.57)" fill="#231f20"/><ellipse cx="331.21" cy="97.8" rx="1.27" ry="0.68" transform="translate(213.8 422.58) rotate(-86.57)" fill="#231f20"/><path d="M341.5,109.79l-3.19-.6s-.34,4.62,1.45,4.9S341.5,109.79,341.5,109.79Z" fill="#fff"/><path d="M339.92,114.55l-.23,0c-2.13-.34-1.86-4.86-1.82-5.37a.45.45,0,0,1,.52-.41l3.19.6a.44.44,0,0,1,.36.43c0,.35,0,3.44-1.14,4.43A1.35,1.35,0,0,1,339.92,114.55Zm-1.19-4.83c0,1.47.17,3.79,1.1,3.94a.46.46,0,0,0,.39-.12c.57-.49.8-2.21.83-3.39Z" fill="#231f20"/><path d="M327.47,99.73c-1-2.09-3.74-2.7-5.8-2.15a3.49,3.49,0,0,0-2.67,2.84c-.38,2.18.62,4.65,1.7,6.49a5.12,5.12,0,0,0,1.93,2.06,2.18,2.18,0,0,0,2.62-.38" fill="#fff"/><path d="M323.76,109.69a3,3,0,0,1-1.34-.31,5.43,5.43,0,0,1-2.11-2.24c-1-1.76-2.18-4.37-1.77-6.8a4,4,0,0,1,3-3.21c2.28-.61,5.27.12,6.32,2.41a.46.46,0,1,1-.83.38c-.84-1.84-3.34-2.42-5.26-1.9a3,3,0,0,0-2.34,2.48c-.39,2.26.86,4.84,1.65,6.18a4.65,4.65,0,0,0,1.73,1.88,1.72,1.72,0,0,0,2.06-.26.46.46,0,1,1,.71.57A2.3,2.3,0,0,1,323.76,109.69Z" fill="#231f20"/><path d="M346.1,105.25a7.14,7.14,0,1,1,.47,0Zm0-13.5h-.42a6.35,6.35,0,1,0,.42,0Z" fill="#231f20"/><path d="M332.1,105a7.22,7.22,0,0,1-7.19-6.74h0a7.21,7.21,0,1,1,7.66,6.73Zm-6.28-6.8a6.29,6.29,0,1,0,12.56-.82,6.3,6.3,0,0,0-6.69-5.87,6.3,6.3,0,0,0-5.87,6.69Z" fill="#231f20"/><path d="M282.9,172.35s-10.21-14.86-10.7-13,2,7.78,2,7.78-10.24-10.81-12.14-9.11-5,7.1-2.56,12.55c.55,1.23,10.15,11.73,17.54,14" fill="#fff"/><path d="M277,185.07l-.13,0c-7.71-2.38-17.28-13-17.83-14.25-2.58-5.74.69-11.29,2.68-13.08.49-.44,2.72-1.11,11.2,7.51-.69-1.94-1.51-4.67-1.18-5.95a.64.64,0,0,1,.51-.5c1.36-.26,6.74,7.1,11,13.31a.45.45,0,0,1-.12.63.46.46,0,0,1-.64-.12c-4-5.76-8.55-11.84-9.92-12.8-.13,1.68,1.37,5.69,2,7.19a.47.47,0,0,1-.17.56.46.46,0,0,1-.58-.07c-4.8-5.06-10.56-9.92-11.5-9.08-1.76,1.58-4.81,6.8-2.46,12,.51,1.13,10,11.49,17.27,13.74a.47.47,0,0,1,.3.58A.46.46,0,0,1,277,185.07Z" fill="#231f20"/><path d="M347.83,140.13s-27.28,35.8-32.62,37.18c-11.75,3-34.51-11.76-34.51-11.76s-11.05,17.56-10.88,17.66c5.2,3,39.74,22,58.29,14.46s34.13-44.25,34.13-44.25" fill="#cdcd32"/><path d="M316.59,178.48c-11.35,0-25.63-6.65-25.77-6.72a.45.45,0,1,1,.38-.82c.15.06,14.25,6.62,25.39,6.62,2.2,0,6.82-2.81,16.34-16.23,5.75-8.11,10.58-16.33,10.63-16.41a.45.45,0,1,1,.78.46C343.55,146.73,324.85,178.48,316.59,178.48Z" fill="#231f20"/><path d="M305.63,170.12h-.11a.46.46,0,0,1-.34-.55l8.55-36.72a.46.46,0,0,1,.55-.34.44.44,0,0,1,.34.54l-8.55,36.73A.46.46,0,0,1,305.63,170.12Z" fill="#231f20"/><path d="M272.11,97.07H243.6a.48.48,0,1,1,0-.95h28.51a.48.48,0,1,1,0,.95Z" fill="#d1d3d4"/><path d="M272.11,103.36H243.6a.48.48,0,1,1,0-1h28.51a.48.48,0,1,1,0,1Z" fill="#d1d3d4"/><path d="M262.19,109.66H243.6a.48.48,0,0,1-.48-.48.47.47,0,0,1,.48-.48h18.59a.47.47,0,0,1,.48.48A.48.48,0,0,1,262.19,109.66Z" fill="#d1d3d4"/><path d="M161.25,83H132.73a.48.48,0,0,1,0-.95h28.52a.48.48,0,0,1,0,.95Z" fill="#d1d3d4"/><path d="M151.33,89.25h-18.6a.48.48,0,0,1,0-1h18.6a.48.48,0,1,1,0,1Z" fill="#d1d3d4"/><path d="M235.08,146.91c-8.77,0-16.52-9.92-22.77-17.93-4.41-5.64-8.21-10.57-11.05-10.43-3.06.09-7.16,2.46-11.49,5-5.76,3.33-12.28,7.09-18.36,6.77-11.38-.61-33-26-33.9-27.1a.47.47,0,0,1,.05-.67.49.49,0,0,1,.68.06c.22.26,22.25,26.17,33.22,26.76,5.81.33,12.19-3.39,17.83-6.65,4.44-2.57,8.64-5,11.94-5.1s7.08,4.71,11.83,10.8c6.25,8,14,18,22.53,17.55,7.45-.36,10.95-6.72,14.64-13.46,3.43-6.25,7-12.72,14-14a.48.48,0,0,1,.18.94c-6.56,1.25-10,7.51-13.32,13.57-3.66,6.67-7.45,13.57-15.43,14Z" fill="#d1d3d4"/><path d="M286.92,205.47H117.69a.47.47,0,0,1-.48-.48.48.48,0,0,1,.48-.48H286.92a.48.48,0,0,1,.48.48A.47.47,0,0,1,286.92,205.47Z" fill="#d1d3d4"/><path d="M138.29,106.08a3.3,3.3,0,1,1,3.29-3.3A3.3,3.3,0,0,1,138.29,106.08Zm0-5.63a2.34,2.34,0,1,0,2.33,2.33A2.34,2.34,0,0,0,138.29,100.45Z" fill="#d1d3d4"/><path d="M264.3,122.19a3.29,3.29,0,1,1,3.29-3.29A3.29,3.29,0,0,1,264.3,122.19Zm0-5.63a2.34,2.34,0,1,0,2.34,2.34A2.34,2.34,0,0,0,264.3,116.56Z" fill="#d1d3d4"/><path d="M332.1,195.21a.46.46,0,0,1-.29-.81c.18-.15,18-15,28-36.71a.46.46,0,0,1,.61-.22.44.44,0,0,1,.22.6c-10.08,21.92-28,36.88-28.21,37A.46.46,0,0,1,332.1,195.21Z" fill="#231f20"/></g></svg>